<svg width="24" height="25" viewBox="0 0 24 25" fill="none" xmlns="http://www.w3.org/2000/svg">
<path fill-rule="evenodd" clip-rule="evenodd" d="M16.5137 21.9999H8.1659C5.09954 21.9999 2.74714 20.8924 3.41533 16.4347L4.19336 10.3935C4.60526 8.16925 6.02402 7.31799 7.26888 7.31799H17.4474C18.7105 7.31799 20.0469 8.23332 20.5229 10.3935L21.3009 16.4347C21.8684 20.3889 19.5801 21.9999 16.5137 21.9999Z" stroke="#75777E" stroke-width="1.5" stroke-linecap="round" stroke-linejoin="round"/>
<path opacity="0.4" d="M16.651 7.09836C16.651 4.71229 14.7167 2.77799 12.3307 2.77799V2.77799C11.1817 2.77312 10.0781 3.22615 9.26386 4.03691C8.44967 4.84766 7.99198 5.94935 7.99199 7.09836H7.99199" stroke="#75777E" stroke-width="1.5" stroke-linecap="round" stroke-linejoin="round"/>
<path d="M15.2963 11.6018H15.2506" stroke="#75777E" stroke-width="1.5" stroke-linecap="round" stroke-linejoin="round"/>
<path d="M9.46567 11.6018H9.41991" stroke="#75777E" stroke-width="1.5" stroke-linecap="round" stroke-linejoin="round"/>
</svg>
