<svg width="220" height="220" viewBox="-30 -30 260 260" fill="none" xmlns="http://www.w3.org/2000/svg">
<path className='line' d="M209.808 110.235C219.39 128.274 221.315 144.086 217.989 157.654C214.662 171.23 206.064 182.626 194.482 191.795C171.303 210.147 136.272 219.5 108.167 219.5C80.0948 219.5 61.686 211.669 46.8057 194.114C31.8811 176.508 20.4811 149.096 6.55621 109.833C-0.376732 90.2845 -0.984323 73.7031 2.8439 59.8283C6.67206 45.9538 14.948 34.7417 25.8577 25.9519C47.6936 8.35895 80.0491 0.5 108.167 0.5C122.206 0.5 133.144 2.83425 142.261 7.4385C151.377 12.0423 158.708 18.9345 165.506 28.1101C172.309 37.2923 178.564 48.7436 185.534 62.4532C187.773 66.8573 190.086 71.4947 192.514 76.3626C197.638 86.6351 203.274 97.9342 209.808 110.235Z" stroke="#FF6000"/>
<path className='line' d="M213.5 110C213.5 138.677 209.254 157.887 194.267 173.253C179.241 188.659 153.359 200.27 109.854 213.522C88.1672 220.128 70.8952 220.513 57.1865 216.527C43.4854 212.543 33.2949 204.18 25.7878 193.194C10.7523 171.193 6.5 138.698 6.5 110C6.5 81.3203 10.6224 62.1118 25.5462 46.7469C40.5087 31.342 66.3902 19.7301 110.145 6.47859C131.958 -0.127548 149.292 -0.51253 163.025 3.47335C176.749 7.45689 186.924 15.8201 194.399 26.8047C209.372 48.8061 213.5 81.3001 213.5 110Z" stroke="#FF6000"/>
<path className='line' d="M195.528 110.164C200.371 124.074 200.393 136.337 196.992 146.909C193.59 157.486 186.751 166.409 177.81 173.611C159.917 188.024 133.661 195.5 110 195.5C98.2321 195.5 90.2601 192.222 84.0964 186.827C77.9088 181.411 73.508 173.833 68.9439 165.143C68.2107 163.747 67.4739 162.323 66.7252 160.876C58.1671 144.342 48.0673 124.828 24.2698 109.579C17.8833 105.487 13.7292 101.109 11.4056 96.601C9.08585 92.1006 8.57411 87.4398 9.52195 82.7395C11.4242 73.3064 19.2155 63.6816 30.1863 55.0174C41.14 46.3666 55.1876 38.7335 69.4617 33.2638C83.7395 27.7926 98.2073 24.5 110 24.5C133.621 24.5 150.107 31.9505 163.128 46.3355C176.18 60.7543 185.779 82.1684 195.528 110.164Z" stroke="#FF6000"/>
<path className='line' d="M186.5 110C186.5 120.524 183.568 126.95 178.769 131.597C174.01 136.206 167.383 139.106 159.731 142.453L159.362 142.614C143.769 149.437 124.387 158.114 109.556 186.77C102.224 200.936 93.8881 205.682 85.5939 204.501C77.2027 203.307 68.605 196.034 60.8396 185.525C53.0936 175.043 46.2549 161.449 41.3533 147.819C36.4501 134.183 33.5 120.553 33.5 110C33.5 99.413 34.9629 91.2661 37.9646 84.5207C40.9641 77.7803 45.516 72.4036 51.7512 67.3798C57.9947 62.3494 65.9131 57.6825 75.6386 52.357C78.7826 50.6354 82.1155 48.8449 85.6394 46.9519C93.0025 42.9964 101.199 38.593 110.248 33.4345C123.541 25.8559 134.908 24.2415 144.479 26.6686C154.056 29.0974 161.918 35.5947 168.154 44.4043C180.638 62.0395 186.5 88.8016 186.5 110Z" stroke="#FF6000"/>
<path d="M74.7248 117V104.317H79.6643C82.1516 104.317 83.8743 105.987 83.8743 108.475V108.492C83.8743 110.971 82.1516 112.667 79.6643 112.667H76.6936V117H74.7248ZM79.1721 105.979H76.6936V111.015H79.1721C80.8772 111.015 81.8703 110.092 81.8703 108.501V108.483C81.8703 106.901 80.8772 105.979 79.1721 105.979ZM89.5787 117.185C86.7838 117.185 85.0963 115.277 85.0963 112.254V112.245C85.0963 109.266 86.8189 107.271 89.482 107.271C92.1451 107.271 93.7799 109.195 93.7799 112.061V112.729H87.0123C87.0475 114.557 88.0494 115.62 89.6227 115.62C90.8443 115.62 91.5738 115.014 91.8023 114.521L91.8375 114.451L93.6744 114.442L93.6568 114.521C93.3404 115.778 92.0221 117.185 89.5787 117.185ZM89.4908 108.835C88.19 108.835 87.2057 109.723 87.0387 111.366H91.8902C91.7408 109.661 90.7828 108.835 89.4908 108.835ZM95.6875 117V107.455H97.5947V108.896H97.7353C98.0781 107.886 98.9658 107.288 100.24 107.288C100.548 107.288 100.882 107.332 101.075 107.376V109.134C100.732 109.063 100.407 109.02 100.047 109.02C98.5879 109.02 97.5947 109.916 97.5947 111.296V117H95.6875ZM105.813 117.185C103.51 117.185 102.051 116.104 101.867 114.504V114.495H103.774L103.783 114.504C104.02 115.225 104.714 115.708 105.848 115.708C107.026 115.708 107.843 115.172 107.843 114.39V114.372C107.843 113.774 107.395 113.37 106.287 113.115L104.767 112.764C102.965 112.351 102.13 111.533 102.13 110.136V110.127C102.13 108.466 103.677 107.271 105.839 107.271C108.019 107.271 109.416 108.36 109.583 109.916V109.925H107.764V109.907C107.579 109.239 106.903 108.738 105.83 108.738C104.784 108.738 104.029 109.257 104.029 110.021V110.039C104.029 110.637 104.468 111.006 105.54 111.261L107.052 111.604C108.889 112.034 109.768 112.816 109.768 114.196V114.214C109.768 115.98 108.08 117.185 105.813 117.185ZM115.727 117.185C112.924 117.185 111.21 115.312 111.21 112.236V112.219C111.21 109.151 112.932 107.271 115.727 107.271C118.513 107.271 120.236 109.143 120.236 112.219V112.236C120.236 115.312 118.522 117.185 115.727 117.185ZM115.727 115.594C117.362 115.594 118.294 114.346 118.294 112.236V112.219C118.294 110.101 117.362 108.861 115.727 108.861C114.084 108.861 113.161 110.101 113.161 112.219V112.236C113.161 114.354 114.084 115.594 115.727 115.594ZM122.152 117V107.455H124.06V108.905H124.2C124.666 107.886 125.58 107.271 126.969 107.271C129.105 107.271 130.282 108.545 130.282 110.821V117H128.384V111.27C128.384 109.688 127.725 108.905 126.327 108.905C124.93 108.905 124.06 109.863 124.06 111.401V117H122.152ZM135.204 117.158C133.385 117.158 132.04 116.051 132.04 114.319V114.302C132.04 112.597 133.324 111.604 135.6 111.463L138.184 111.313V110.47C138.184 109.424 137.525 108.844 136.233 108.844C135.178 108.844 134.484 109.23 134.255 109.907L134.246 109.942H132.41L132.418 109.881C132.647 108.316 134.15 107.271 136.321 107.271C138.72 107.271 140.074 108.466 140.074 110.47V117H138.184V115.646H138.035C137.472 116.613 136.47 117.158 135.204 117.158ZM133.939 114.24C133.939 115.119 134.686 115.638 135.714 115.638C137.138 115.638 138.184 114.706 138.184 113.476V112.658L135.855 112.808C134.537 112.887 133.939 113.361 133.939 114.223V114.24ZM142.491 117V103.711H144.398V117H142.491Z" fill="black"/>
<path d="M74.7248 117V104.317H79.6643C82.1516 104.317 83.8743 105.987 83.8743 108.475V108.492C83.8743 110.971 82.1516 112.667 79.6643 112.667H76.6936V117H74.7248ZM79.1721 105.979H76.6936V111.015H79.1721C80.8772 111.015 81.8703 110.092 81.8703 108.501V108.483C81.8703 106.901 80.8772 105.979 79.1721 105.979ZM89.5787 117.185C86.7838 117.185 85.0963 115.277 85.0963 112.254V112.245C85.0963 109.266 86.8189 107.271 89.482 107.271C92.1451 107.271 93.7799 109.195 93.7799 112.061V112.729H87.0123C87.0475 114.557 88.0494 115.62 89.6227 115.62C90.8443 115.62 91.5738 115.014 91.8023 114.521L91.8375 114.451L93.6744 114.442L93.6568 114.521C93.3404 115.778 92.0221 117.185 89.5787 117.185ZM89.4908 108.835C88.19 108.835 87.2057 109.723 87.0387 111.366H91.8902C91.7408 109.661 90.7828 108.835 89.4908 108.835ZM95.6875 117V107.455H97.5947V108.896H97.7353C98.0781 107.886 98.9658 107.288 100.24 107.288C100.548 107.288 100.882 107.332 101.075 107.376V109.134C100.732 109.063 100.407 109.02 100.047 109.02C98.5879 109.02 97.5947 109.916 97.5947 111.296V117H95.6875ZM105.813 117.185C103.51 117.185 102.051 116.104 101.867 114.504V114.495H103.774L103.783 114.504C104.02 115.225 104.714 115.708 105.848 115.708C107.026 115.708 107.843 115.172 107.843 114.39V114.372C107.843 113.774 107.395 113.37 106.287 113.115L104.767 112.764C102.965 112.351 102.13 111.533 102.13 110.136V110.127C102.13 108.466 103.677 107.271 105.839 107.271C108.019 107.271 109.416 108.36 109.583 109.916V109.925H107.764V109.907C107.579 109.239 106.903 108.738 105.83 108.738C104.784 108.738 104.029 109.257 104.029 110.021V110.039C104.029 110.637 104.468 111.006 105.54 111.261L107.052 111.604C108.889 112.034 109.768 112.816 109.768 114.196V114.214C109.768 115.98 108.08 117.185 105.813 117.185ZM115.727 117.185C112.924 117.185 111.21 115.312 111.21 112.236V112.219C111.21 109.151 112.932 107.271 115.727 107.271C118.513 107.271 120.236 109.143 120.236 112.219V112.236C120.236 115.312 118.522 117.185 115.727 117.185ZM115.727 115.594C117.362 115.594 118.294 114.346 118.294 112.236V112.219C118.294 110.101 117.362 108.861 115.727 108.861C114.084 108.861 113.161 110.101 113.161 112.219V112.236C113.161 114.354 114.084 115.594 115.727 115.594ZM122.152 117V107.455H124.06V108.905H124.2C124.666 107.886 125.58 107.271 126.969 107.271C129.105 107.271 130.282 108.545 130.282 110.821V117H128.384V111.27C128.384 109.688 127.725 108.905 126.327 108.905C124.93 108.905 124.06 109.863 124.06 111.401V117H122.152ZM135.204 117.158C133.385 117.158 132.04 116.051 132.04 114.319V114.302C132.04 112.597 133.324 111.604 135.6 111.463L138.184 111.313V110.47C138.184 109.424 137.525 108.844 136.233 108.844C135.178 108.844 134.484 109.23 134.255 109.907L134.246 109.942H132.41L132.418 109.881C132.647 108.316 134.15 107.271 136.321 107.271C138.72 107.271 140.074 108.466 140.074 110.47V117H138.184V115.646H138.035C137.472 116.613 136.47 117.158 135.204 117.158ZM133.939 114.24C133.939 115.119 134.686 115.638 135.714 115.638C137.138 115.638 138.184 114.706 138.184 113.476V112.658L135.855 112.808C134.537 112.887 133.939 113.361 133.939 114.223V114.24ZM142.491 117V103.711H144.398V117H142.491Z" fill="url(#paint0_linear_42_11)"/>
<defs>
<linearGradient id="paint0_linear_42_11" x1="73" y1="121" x2="146" y2="121" gradientUnits="userSpaceOnUse">
<stop stop-color="#FF6000" stop-opacity="0"/>
<stop offset="0.0768204" stop-color="#FF6000" stop-opacity="0.208333"/>
<stop offset="0.236872" stop-color="#FF6000"/>
<stop offset="0.496578" stop-color="#FF6000" stop-opacity="0.197917"/>
<stop offset="0.63549" stop-color="#FF6000" stop-opacity="0"/>
</linearGradient>
</defs>
</svg>
