<svg width="220" height="220" viewBox="-30 -30 260 260" fill="none" xmlns="http://www.w3.org/2000/svg">
<path className='line' d="M219.225 108C221.21 133.276 212.415 153.556 193.853 170.768C175.266 188.004 146.881 202.165 109.697 215.123C91.207 221.567 75.1689 220.466 61.5023 214.623C47.8237 208.776 36.4823 198.162 27.4351 185.522C9.33056 160.226 0.499973 126.936 0.5 107.961C0.500027 89.0546 12.5226 63.6072 32.265 42.1906C51.9955 20.7869 79.3531 3.50198 109.905 0.825001C140.423 -1.84892 166.746 12.2443 185.958 33.3816C205.175 54.5245 217.237 82.6752 219.225 108Z" stroke="#FF6000"/>
<path className='line' d="M213.5 109.785C213.5 124.645 205.75 143.062 189.133 161.537C172.523 180.004 147.082 198.495 111.781 213.497C94.2178 220.961 81.5501 219.498 71.7962 212.902C61.9936 206.272 55.038 194.401 49.0699 180.827C46.1086 174.091 43.3999 166.961 40.7073 159.873L40.6551 159.735C37.9472 152.607 35.2538 145.523 32.3419 138.959C26.5289 125.854 19.7958 114.694 10.1972 109.348C5.56862 106.77 2.74137 103.395 1.41285 99.4586C0.0810648 95.5128 0.23699 90.9482 1.68174 85.9704C4.57497 76.0019 12.5998 64.5077 23.7953 53.3575C46.1821 31.061 81.0352 10.3458 112.045 6.10739C142.931 1.88587 168.279 20.2509 185.95 43.539C194.78 55.1753 201.671 68.0157 206.354 79.8175C211.041 91.6289 213.5 102.361 213.5 109.785Z" stroke="#FF6000"/>
<path className='line' d="M195.54 110.196C203.451 128.739 198.895 150.036 183.94 166.729C168.986 183.42 143.63 195.5 110 195.5C76.2763 195.5 51.3372 189.623 36.6176 176.07C21.9409 162.556 17.2954 141.278 24.4871 110.112C31.691 78.894 41.2896 57.505 54.9497 43.917C68.5889 30.3498 86.3396 24.5 110 24.5C133.549 24.5 150.919 36.5131 164.422 53.2514C177.936 70.003 187.538 91.4417 195.54 110.196Z" stroke="#FF6000"/>
<path className='line' d="M186.5 110C186.5 129.716 183.501 148.073 172.484 161.876C161.481 175.66 142.394 185.004 109.977 186.501C77.5735 187.996 58.3848 179.396 47.3315 165.255C36.2528 151.081 33.2503 131.228 33.5001 110.006C33.7473 89.0065 47.1982 75.0098 63.5355 63.661C70.2569 58.9919 77.4412 54.7882 84.3706 50.7337C85.8616 49.8613 87.3409 48.9958 88.8011 48.134C97.0321 43.2766 104.669 38.5342 110.337 33.3697C115.775 28.4151 123.181 27.973 131.356 30.8738C139.535 33.7758 148.396 40.0011 156.583 48.2182C172.97 64.6635 186.5 88.919 186.5 110Z" stroke="#FF6000"/>
<path d="M74.7248 117V104.317H79.6643C82.1516 104.317 83.8743 105.987 83.8743 108.475V108.492C83.8743 110.971 82.1516 112.667 79.6643 112.667H76.6936V117H74.7248ZM79.1721 105.979H76.6936V111.015H79.1721C80.8772 111.015 81.8703 110.092 81.8703 108.501V108.483C81.8703 106.901 80.8772 105.979 79.1721 105.979ZM89.5787 117.185C86.7838 117.185 85.0963 115.277 85.0963 112.254V112.245C85.0963 109.266 86.8189 107.271 89.482 107.271C92.1451 107.271 93.7799 109.195 93.7799 112.061V112.729H87.0123C87.0475 114.557 88.0494 115.62 89.6227 115.62C90.8443 115.62 91.5738 115.014 91.8023 114.521L91.8375 114.451L93.6744 114.442L93.6568 114.521C93.3404 115.778 92.0221 117.185 89.5787 117.185ZM89.4908 108.835C88.19 108.835 87.2057 109.723 87.0387 111.366H91.8902C91.7408 109.661 90.7828 108.835 89.4908 108.835ZM95.6875 117V107.455H97.5947V108.896H97.7353C98.0781 107.886 98.9658 107.288 100.24 107.288C100.548 107.288 100.882 107.332 101.075 107.376V109.134C100.732 109.063 100.407 109.02 100.047 109.02C98.5879 109.02 97.5947 109.916 97.5947 111.296V117H95.6875ZM105.813 117.185C103.51 117.185 102.051 116.104 101.867 114.504V114.495H103.774L103.783 114.504C104.02 115.225 104.714 115.708 105.848 115.708C107.026 115.708 107.843 115.172 107.843 114.39V114.372C107.843 113.774 107.395 113.37 106.287 113.115L104.767 112.764C102.965 112.351 102.13 111.533 102.13 110.136V110.127C102.13 108.466 103.677 107.271 105.839 107.271C108.019 107.271 109.416 108.36 109.583 109.916V109.925H107.764V109.907C107.579 109.239 106.903 108.738 105.83 108.738C104.784 108.738 104.029 109.257 104.029 110.021V110.039C104.029 110.637 104.468 111.006 105.54 111.261L107.052 111.604C108.889 112.034 109.768 112.816 109.768 114.196V114.214C109.768 115.98 108.08 117.185 105.813 117.185ZM115.727 117.185C112.924 117.185 111.21 115.312 111.21 112.236V112.219C111.21 109.151 112.932 107.271 115.727 107.271C118.513 107.271 120.236 109.143 120.236 112.219V112.236C120.236 115.312 118.522 117.185 115.727 117.185ZM115.727 115.594C117.362 115.594 118.294 114.346 118.294 112.236V112.219C118.294 110.101 117.362 108.861 115.727 108.861C114.084 108.861 113.161 110.101 113.161 112.219V112.236C113.161 114.354 114.084 115.594 115.727 115.594ZM122.152 117V107.455H124.06V108.905H124.2C124.666 107.886 125.58 107.271 126.969 107.271C129.105 107.271 130.282 108.545 130.282 110.821V117H128.384V111.27C128.384 109.688 127.725 108.905 126.327 108.905C124.93 108.905 124.06 109.863 124.06 111.401V117H122.152ZM135.204 117.158C133.385 117.158 132.04 116.051 132.04 114.319V114.302C132.04 112.597 133.324 111.604 135.6 111.463L138.184 111.313V110.47C138.184 109.424 137.525 108.844 136.233 108.844C135.178 108.844 134.484 109.23 134.255 109.907L134.246 109.942H132.41L132.418 109.881C132.647 108.316 134.15 107.271 136.321 107.271C138.72 107.271 140.074 108.466 140.074 110.47V117H138.184V115.646H138.035C137.472 116.613 136.47 117.158 135.204 117.158ZM133.939 114.24C133.939 115.119 134.686 115.638 135.714 115.638C137.138 115.638 138.184 114.706 138.184 113.476V112.658L135.855 112.808C134.537 112.887 133.939 113.361 133.939 114.223V114.24ZM142.491 117V103.711H144.398V117H142.491Z" fill="black"/>
<path d="M74.7248 117V104.317H79.6643C82.1516 104.317 83.8743 105.987 83.8743 108.475V108.492C83.8743 110.971 82.1516 112.667 79.6643 112.667H76.6936V117H74.7248ZM79.1721 105.979H76.6936V111.015H79.1721C80.8772 111.015 81.8703 110.092 81.8703 108.501V108.483C81.8703 106.901 80.8772 105.979 79.1721 105.979ZM89.5787 117.185C86.7838 117.185 85.0963 115.277 85.0963 112.254V112.245C85.0963 109.266 86.8189 107.271 89.482 107.271C92.1451 107.271 93.7799 109.195 93.7799 112.061V112.729H87.0123C87.0475 114.557 88.0494 115.62 89.6227 115.62C90.8443 115.62 91.5738 115.014 91.8023 114.521L91.8375 114.451L93.6744 114.442L93.6568 114.521C93.3404 115.778 92.0221 117.185 89.5787 117.185ZM89.4908 108.835C88.19 108.835 87.2057 109.723 87.0387 111.366H91.8902C91.7408 109.661 90.7828 108.835 89.4908 108.835ZM95.6875 117V107.455H97.5947V108.896H97.7353C98.0781 107.886 98.9658 107.288 100.24 107.288C100.548 107.288 100.882 107.332 101.075 107.376V109.134C100.732 109.063 100.407 109.02 100.047 109.02C98.5879 109.02 97.5947 109.916 97.5947 111.296V117H95.6875ZM105.813 117.185C103.51 117.185 102.051 116.104 101.867 114.504V114.495H103.774L103.783 114.504C104.02 115.225 104.714 115.708 105.848 115.708C107.026 115.708 107.843 115.172 107.843 114.39V114.372C107.843 113.774 107.395 113.37 106.287 113.115L104.767 112.764C102.965 112.351 102.13 111.533 102.13 110.136V110.127C102.13 108.466 103.677 107.271 105.839 107.271C108.019 107.271 109.416 108.36 109.583 109.916V109.925H107.764V109.907C107.579 109.239 106.903 108.738 105.83 108.738C104.784 108.738 104.029 109.257 104.029 110.021V110.039C104.029 110.637 104.468 111.006 105.54 111.261L107.052 111.604C108.889 112.034 109.768 112.816 109.768 114.196V114.214C109.768 115.98 108.08 117.185 105.813 117.185ZM115.727 117.185C112.924 117.185 111.21 115.312 111.21 112.236V112.219C111.21 109.151 112.932 107.271 115.727 107.271C118.513 107.271 120.236 109.143 120.236 112.219V112.236C120.236 115.312 118.522 117.185 115.727 117.185ZM115.727 115.594C117.362 115.594 118.294 114.346 118.294 112.236V112.219C118.294 110.101 117.362 108.861 115.727 108.861C114.084 108.861 113.161 110.101 113.161 112.219V112.236C113.161 114.354 114.084 115.594 115.727 115.594ZM122.152 117V107.455H124.06V108.905H124.2C124.666 107.886 125.58 107.271 126.969 107.271C129.105 107.271 130.282 108.545 130.282 110.821V117H128.384V111.27C128.384 109.688 127.725 108.905 126.327 108.905C124.93 108.905 124.06 109.863 124.06 111.401V117H122.152ZM135.204 117.158C133.385 117.158 132.04 116.051 132.04 114.319V114.302C132.04 112.597 133.324 111.604 135.6 111.463L138.184 111.313V110.47C138.184 109.424 137.525 108.844 136.233 108.844C135.178 108.844 134.484 109.23 134.255 109.907L134.246 109.942H132.41L132.418 109.881C132.647 108.316 134.15 107.271 136.321 107.271C138.72 107.271 140.074 108.466 140.074 110.47V117H138.184V115.646H138.035C137.472 116.613 136.47 117.158 135.204 117.158ZM133.939 114.24C133.939 115.119 134.686 115.638 135.714 115.638C137.138 115.638 138.184 114.706 138.184 113.476V112.658L135.855 112.808C134.537 112.887 133.939 113.361 133.939 114.223V114.24ZM142.491 117V103.711H144.398V117H142.491Z" fill="url(#paint0_linear_42_35)"/>
<defs>
<linearGradient id="paint0_linear_42_35" x1="73" y1="121" x2="161.5" y2="121" gradientUnits="userSpaceOnUse">
<stop offset="0.347333" stop-color="#FF6000" stop-opacity="0"/>
<stop offset="0.496789" stop-color="#FF6000" stop-opacity="0.208333"/>
<stop offset="0.691082" stop-color="#FF6000"/>
<stop offset="0.900321" stop-color="#FF6000" stop-opacity="0.197917"/>
<stop offset="1" stop-color="#FF6000" stop-opacity="0"/>
</linearGradient>
</defs>
</svg>
