<svg width="220" height="220" viewBox="-30 -30 260 260" fill="none" xmlns="http://www.w3.org/2000/svg">
<path className='line' d="M219.386 111.28C217.892 148.968 205.939 179.027 186.708 197.8C167.493 216.558 140.961 224.101 110.159 216.679C48.3592 201.789 4.66708 163.893 0.695624 111.262C-1.28469 85.0184 11.9436 64.4704 32.7789 47.5667C53.6249 30.6544 82.024 17.444 110.231 5.89634C138.235 -5.56841 166.239 1.94346 186.899 21.7347C207.566 41.534 220.879 73.6303 219.386 111.28Z" stroke="#FF6000"/>
<path className='line' d="M213.51 109.9C209.51 129.398 203.526 154.552 188.595 175.207C173.686 195.831 149.829 212.006 109.981 213.5C69.9963 215 43.4392 209.736 27.2244 193.892C11.0124 178.052 5.00037 151.498 6.49965 110.018C7.99782 68.5696 18.1098 37.5939 35.6709 19.5363C53.1941 1.51779 78.2295 -3.73107 109.846 6.47593C141.537 16.7069 169.466 32.9216 188.464 51.4208C207.475 69.9338 217.46 90.6449 213.51 109.9Z" stroke="#FF6000"/>
<path className='line' d="M195.501 109.964C193.251 141.22 188.627 162.554 176.256 176.1C163.905 189.624 143.719 195.5 110 195.5C76.3517 195.5 55.139 185.535 42.2605 169.932C29.3658 154.309 24.7494 132.945 24.4998 109.995C24.0028 64.2742 62.7803 24.5 110 24.5C133.677 24.5 156.171 30.3588 172.175 43.9437C188.159 57.5107 197.742 78.8443 195.501 109.964Z" stroke="#FF6000"/>
<path className='line' d="M186.5 109.988C185.002 142.153 175.155 165.38 161.096 178.51C147.06 191.618 128.775 194.715 110.201 186.542C92.7749 178.875 84.9415 165.45 76.7484 151.409C76.2077 150.482 75.6654 149.552 75.1187 148.622C66.2926 133.599 56.344 118.346 33.1778 109.533C27.4864 107.368 23.8259 104.616 21.798 101.497C19.7785 98.3911 19.3401 94.8624 20.2062 91.0485C21.9495 83.3718 28.9644 74.618 38.8233 66.2566C48.6603 57.9139 61.2466 50.0307 73.9928 44.0783C86.7452 38.123 99.6178 34.1191 110.03 33.4992C151.702 31.0185 186.494 67.7172 186.5 109.988Z" stroke="#FF6000"/>
<path d="M74.7248 117V104.317H79.6643C82.1516 104.317 83.8743 105.987 83.8743 108.475V108.492C83.8743 110.971 82.1516 112.667 79.6643 112.667H76.6936V117H74.7248ZM79.1721 105.979H76.6936V111.015H79.1721C80.8772 111.015 81.8703 110.092 81.8703 108.501V108.483C81.8703 106.901 80.8772 105.979 79.1721 105.979ZM89.5787 117.185C86.7838 117.185 85.0963 115.277 85.0963 112.254V112.245C85.0963 109.266 86.8189 107.271 89.482 107.271C92.1451 107.271 93.7799 109.195 93.7799 112.061V112.729H87.0123C87.0475 114.557 88.0494 115.62 89.6227 115.62C90.8443 115.62 91.5738 115.014 91.8023 114.521L91.8375 114.451L93.6744 114.442L93.6568 114.521C93.3404 115.778 92.0221 117.185 89.5787 117.185ZM89.4908 108.835C88.19 108.835 87.2057 109.723 87.0387 111.366H91.8902C91.7408 109.661 90.7828 108.835 89.4908 108.835ZM95.6875 117V107.455H97.5947V108.896H97.7353C98.0781 107.886 98.9658 107.288 100.24 107.288C100.548 107.288 100.882 107.332 101.075 107.376V109.134C100.732 109.063 100.407 109.02 100.047 109.02C98.5879 109.02 97.5947 109.916 97.5947 111.296V117H95.6875ZM105.813 117.185C103.51 117.185 102.051 116.104 101.867 114.504V114.495H103.774L103.783 114.504C104.02 115.225 104.714 115.708 105.848 115.708C107.026 115.708 107.843 115.172 107.843 114.39V114.372C107.843 113.774 107.395 113.37 106.287 113.115L104.767 112.764C102.965 112.351 102.13 111.533 102.13 110.136V110.127C102.13 108.466 103.677 107.271 105.839 107.271C108.019 107.271 109.416 108.36 109.583 109.916V109.925H107.764V109.907C107.579 109.239 106.903 108.738 105.83 108.738C104.784 108.738 104.029 109.257 104.029 110.021V110.039C104.029 110.637 104.468 111.006 105.54 111.261L107.052 111.604C108.889 112.034 109.768 112.816 109.768 114.196V114.214C109.768 115.98 108.08 117.185 105.813 117.185ZM115.727 117.185C112.924 117.185 111.21 115.312 111.21 112.236V112.219C111.21 109.151 112.932 107.271 115.727 107.271C118.513 107.271 120.236 109.143 120.236 112.219V112.236C120.236 115.312 118.522 117.185 115.727 117.185ZM115.727 115.594C117.362 115.594 118.294 114.346 118.294 112.236V112.219C118.294 110.101 117.362 108.861 115.727 108.861C114.084 108.861 113.161 110.101 113.161 112.219V112.236C113.161 114.354 114.084 115.594 115.727 115.594ZM122.152 117V107.455H124.06V108.905H124.2C124.666 107.886 125.58 107.271 126.969 107.271C129.105 107.271 130.282 108.545 130.282 110.821V117H128.384V111.27C128.384 109.688 127.725 108.905 126.327 108.905C124.93 108.905 124.06 109.863 124.06 111.401V117H122.152ZM135.204 117.158C133.385 117.158 132.04 116.051 132.04 114.319V114.302C132.04 112.597 133.324 111.604 135.6 111.463L138.184 111.313V110.47C138.184 109.424 137.525 108.844 136.233 108.844C135.178 108.844 134.484 109.23 134.255 109.907L134.246 109.942H132.41L132.418 109.881C132.647 108.316 134.15 107.271 136.321 107.271C138.72 107.271 140.074 108.466 140.074 110.47V117H138.184V115.646H138.035C137.472 116.613 136.47 117.158 135.204 117.158ZM133.939 114.24C133.939 115.119 134.686 115.638 135.714 115.638C137.138 115.638 138.184 114.706 138.184 113.476V112.658L135.855 112.808C134.537 112.887 133.939 113.361 133.939 114.223V114.24ZM142.491 117V103.711H144.398V117H142.491Z" fill="black"/>
<path d="M74.7248 117V104.317H79.6643C82.1516 104.317 83.8743 105.987 83.8743 108.475V108.492C83.8743 110.971 82.1516 112.667 79.6643 112.667H76.6936V117H74.7248ZM79.1721 105.979H76.6936V111.015H79.1721C80.8772 111.015 81.8703 110.092 81.8703 108.501V108.483C81.8703 106.901 80.8772 105.979 79.1721 105.979ZM89.5787 117.185C86.7838 117.185 85.0963 115.277 85.0963 112.254V112.245C85.0963 109.266 86.8189 107.271 89.482 107.271C92.1451 107.271 93.7799 109.195 93.7799 112.061V112.729H87.0123C87.0475 114.557 88.0494 115.62 89.6227 115.62C90.8443 115.62 91.5738 115.014 91.8023 114.521L91.8375 114.451L93.6744 114.442L93.6568 114.521C93.3404 115.778 92.0221 117.185 89.5787 117.185ZM89.4908 108.835C88.19 108.835 87.2057 109.723 87.0387 111.366H91.8902C91.7408 109.661 90.7828 108.835 89.4908 108.835ZM95.6875 117V107.455H97.5947V108.896H97.7353C98.0781 107.886 98.9658 107.288 100.24 107.288C100.548 107.288 100.882 107.332 101.075 107.376V109.134C100.732 109.063 100.407 109.02 100.047 109.02C98.5879 109.02 97.5947 109.916 97.5947 111.296V117H95.6875ZM105.813 117.185C103.51 117.185 102.051 116.104 101.867 114.504V114.495H103.774L103.783 114.504C104.02 115.225 104.714 115.708 105.848 115.708C107.026 115.708 107.843 115.172 107.843 114.39V114.372C107.843 113.774 107.395 113.37 106.287 113.115L104.767 112.764C102.965 112.351 102.13 111.533 102.13 110.136V110.127C102.13 108.466 103.677 107.271 105.839 107.271C108.019 107.271 109.416 108.36 109.583 109.916V109.925H107.764V109.907C107.579 109.239 106.903 108.738 105.83 108.738C104.784 108.738 104.029 109.257 104.029 110.021V110.039C104.029 110.637 104.468 111.006 105.54 111.261L107.052 111.604C108.889 112.034 109.768 112.816 109.768 114.196V114.214C109.768 115.98 108.08 117.185 105.813 117.185ZM115.727 117.185C112.924 117.185 111.21 115.312 111.21 112.236V112.219C111.21 109.151 112.932 107.271 115.727 107.271C118.513 107.271 120.236 109.143 120.236 112.219V112.236C120.236 115.312 118.522 117.185 115.727 117.185ZM115.727 115.594C117.362 115.594 118.294 114.346 118.294 112.236V112.219C118.294 110.101 117.362 108.861 115.727 108.861C114.084 108.861 113.161 110.101 113.161 112.219V112.236C113.161 114.354 114.084 115.594 115.727 115.594ZM122.152 117V107.455H124.06V108.905H124.2C124.666 107.886 125.58 107.271 126.969 107.271C129.105 107.271 130.282 108.545 130.282 110.821V117H128.384V111.27C128.384 109.688 127.725 108.905 126.327 108.905C124.93 108.905 124.06 109.863 124.06 111.401V117H122.152ZM135.204 117.158C133.385 117.158 132.04 116.051 132.04 114.319V114.302C132.04 112.597 133.324 111.604 135.6 111.463L138.184 111.313V110.47C138.184 109.424 137.525 108.844 136.233 108.844C135.178 108.844 134.484 109.23 134.255 109.907L134.246 109.942H132.41L132.418 109.881C132.647 108.316 134.15 107.271 136.321 107.271C138.72 107.271 140.074 108.466 140.074 110.47V117H138.184V115.646H138.035C137.472 116.613 136.47 117.158 135.204 117.158ZM133.939 114.24C133.939 115.119 134.686 115.638 135.714 115.638C137.138 115.638 138.184 114.706 138.184 113.476V112.658L135.855 112.808C134.537 112.887 133.939 113.361 133.939 114.223V114.24ZM142.491 117V103.711H144.398V117H142.491Z" fill="url(#paint0_linear_42_27)"/>
<defs>
<linearGradient id="paint0_linear_42_27" x1="73" y1="121" x2="146" y2="121" gradientUnits="userSpaceOnUse">
<stop stop-color="#FF6000" stop-opacity="0"/>
<stop offset="0.15625" stop-color="#FF6000" stop-opacity="0.208333"/>
<stop offset="0.5" stop-color="#FF6000"/>
<stop offset="0.84375" stop-color="#FF6000" stop-opacity="0.197917"/>
<stop offset="1" stop-color="#FF6000" stop-opacity="0"/>
</linearGradient>
</defs>
</svg>
