<svg width="220" height="220" viewBox="-30 -30 260 260" fill="none" xmlns="http://www.w3.org/2000/svg">
<path className='line' d="M209.598 110.397C214.406 114.084 217.315 118.524 218.642 123.469C219.97 128.422 219.719 133.916 218.15 139.713C215.008 151.318 206.604 164.059 195.236 175.904C183.876 187.741 169.592 198.647 154.746 206.59C139.895 214.537 124.52 219.5 110.973 219.5C83.7514 219.5 52.2855 209.904 31.0615 191.435C20.4557 182.206 12.4183 170.772 8.72867 157.22C5.0399 143.672 5.6861 127.969 12.5108 110.179C26.2337 74.4087 37.2815 46.9867 51.7003 28.495C58.9004 19.2609 66.9309 12.2689 76.5419 7.58223C86.1534 2.89528 97.3738 0.5 110.973 0.5C137.98 0.5 152.805 20.2405 165.817 43.9902C168.482 48.8532 171.075 53.8948 173.681 58.9603C177.411 66.2117 181.166 73.5123 185.191 80.4083C192.043 92.1468 199.741 102.838 209.598 110.397Z" stroke="#FF6000"/>
<path className='line' d="M207.571 110.176C225.149 140.402 214.943 172.258 192.846 193.566C170.737 214.885 136.829 225.535 107.191 213.386C77.3218 201.143 52.1475 189.538 34.4347 173.855C16.7544 158.201 6.5 138.475 6.5 109.924C6.5 81.2964 13.2825 55.4479 29.2031 36.763C45.1114 18.0924 70.208 6.5 107.002 6.5C125.409 6.5 138.649 9.17976 148.716 14.1152C158.773 19.0459 165.705 26.248 171.465 35.3708C176.906 43.9888 181.29 54.299 186.276 66.0248C186.577 66.7335 186.88 67.4474 187.187 68.1664C192.552 80.7687 198.692 94.908 207.571 110.176Z" stroke="#FF6000"/>
<path className='line' d="M195.561 110.24C202.143 122.285 204.173 133.611 202.53 143.819C200.886 154.028 195.56 163.166 187.347 170.822C170.907 186.145 142.922 195.5 110 195.5C93.5614 195.5 81.2719 192.48 71.7672 187.395C62.2652 182.311 55.5113 175.145 50.1713 166.793C44.8258 158.433 40.9036 148.897 37.0593 139.076C36.6358 137.994 36.2132 136.908 35.7898 135.82C32.3752 127.049 28.9048 118.134 24.4412 109.765C14.5746 91.2647 20.3334 69.9949 36.4228 53.2843C52.5091 36.5769 78.8756 24.5 110 24.5C125.578 24.5 137.029 26.8371 145.862 31.0681C154.688 35.2954 160.936 41.4306 166.085 49.0914C171.242 56.7649 175.288 65.9558 179.712 76.2982C180.008 76.9904 180.306 77.6875 180.606 78.3897C184.782 88.1678 189.367 98.9038 195.561 110.24Z" stroke="#FF6000"/>
<path className='line' d="M172.5 110C172.5 131.191 167.398 150.325 157.047 164.148C146.71 177.952 131.11 186.5 110 186.5C99.4505 186.5 91.0682 184.083 84.0104 179.883C76.9465 175.679 71.1816 169.673 65.8937 162.455C60.6326 155.273 55.8612 146.916 50.7519 137.967L50.665 137.815C45.5275 128.817 40.0499 119.235 33.4101 109.714C26.87 100.336 25.7405 90.9301 28.3509 82.0789C30.968 73.2048 37.3587 64.8448 45.937 57.6327C63.0995 43.2035 88.8622 33.5 110 33.5C131.11 33.5 146.71 42.0477 157.047 55.8525C167.398 69.6752 172.5 88.809 172.5 110Z" stroke="#FF6000"/>
<path d="M74.7248 117V104.317H79.6643C82.1516 104.317 83.8743 105.987 83.8743 108.475V108.492C83.8743 110.971 82.1516 112.667 79.6643 112.667H76.6936V117H74.7248ZM79.1721 105.979H76.6936V111.015H79.1721C80.8772 111.015 81.8703 110.092 81.8703 108.501V108.483C81.8703 106.901 80.8772 105.979 79.1721 105.979ZM89.5787 117.185C86.7838 117.185 85.0963 115.277 85.0963 112.254V112.245C85.0963 109.266 86.8189 107.271 89.482 107.271C92.1451 107.271 93.7799 109.195 93.7799 112.061V112.729H87.0123C87.0475 114.557 88.0494 115.62 89.6227 115.62C90.8443 115.62 91.5738 115.014 91.8023 114.521L91.8375 114.451L93.6744 114.442L93.6568 114.521C93.3404 115.778 92.0221 117.185 89.5787 117.185ZM89.4908 108.835C88.19 108.835 87.2057 109.723 87.0387 111.366H91.8902C91.7408 109.661 90.7828 108.835 89.4908 108.835ZM95.6875 117V107.455H97.5947V108.896H97.7353C98.0781 107.886 98.9658 107.288 100.24 107.288C100.548 107.288 100.882 107.332 101.075 107.376V109.134C100.732 109.063 100.407 109.02 100.047 109.02C98.5879 109.02 97.5947 109.916 97.5947 111.296V117H95.6875ZM105.813 117.185C103.51 117.185 102.051 116.104 101.867 114.504V114.495H103.774L103.783 114.504C104.02 115.225 104.714 115.708 105.848 115.708C107.026 115.708 107.843 115.172 107.843 114.39V114.372C107.843 113.774 107.395 113.37 106.287 113.115L104.767 112.764C102.965 112.351 102.13 111.533 102.13 110.136V110.127C102.13 108.466 103.677 107.271 105.839 107.271C108.019 107.271 109.416 108.36 109.583 109.916V109.925H107.764V109.907C107.579 109.239 106.903 108.738 105.83 108.738C104.784 108.738 104.029 109.257 104.029 110.021V110.039C104.029 110.637 104.468 111.006 105.54 111.261L107.052 111.604C108.889 112.034 109.768 112.816 109.768 114.196V114.214C109.768 115.98 108.08 117.185 105.813 117.185ZM115.727 117.185C112.924 117.185 111.21 115.312 111.21 112.236V112.219C111.21 109.151 112.932 107.271 115.727 107.271C118.513 107.271 120.236 109.143 120.236 112.219V112.236C120.236 115.312 118.522 117.185 115.727 117.185ZM115.727 115.594C117.362 115.594 118.294 114.346 118.294 112.236V112.219C118.294 110.101 117.362 108.861 115.727 108.861C114.084 108.861 113.161 110.101 113.161 112.219V112.236C113.161 114.354 114.084 115.594 115.727 115.594ZM122.152 117V107.455H124.06V108.905H124.2C124.666 107.886 125.58 107.271 126.969 107.271C129.105 107.271 130.282 108.545 130.282 110.821V117H128.384V111.27C128.384 109.688 127.725 108.905 126.327 108.905C124.93 108.905 124.06 109.863 124.06 111.401V117H122.152ZM135.204 117.158C133.385 117.158 132.04 116.051 132.04 114.319V114.302C132.04 112.597 133.324 111.604 135.6 111.463L138.184 111.313V110.47C138.184 109.424 137.525 108.844 136.233 108.844C135.178 108.844 134.484 109.23 134.255 109.907L134.246 109.942H132.41L132.418 109.881C132.647 108.316 134.15 107.271 136.321 107.271C138.72 107.271 140.074 108.466 140.074 110.47V117H138.184V115.646H138.035C137.472 116.613 136.47 117.158 135.204 117.158ZM133.939 114.24C133.939 115.119 134.686 115.638 135.714 115.638C137.138 115.638 138.184 114.706 138.184 113.476V112.658L135.855 112.808C134.537 112.887 133.939 113.361 133.939 114.223V114.24ZM142.491 117V103.711H144.398V117H142.491Z" fill="black"/>
<path d="M74.7248 117V104.317H79.6643C82.1516 104.317 83.8743 105.987 83.8743 108.475V108.492C83.8743 110.971 82.1516 112.667 79.6643 112.667H76.6936V117H74.7248ZM79.1721 105.979H76.6936V111.015H79.1721C80.8772 111.015 81.8703 110.092 81.8703 108.501V108.483C81.8703 106.901 80.8772 105.979 79.1721 105.979ZM89.5787 117.185C86.7838 117.185 85.0963 115.277 85.0963 112.254V112.245C85.0963 109.266 86.8189 107.271 89.482 107.271C92.1451 107.271 93.7799 109.195 93.7799 112.061V112.729H87.0123C87.0475 114.557 88.0494 115.62 89.6227 115.62C90.8443 115.62 91.5738 115.014 91.8023 114.521L91.8375 114.451L93.6744 114.442L93.6568 114.521C93.3404 115.778 92.0221 117.185 89.5787 117.185ZM89.4908 108.835C88.19 108.835 87.2057 109.723 87.0387 111.366H91.8902C91.7408 109.661 90.7828 108.835 89.4908 108.835ZM95.6875 117V107.455H97.5947V108.896H97.7353C98.0781 107.886 98.9658 107.288 100.24 107.288C100.548 107.288 100.882 107.332 101.075 107.376V109.134C100.732 109.063 100.407 109.02 100.047 109.02C98.5879 109.02 97.5947 109.916 97.5947 111.296V117H95.6875ZM105.813 117.185C103.51 117.185 102.051 116.104 101.867 114.504V114.495H103.774L103.783 114.504C104.02 115.225 104.714 115.708 105.848 115.708C107.026 115.708 107.843 115.172 107.843 114.39V114.372C107.843 113.774 107.395 113.37 106.287 113.115L104.767 112.764C102.965 112.351 102.13 111.533 102.13 110.136V110.127C102.13 108.466 103.677 107.271 105.839 107.271C108.019 107.271 109.416 108.36 109.583 109.916V109.925H107.764V109.907C107.579 109.239 106.903 108.738 105.83 108.738C104.784 108.738 104.029 109.257 104.029 110.021V110.039C104.029 110.637 104.468 111.006 105.54 111.261L107.052 111.604C108.889 112.034 109.768 112.816 109.768 114.196V114.214C109.768 115.98 108.08 117.185 105.813 117.185ZM115.727 117.185C112.924 117.185 111.21 115.312 111.21 112.236V112.219C111.21 109.151 112.932 107.271 115.727 107.271C118.513 107.271 120.236 109.143 120.236 112.219V112.236C120.236 115.312 118.522 117.185 115.727 117.185ZM115.727 115.594C117.362 115.594 118.294 114.346 118.294 112.236V112.219C118.294 110.101 117.362 108.861 115.727 108.861C114.084 108.861 113.161 110.101 113.161 112.219V112.236C113.161 114.354 114.084 115.594 115.727 115.594ZM122.152 117V107.455H124.06V108.905H124.2C124.666 107.886 125.58 107.271 126.969 107.271C129.105 107.271 130.282 108.545 130.282 110.821V117H128.384V111.27C128.384 109.688 127.725 108.905 126.327 108.905C124.93 108.905 124.06 109.863 124.06 111.401V117H122.152ZM135.204 117.158C133.385 117.158 132.04 116.051 132.04 114.319V114.302C132.04 112.597 133.324 111.604 135.6 111.463L138.184 111.313V110.47C138.184 109.424 137.525 108.844 136.233 108.844C135.178 108.844 134.484 109.23 134.255 109.907L134.246 109.942H132.41L132.418 109.881C132.647 108.316 134.15 107.271 136.321 107.271C138.72 107.271 140.074 108.466 140.074 110.47V117H138.184V115.646H138.035C137.472 116.613 136.47 117.158 135.204 117.158ZM133.939 114.24C133.939 115.119 134.686 115.638 135.714 115.638C137.138 115.638 138.184 114.706 138.184 113.476V112.658L135.855 112.808C134.537 112.887 133.939 113.361 133.939 114.223V114.24ZM142.491 117V103.711H144.398V117H142.491Z" fill="url(#paint0_linear_42_3)"/>
<defs>
<linearGradient id="paint0_linear_42_3" x1="56.5" y1="121" x2="146" y2="121" gradientUnits="userSpaceOnUse">
<stop stop-color="#FF6000" stop-opacity="0"/>
<stop offset="0.0788975" stop-color="#FF6000" stop-opacity="0.208333"/>
<stop offset="0.149789" stop-color="#FF6000"/>
<stop offset="0.342771" stop-color="#FF6000" stop-opacity="0.197917"/>
<stop offset="0.401847" stop-color="#FF6000" stop-opacity="0"/>
</linearGradient>
</defs>
</svg>
