<svg width="29" height="28" viewBox="0 0 29 28" fill="none" xmlns="http://www.w3.org/2000/svg">
<path d="M8.91672 15.3215L16.9062 10.3991C17.0851 10.2895 17.3142 10.3 17.4817 10.4295C18.2408 11.014 18.9189 11.6067 19.3714 12.1049C19.3714 12.1049 19.7612 12.5039 19.9299 12.7571C20.2023 13.1024 20.3333 13.554 20.3333 13.9926C20.3333 14.485 20.1897 14.9505 19.9037 15.3227C19.8387 15.3892 19.5914 15.6821 19.3577 15.9212C17.9946 17.41 14.4364 19.8694 12.565 20.615C12.2926 20.7352 11.5654 20.986 11.1882 21C10.8246 21 10.4736 20.9207 10.1362 20.7468C9.72137 20.5076 9.39654 20.1366 9.21419 19.6968C9.0968 19.3911 8.91558 18.474 8.91558 18.4472C8.79819 17.7927 8.71043 16.8733 8.66712 15.7999C8.65914 15.6074 8.75602 15.4207 8.91672 15.3215Z" fill="#191E28"/>
<path opacity="0.4" d="M9.4509 12.67C9.09873 12.8881 8.65538 12.6093 8.67247 12.1904C8.71464 11.2081 8.78758 10.3423 8.87648 9.69831C8.89016 9.68431 9.07138 8.54208 9.27995 8.1559C9.64352 7.43836 10.357 6.99967 11.124 6.99967H11.1878C11.6825 7.01251 12.7344 7.4512 12.7344 7.47803C13.2644 7.69854 13.9562 8.07189 14.7005 8.52108C15.0355 8.72409 15.0435 9.22228 14.7084 9.42879L9.4509 12.67Z" fill="#191E28"/>
</svg>
