<svg width="220" height="220" viewBox="-30 -30 260 260" fill="none" xmlns="http://www.w3.org/2000/svg">
<path className='line' d="M204.646 109.646C196.957 117.336 190.974 128.091 185.381 139.84C183.254 144.308 181.185 148.914 179.101 153.557C175.688 161.158 172.231 168.856 168.401 176.206C156.08 199.851 140.083 219.5 110 219.5C79.7815 219.5 55.9233 206.636 39.6089 186.22C23.2861 165.793 14.5 137.784 14.5 107.5C14.5 77.1129 16.6354 50.3874 29.6014 31.2487C42.5323 12.162 66.3324 0.5 110 0.5C153.59 0.5 184.811 20.2978 201.341 43.8497C217.903 67.4472 219.645 94.6475 204.646 109.646Z" stroke="#C6C6C6"/>
<path className='line' d="M211.342 110.11C219.417 130.624 221.091 145.484 218.143 156.544C215.203 167.576 207.638 174.924 196.993 180.364C186.331 185.812 172.63 189.32 157.503 192.685C154.365 193.383 151.167 194.074 147.923 194.775C135.549 197.451 122.515 200.269 109.677 204.123C93.5757 208.958 81.4778 208.319 71.8183 203.998C62.1485 199.672 54.844 191.622 48.4012 181.475C43.2273 173.327 38.6352 163.87 33.8221 153.959C32.6377 151.52 31.4399 149.053 30.2167 146.572C24.0317 134.024 17.2099 121.123 8.22819 109.619C3.80018 103.948 1.42942 98.3469 0.726262 92.8613C0.0231035 87.3757 0.983375 81.9733 3.26727 76.6934C7.84239 66.1166 17.7175 56.0593 30.0733 46.9215C54.7746 28.6536 89.1641 14.2229 109.99 6.75324C120.327 3.04532 129.78 2.53028 138.649 5.0891C147.524 7.64958 155.862 13.3015 163.941 22.0075C180.113 39.4348 195.163 69.0038 211.342 110.11Z" stroke="#C6C6C6"/>
<path className='line' d="M195.515 110.122C201.733 134.743 197.12 156.054 182.639 171.217C168.141 186.396 143.671 195.5 110 195.5C93.1789 195.5 80.7935 192.696 71.3362 187.883C61.8848 183.072 55.3221 176.235 50.1724 168.107C45.0156 159.968 41.2814 150.545 37.483 140.557C37.1649 139.72 36.8463 138.88 36.5265 138.036C33.0324 128.817 29.3826 119.188 24.4429 109.768C19.1422 99.6594 18.6601 86.8243 21.7522 73.8268C24.8429 60.8348 31.4939 47.7328 40.3832 37.1339C49.2747 26.5326 60.3771 18.4683 72.355 15.4932C84.3113 12.5234 97.1851 14.6112 109.692 24.3939C122.335 34.2827 133.256 41.511 142.715 47.5618C144.513 48.7121 146.257 49.8191 147.95 50.8932C155.169 55.4749 161.446 59.4587 166.947 63.6479C173.727 68.8105 179.307 74.2698 183.97 81.5053C188.636 88.744 192.399 97.7834 195.515 110.122Z" stroke="#C6C6C6"/>
<path className='line' d="M186.553 110.224C191.619 120.357 192.017 130.159 189.121 139.175C186.222 148.204 180.009 156.474 171.81 163.495C155.403 177.543 131.143 186.5 110 186.5C88.7687 186.5 67.28 183.001 52.2909 171.725C37.3519 160.488 28.7645 141.442 33.4945 110.075C38.2381 78.6168 46.831 59.5074 59.4482 48.2481C72.0574 36.9958 88.7798 33.5 110 33.5C131.084 33.5 145.075 42.4081 156.37 56.4386C165.867 68.234 173.436 83.6188 181.685 100.384C183.276 103.618 184.893 106.903 186.553 110.224Z" stroke="#C6C6C6"/>
<path d="M64.4436 106V93.3174H69.4445C72.0461 93.3174 73.6633 94.8291 73.6633 97.1846V97.2021C73.6633 98.9072 72.7492 100.296 71.2023 100.814L74.05 106H71.7736L69.1896 101.122H66.4123V106H64.4436ZM66.4123 99.5225H69.2512C70.7629 99.5225 71.6418 98.6963 71.6418 97.2549V97.2373C71.6418 95.8311 70.7102 94.9697 69.1896 94.9697H66.4123V99.5225ZM79.6138 106.185C76.8189 106.185 75.1314 104.277 75.1314 101.254V101.245C75.1314 98.2656 76.8541 96.2705 79.5171 96.2705C82.1802 96.2705 83.815 98.1953 83.815 101.061V101.729H77.0474C77.0826 103.557 78.0845 104.62 79.6578 104.62C80.8795 104.62 81.6089 104.014 81.8375 103.521L81.8726 103.451L83.7095 103.442L83.692 103.521C83.3755 104.778 82.0572 106.185 79.6138 106.185ZM79.5259 97.835C78.2252 97.835 77.2408 98.7227 77.0738 100.366H81.9254C81.7759 98.6611 80.8179 97.835 79.5259 97.835ZM89.7568 109.366C87.331 109.366 85.8368 108.303 85.6083 106.712L85.6259 106.694H87.5507L87.5595 106.712C87.7177 107.371 88.4911 107.837 89.7831 107.837C91.3564 107.837 92.288 107.099 92.288 105.798V103.917H92.1474C91.5673 104.954 90.5126 105.534 89.203 105.534C86.7509 105.534 85.2392 103.645 85.2392 100.955V100.938C85.2392 98.2129 86.7597 96.2881 89.2382 96.2881C90.5741 96.2881 91.6113 96.9473 92.165 98.0195H92.2792V96.4551H94.1777V105.807C94.1777 107.978 92.4638 109.366 89.7568 109.366ZM89.7304 103.961C91.3476 103.961 92.3232 102.73 92.3232 100.946V100.929C92.3232 99.1533 91.3388 97.9053 89.7304 97.9053C88.1044 97.9053 87.1904 99.1533 87.1904 100.929V100.946C87.1904 102.722 88.1044 103.961 89.7304 103.961ZM97.553 94.75C96.8938 94.75 96.3577 94.2139 96.3577 93.5635C96.3577 92.9043 96.8938 92.3682 97.553 92.3682C98.2034 92.3682 98.7483 92.9043 98.7483 93.5635C98.7483 94.2139 98.2034 94.75 97.553 94.75ZM96.595 106V96.4551H98.4934V106H96.595ZM104.382 106.185C102.08 106.185 100.621 105.104 100.436 103.504V103.495H102.343L102.352 103.504C102.589 104.225 103.284 104.708 104.418 104.708C105.595 104.708 106.413 104.172 106.413 103.39V103.372C106.413 102.774 105.964 102.37 104.857 102.115L103.337 101.764C101.535 101.351 100.7 100.533 100.7 99.1357V99.127C100.7 97.4658 102.247 96.2705 104.409 96.2705C106.589 96.2705 107.986 97.3604 108.153 98.916V98.9248H106.334V98.9072C106.149 98.2393 105.472 97.7383 104.4 97.7383C103.354 97.7383 102.598 98.2568 102.598 99.0215V99.0391C102.598 99.6367 103.038 100.006 104.11 100.261L105.622 100.604C107.459 101.034 108.338 101.816 108.338 103.196V103.214C108.338 104.98 106.65 106.185 104.382 106.185ZM113.787 106.062C111.687 106.062 110.825 105.323 110.825 103.486V97.958H109.331V96.4551H110.825V94.0469H112.768V96.4551H114.815V97.958H112.768V103.029C112.768 104.058 113.154 104.479 114.095 104.479C114.385 104.479 114.552 104.471 114.815 104.444V105.965C114.508 106.018 114.156 106.062 113.787 106.062ZM120.581 106.185C117.786 106.185 116.099 104.277 116.099 101.254V101.245C116.099 98.2656 117.822 96.2705 120.485 96.2705C123.148 96.2705 124.783 98.1953 124.783 101.061V101.729H118.015C118.05 103.557 119.052 104.62 120.625 104.62C121.847 104.62 122.577 104.014 122.805 103.521L122.84 103.451L124.677 103.442L124.66 103.521C124.343 104.778 123.025 106.185 120.581 106.185ZM120.494 97.835C119.193 97.835 118.208 98.7227 118.041 100.366H122.893C122.744 98.6611 121.786 97.835 120.494 97.835ZM126.69 106V96.4551H128.597V97.8965H128.738C129.081 96.8857 129.968 96.2881 131.243 96.2881C131.551 96.2881 131.884 96.332 132.078 96.376V98.1338C131.735 98.0635 131.41 98.0195 131.05 98.0195C129.591 98.0195 128.597 98.916 128.597 100.296V106H126.69ZM134.53 94.75C133.871 94.75 133.335 94.2139 133.335 93.5635C133.335 92.9043 133.871 92.3682 134.53 92.3682C135.181 92.3682 135.726 92.9043 135.726 93.5635C135.726 94.2139 135.181 94.75 134.53 94.75ZM133.572 106V96.4551H135.471V106H133.572ZM137.888 106V96.4551H139.795V97.9053H139.936C140.402 96.8857 141.316 96.2705 142.705 96.2705C144.84 96.2705 146.018 97.5449 146.018 99.8213V106H144.12V100.27C144.12 98.6875 143.46 97.9053 142.063 97.9053C140.665 97.9053 139.795 98.8633 139.795 100.401V106H137.888ZM152.355 109.366C149.929 109.366 148.435 108.303 148.207 106.712L148.224 106.694H150.149L150.158 106.712C150.316 107.371 151.09 107.837 152.382 107.837C153.955 107.837 154.887 107.099 154.887 105.798V103.917H154.746C154.166 104.954 153.111 105.534 151.802 105.534C149.349 105.534 147.838 103.645 147.838 100.955V100.938C147.838 98.2129 149.358 96.2881 151.837 96.2881C153.173 96.2881 154.21 96.9473 154.763 98.0195H154.878V96.4551H156.776V105.807C156.776 107.978 155.062 109.366 152.355 109.366ZM152.329 103.961C153.946 103.961 154.922 102.73 154.922 100.946V100.929C154.922 99.1533 153.937 97.9053 152.329 97.9053C150.703 97.9053 149.789 99.1533 149.789 100.929V100.946C149.789 102.722 150.703 103.961 152.329 103.961ZM53.4439 130.357C53.2066 130.357 52.9253 130.34 52.6792 130.313V128.811C52.8638 128.837 53.1011 128.846 53.3208 128.846C54.2085 128.846 54.7446 128.468 55.0259 127.501L55.1665 127.009L51.7036 117.455H53.7603L56.1509 125.084H56.3179L58.6997 117.455H60.7036L57.1529 127.369C56.3443 129.646 55.3775 130.357 53.4439 130.357ZM65.9511 127.185C63.1473 127.185 61.4335 125.312 61.4335 122.236V122.219C61.4335 119.151 63.1561 117.271 65.9511 117.271C68.7372 117.271 70.4598 119.143 70.4598 122.219V122.236C70.4598 125.312 68.746 127.185 65.9511 127.185ZM65.9511 125.594C67.5858 125.594 68.5175 124.346 68.5175 122.236V122.219C68.5175 120.101 67.5858 118.861 65.9511 118.861C64.3075 118.861 63.3846 120.101 63.3846 122.219V122.236C63.3846 124.354 64.3075 125.594 65.9511 125.594ZM75.5579 127.185C73.4045 127.185 72.2883 125.893 72.2883 123.634V117.455H74.1955V123.186C74.1955 124.768 74.7756 125.55 76.1731 125.55C77.7024 125.55 78.5198 124.592 78.5198 123.054V117.455H80.4182V127H78.5198V125.559H78.3704C77.9133 126.587 76.9465 127.185 75.5579 127.185ZM82.8092 127V117.455H84.7164V118.896H84.857C85.1998 117.886 86.0875 117.288 87.3619 117.288C87.6695 117.288 88.0035 117.332 88.1969 117.376V119.134C87.8541 119.063 87.5289 119.02 87.1686 119.02C85.7096 119.02 84.7164 119.916 84.7164 121.296V127H82.8092ZM98.2347 127.185C95.4486 127.185 93.7435 125.286 93.7435 122.201V122.184C93.7435 119.16 95.4398 117.271 98.2259 117.271C100.625 117.271 102.058 118.624 102.322 120.479V120.522L100.493 120.531L100.485 120.505C100.274 119.564 99.5003 118.861 98.2347 118.861C96.6439 118.861 95.6859 120.127 95.6859 122.184V122.201C95.6859 124.311 96.6614 125.594 98.2347 125.594C99.43 125.594 100.168 125.049 100.476 124.021L100.493 123.977H102.322L102.304 124.056C101.961 125.91 100.599 127.185 98.2347 127.185ZM108.167 127.185C105.363 127.185 103.649 125.312 103.649 122.236V122.219C103.649 119.151 105.372 117.271 108.167 117.271C110.953 117.271 112.675 119.143 112.675 122.219V122.236C112.675 125.312 110.962 127.185 108.167 127.185ZM108.167 125.594C109.801 125.594 110.733 124.346 110.733 122.236V122.219C110.733 120.101 109.801 118.861 108.167 118.861C106.523 118.861 105.6 120.101 105.6 122.219V122.236C105.6 124.354 106.523 125.594 108.167 125.594ZM114.592 127V117.455H116.499V118.923H116.64C117.062 117.877 117.993 117.271 119.241 117.271C120.542 117.271 121.465 117.947 121.887 118.976H122.036C122.52 117.947 123.618 117.271 124.945 117.271C126.87 117.271 127.995 118.431 127.995 120.417V127H126.097V120.874C126.097 119.556 125.499 118.905 124.251 118.905C123.038 118.905 122.238 119.811 122.238 120.962V127H120.34V120.681C120.34 119.591 119.628 118.905 118.503 118.905C117.352 118.905 116.499 119.89 116.499 121.138V127H114.592ZM130.298 130.182V117.455H132.205V118.958H132.346C132.9 117.912 133.946 117.288 135.282 117.288C137.69 117.288 139.237 119.213 139.237 122.219V122.236C139.237 125.26 137.707 127.158 135.282 127.158C133.972 127.158 132.856 126.517 132.346 125.488H132.205V130.182H130.298ZM134.746 125.532C136.336 125.532 137.294 124.284 137.294 122.236V122.219C137.294 120.162 136.336 118.923 134.746 118.923C133.155 118.923 132.17 120.18 132.17 122.219V122.236C132.17 124.275 133.155 125.532 134.746 125.532ZM143.79 127.158C141.97 127.158 140.626 126.051 140.626 124.319V124.302C140.626 122.597 141.909 121.604 144.185 121.463L146.769 121.313V120.47C146.769 119.424 146.11 118.844 144.818 118.844C143.763 118.844 143.069 119.23 142.841 119.907L142.832 119.942H140.995L141.004 119.881C141.232 118.316 142.735 117.271 144.906 117.271C147.305 117.271 148.659 118.466 148.659 120.47V127H146.769V125.646H146.62C146.057 126.613 145.055 127.158 143.79 127.158ZM142.524 124.24C142.524 125.119 143.271 125.638 144.3 125.638C145.723 125.638 146.769 124.706 146.769 123.476V122.658L144.44 122.808C143.122 122.887 142.524 123.361 142.524 124.223V124.24ZM150.988 127V117.455H152.896V118.905H153.036C153.502 117.886 154.416 117.271 155.805 117.271C157.941 117.271 159.118 118.545 159.118 120.821V127H157.22V121.27C157.22 119.688 156.561 118.905 155.163 118.905C153.766 118.905 152.896 119.863 152.896 121.401V127H150.988ZM162.037 130.357C161.799 130.357 161.518 130.34 161.272 130.313V128.811C161.457 128.837 161.694 128.846 161.914 128.846C162.801 128.846 163.337 128.468 163.619 127.501L163.759 127.009L160.296 117.455H162.353L164.744 125.084H164.911L167.292 117.455H169.296L165.746 127.369C164.937 129.646 163.97 130.357 162.037 130.357Z" fill="black"/>
<path d="M64.4436 106V93.3174H69.4445C72.0461 93.3174 73.6633 94.8291 73.6633 97.1846V97.2021C73.6633 98.9072 72.7492 100.296 71.2023 100.814L74.05 106H71.7736L69.1896 101.122H66.4123V106H64.4436ZM66.4123 99.5225H69.2512C70.7629 99.5225 71.6418 98.6963 71.6418 97.2549V97.2373C71.6418 95.8311 70.7102 94.9697 69.1896 94.9697H66.4123V99.5225ZM79.6138 106.185C76.8189 106.185 75.1314 104.277 75.1314 101.254V101.245C75.1314 98.2656 76.8541 96.2705 79.5171 96.2705C82.1802 96.2705 83.815 98.1953 83.815 101.061V101.729H77.0474C77.0826 103.557 78.0845 104.62 79.6578 104.62C80.8795 104.62 81.6089 104.014 81.8375 103.521L81.8726 103.451L83.7095 103.442L83.692 103.521C83.3755 104.778 82.0572 106.185 79.6138 106.185ZM79.5259 97.835C78.2252 97.835 77.2408 98.7227 77.0738 100.366H81.9254C81.7759 98.6611 80.8179 97.835 79.5259 97.835ZM89.7568 109.366C87.331 109.366 85.8368 108.303 85.6083 106.712L85.6259 106.694H87.5507L87.5595 106.712C87.7177 107.371 88.4911 107.837 89.7831 107.837C91.3564 107.837 92.288 107.099 92.288 105.798V103.917H92.1474C91.5673 104.954 90.5126 105.534 89.203 105.534C86.7509 105.534 85.2392 103.645 85.2392 100.955V100.938C85.2392 98.2129 86.7597 96.2881 89.2382 96.2881C90.5741 96.2881 91.6113 96.9473 92.165 98.0195H92.2792V96.4551H94.1777V105.807C94.1777 107.978 92.4638 109.366 89.7568 109.366ZM89.7304 103.961C91.3476 103.961 92.3232 102.73 92.3232 100.946V100.929C92.3232 99.1533 91.3388 97.9053 89.7304 97.9053C88.1044 97.9053 87.1904 99.1533 87.1904 100.929V100.946C87.1904 102.722 88.1044 103.961 89.7304 103.961ZM97.553 94.75C96.8938 94.75 96.3577 94.2139 96.3577 93.5635C96.3577 92.9043 96.8938 92.3682 97.553 92.3682C98.2034 92.3682 98.7483 92.9043 98.7483 93.5635C98.7483 94.2139 98.2034 94.75 97.553 94.75ZM96.595 106V96.4551H98.4934V106H96.595ZM104.382 106.185C102.08 106.185 100.621 105.104 100.436 103.504V103.495H102.343L102.352 103.504C102.589 104.225 103.284 104.708 104.418 104.708C105.595 104.708 106.413 104.172 106.413 103.39V103.372C106.413 102.774 105.964 102.37 104.857 102.115L103.337 101.764C101.535 101.351 100.7 100.533 100.7 99.1357V99.127C100.7 97.4658 102.247 96.2705 104.409 96.2705C106.589 96.2705 107.986 97.3604 108.153 98.916V98.9248H106.334V98.9072C106.149 98.2393 105.472 97.7383 104.4 97.7383C103.354 97.7383 102.598 98.2568 102.598 99.0215V99.0391C102.598 99.6367 103.038 100.006 104.11 100.261L105.622 100.604C107.459 101.034 108.338 101.816 108.338 103.196V103.214C108.338 104.98 106.65 106.185 104.382 106.185ZM113.787 106.062C111.687 106.062 110.825 105.323 110.825 103.486V97.958H109.331V96.4551H110.825V94.0469H112.768V96.4551H114.815V97.958H112.768V103.029C112.768 104.058 113.154 104.479 114.095 104.479C114.385 104.479 114.552 104.471 114.815 104.444V105.965C114.508 106.018 114.156 106.062 113.787 106.062ZM120.581 106.185C117.786 106.185 116.099 104.277 116.099 101.254V101.245C116.099 98.2656 117.822 96.2705 120.485 96.2705C123.148 96.2705 124.783 98.1953 124.783 101.061V101.729H118.015C118.05 103.557 119.052 104.62 120.625 104.62C121.847 104.62 122.577 104.014 122.805 103.521L122.84 103.451L124.677 103.442L124.66 103.521C124.343 104.778 123.025 106.185 120.581 106.185ZM120.494 97.835C119.193 97.835 118.208 98.7227 118.041 100.366H122.893C122.744 98.6611 121.786 97.835 120.494 97.835ZM126.69 106V96.4551H128.597V97.8965H128.738C129.081 96.8857 129.968 96.2881 131.243 96.2881C131.551 96.2881 131.884 96.332 132.078 96.376V98.1338C131.735 98.0635 131.41 98.0195 131.05 98.0195C129.591 98.0195 128.597 98.916 128.597 100.296V106H126.69ZM134.53 94.75C133.871 94.75 133.335 94.2139 133.335 93.5635C133.335 92.9043 133.871 92.3682 134.53 92.3682C135.181 92.3682 135.726 92.9043 135.726 93.5635C135.726 94.2139 135.181 94.75 134.53 94.75ZM133.572 106V96.4551H135.471V106H133.572ZM137.888 106V96.4551H139.795V97.9053H139.936C140.402 96.8857 141.316 96.2705 142.705 96.2705C144.84 96.2705 146.018 97.5449 146.018 99.8213V106H144.12V100.27C144.12 98.6875 143.46 97.9053 142.063 97.9053C140.665 97.9053 139.795 98.8633 139.795 100.401V106H137.888ZM152.355 109.366C149.929 109.366 148.435 108.303 148.207 106.712L148.224 106.694H150.149L150.158 106.712C150.316 107.371 151.09 107.837 152.382 107.837C153.955 107.837 154.887 107.099 154.887 105.798V103.917H154.746C154.166 104.954 153.111 105.534 151.802 105.534C149.349 105.534 147.838 103.645 147.838 100.955V100.938C147.838 98.2129 149.358 96.2881 151.837 96.2881C153.173 96.2881 154.21 96.9473 154.763 98.0195H154.878V96.4551H156.776V105.807C156.776 107.978 155.062 109.366 152.355 109.366ZM152.329 103.961C153.946 103.961 154.922 102.73 154.922 100.946V100.929C154.922 99.1533 153.937 97.9053 152.329 97.9053C150.703 97.9053 149.789 99.1533 149.789 100.929V100.946C149.789 102.722 150.703 103.961 152.329 103.961ZM53.4439 130.357C53.2066 130.357 52.9253 130.34 52.6792 130.313V128.811C52.8638 128.837 53.1011 128.846 53.3208 128.846C54.2085 128.846 54.7446 128.468 55.0259 127.501L55.1665 127.009L51.7036 117.455H53.7603L56.1509 125.084H56.3179L58.6997 117.455H60.7036L57.1529 127.369C56.3443 129.646 55.3775 130.357 53.4439 130.357ZM65.9511 127.185C63.1473 127.185 61.4335 125.312 61.4335 122.236V122.219C61.4335 119.151 63.1561 117.271 65.9511 117.271C68.7372 117.271 70.4598 119.143 70.4598 122.219V122.236C70.4598 125.312 68.746 127.185 65.9511 127.185ZM65.9511 125.594C67.5858 125.594 68.5175 124.346 68.5175 122.236V122.219C68.5175 120.101 67.5858 118.861 65.9511 118.861C64.3075 118.861 63.3846 120.101 63.3846 122.219V122.236C63.3846 124.354 64.3075 125.594 65.9511 125.594ZM75.5579 127.185C73.4045 127.185 72.2883 125.893 72.2883 123.634V117.455H74.1955V123.186C74.1955 124.768 74.7756 125.55 76.1731 125.55C77.7024 125.55 78.5198 124.592 78.5198 123.054V117.455H80.4182V127H78.5198V125.559H78.3704C77.9133 126.587 76.9465 127.185 75.5579 127.185ZM82.8092 127V117.455H84.7164V118.896H84.857C85.1998 117.886 86.0875 117.288 87.3619 117.288C87.6695 117.288 88.0035 117.332 88.1969 117.376V119.134C87.8541 119.063 87.5289 119.02 87.1686 119.02C85.7096 119.02 84.7164 119.916 84.7164 121.296V127H82.8092ZM98.2347 127.185C95.4486 127.185 93.7435 125.286 93.7435 122.201V122.184C93.7435 119.16 95.4398 117.271 98.2259 117.271C100.625 117.271 102.058 118.624 102.322 120.479V120.522L100.493 120.531L100.485 120.505C100.274 119.564 99.5003 118.861 98.2347 118.861C96.6439 118.861 95.6859 120.127 95.6859 122.184V122.201C95.6859 124.311 96.6614 125.594 98.2347 125.594C99.43 125.594 100.168 125.049 100.476 124.021L100.493 123.977H102.322L102.304 124.056C101.961 125.91 100.599 127.185 98.2347 127.185ZM108.167 127.185C105.363 127.185 103.649 125.312 103.649 122.236V122.219C103.649 119.151 105.372 117.271 108.167 117.271C110.953 117.271 112.675 119.143 112.675 122.219V122.236C112.675 125.312 110.962 127.185 108.167 127.185ZM108.167 125.594C109.801 125.594 110.733 124.346 110.733 122.236V122.219C110.733 120.101 109.801 118.861 108.167 118.861C106.523 118.861 105.6 120.101 105.6 122.219V122.236C105.6 124.354 106.523 125.594 108.167 125.594ZM114.592 127V117.455H116.499V118.923H116.64C117.062 117.877 117.993 117.271 119.241 117.271C120.542 117.271 121.465 117.947 121.887 118.976H122.036C122.52 117.947 123.618 117.271 124.945 117.271C126.87 117.271 127.995 118.431 127.995 120.417V127H126.097V120.874C126.097 119.556 125.499 118.905 124.251 118.905C123.038 118.905 122.238 119.811 122.238 120.962V127H120.34V120.681C120.34 119.591 119.628 118.905 118.503 118.905C117.352 118.905 116.499 119.89 116.499 121.138V127H114.592ZM130.298 130.182V117.455H132.205V118.958H132.346C132.9 117.912 133.946 117.288 135.282 117.288C137.69 117.288 139.237 119.213 139.237 122.219V122.236C139.237 125.26 137.707 127.158 135.282 127.158C133.972 127.158 132.856 126.517 132.346 125.488H132.205V130.182H130.298ZM134.746 125.532C136.336 125.532 137.294 124.284 137.294 122.236V122.219C137.294 120.162 136.336 118.923 134.746 118.923C133.155 118.923 132.17 120.18 132.17 122.219V122.236C132.17 124.275 133.155 125.532 134.746 125.532ZM143.79 127.158C141.97 127.158 140.626 126.051 140.626 124.319V124.302C140.626 122.597 141.909 121.604 144.185 121.463L146.769 121.313V120.47C146.769 119.424 146.11 118.844 144.818 118.844C143.763 118.844 143.069 119.23 142.841 119.907L142.832 119.942H140.995L141.004 119.881C141.232 118.316 142.735 117.271 144.906 117.271C147.305 117.271 148.659 118.466 148.659 120.47V127H146.769V125.646H146.62C146.057 126.613 145.055 127.158 143.79 127.158ZM142.524 124.24C142.524 125.119 143.271 125.638 144.3 125.638C145.723 125.638 146.769 124.706 146.769 123.476V122.658L144.44 122.808C143.122 122.887 142.524 123.361 142.524 124.223V124.24ZM150.988 127V117.455H152.896V118.905H153.036C153.502 117.886 154.416 117.271 155.805 117.271C157.941 117.271 159.118 118.545 159.118 120.821V127H157.22V121.27C157.22 119.688 156.561 118.905 155.163 118.905C153.766 118.905 152.896 119.863 152.896 121.401V127H150.988ZM162.037 130.357C161.799 130.357 161.518 130.34 161.272 130.313V128.811C161.457 128.837 161.694 128.846 161.914 128.846C162.801 128.846 163.337 128.468 163.619 127.501L163.759 127.009L160.296 117.455H162.353L164.744 125.084H164.911L167.292 117.455H169.296L165.746 127.369C164.937 129.646 163.97 130.357 162.037 130.357Z" fill="url(#paint0_linear_47_208)"/>
<defs>
<linearGradient id="paint0_linear_47_208" x1="24.1027" y1="131" x2="170" y2="131" gradientUnits="userSpaceOnUse">
<stop stop-color="#FF6000" stop-opacity="0"/>
<stop offset="0.0788975" stop-color="#FF6000" stop-opacity="0.208333"/>
<stop offset="0.149789" stop-color="#FF6000"/>
<stop offset="0.302083" stop-color="#FF6000" stop-opacity="0.197917"/>
<stop offset="0.479167" stop-color="#FF6000" stop-opacity="0"/>
</linearGradient>
</defs>
</svg>
