<svg width="220" height="220" viewBox="-30 -30 260 260" fill="none" xmlns="http://www.w3.org/2000/svg">
<path className='line' d="M208.191 109.556C197.163 115.284 188.754 124.699 181.456 135.544C176.348 143.134 171.762 151.461 167.204 159.74C165.256 163.276 163.314 166.804 161.338 170.261C148.096 193.427 133.31 213.5 105.08 213.5C76.6567 213.5 47.7727 203.021 27.5854 184.851C7.41132 166.693 -4.07201 140.866 2.22876 110.1C8.55846 79.1933 20.0952 53.2894 37.1277 35.1192C54.1483 16.9616 76.6807 6.5 105.08 6.5C119.241 6.5 135.484 11.5472 151.223 19.5053C166.955 27.4602 182.144 38.3042 194.19 49.8518C206.246 61.4098 215.105 73.6276 218.251 84.3184C219.821 89.6563 219.957 94.5789 218.395 98.8445C216.836 103.102 213.562 106.767 208.191 109.556Z" stroke="#FF6000"/>
<path className='line' d="M208.91 109.863C203.794 119.296 199.234 127.964 195.064 135.908C194.76 136.488 194.458 137.064 194.158 137.636C190.344 144.903 186.856 151.549 183.56 157.612C176.446 170.698 170.24 181.041 163.606 189.023C156.98 196.995 149.935 202.603 141.144 206.225C132.344 209.85 121.761 211.5 108.038 211.5C80.716 211.5 62.9489 198.873 48.2797 179.851C40.937 170.33 34.3765 159.212 27.7881 147.275C25.5819 143.278 23.3716 139.187 21.128 135.035C16.6784 126.799 12.0978 118.321 7.15751 109.849C-0.202256 97.2287 -1.0586 85.2536 2.62604 74.3763C6.31732 63.4795 14.584 53.6345 25.5586 45.3434C47.5132 28.7573 80.1615 18.5 108.038 18.5C135.995 18.5 171.439 22.6658 194.768 36.1914C206.42 42.9465 215.001 52.0077 218.166 64.0096C221.331 76.015 219.103 91.0678 208.91 109.863Z" stroke="#FF6000"/>
<path className='line' d="M182.032 109.824C179.469 116.639 177.155 123.095 174.978 129.17L174.976 129.174C172.798 135.252 170.757 140.949 168.735 146.252C164.691 156.862 160.737 165.867 155.956 173.163C151.179 180.452 145.583 186.025 138.255 189.782C130.923 193.54 121.82 195.5 110 195.5C86.5749 195.5 73.9531 177.033 62.7509 156.882C61.3884 154.431 60.0467 151.955 58.7095 149.487C54.5724 141.853 50.4774 134.296 45.9339 127.792C39.9179 119.18 33.0564 112.322 24.1499 109.523C19.8775 108.18 17.1072 105.881 15.5895 102.919C14.0662 99.9449 13.7701 96.2352 14.5846 92.0167C16.216 83.5673 22.2732 73.2426 31.3703 63.2109C49.5615 43.1507 79.687 24.5 110 24.5C140.435 24.5 163.513 32.3607 176.439 46.8948C189.338 61.3985 192.241 82.6831 182.032 109.824Z" stroke="#FF6000"/>
<path className='line' d="M171.018 111.867C170.725 112.928 170.429 114.01 170.127 115.112C166.298 129.099 161.626 146.164 153.268 160.118C144.269 175.144 131.035 186.5 110 186.5C88.9692 186.5 72.5985 173.15 60.0745 156.821C48.7354 142.037 40.616 124.898 35.0934 113.241C34.518 112.026 33.9708 110.871 33.451 109.784C30.7906 104.222 31.5139 96.6989 34.8734 88.4543C38.2261 80.2265 44.1696 71.3706 51.793 63.2165C67.0536 46.8935 88.9307 33.5 110 33.5C131.052 33.5 148.289 45.8757 159.285 61.9078C170.29 77.9539 174.967 97.5524 171.018 111.867Z" stroke="#FF6000"/>
<path d="M74.815 117.308C71.2906 117.308 69.0933 114.759 69.0933 110.672V110.654C69.0933 106.559 71.2818 104.01 74.8062 104.01C77.6011 104.01 79.7457 105.776 80.0796 108.299L80.0709 108.343H78.1197V108.316C77.7505 106.761 76.4761 105.75 74.8062 105.75C72.5298 105.75 71.106 107.64 71.106 110.654V110.672C71.106 113.678 72.5298 115.567 74.815 115.567C76.4937 115.567 77.7505 114.671 78.1109 113.238L78.1285 113.203H80.0796V113.256C79.7105 115.69 77.6451 117.308 74.815 117.308ZM86.1357 117.185C83.332 117.185 81.6181 115.312 81.6181 112.236V112.219C81.6181 109.151 83.3407 107.271 86.1357 107.271C88.9218 107.271 90.6445 109.143 90.6445 112.219V112.236C90.6445 115.312 88.9306 117.185 86.1357 117.185ZM86.1357 115.594C87.7704 115.594 88.7021 114.346 88.7021 112.236V112.219C88.7021 110.101 87.7704 108.861 86.1357 108.861C84.4921 108.861 83.5693 110.101 83.5693 112.219V112.236C83.5693 114.354 84.4921 115.594 86.1357 115.594ZM92.5608 117V107.455H94.468V108.896H94.6087C94.9514 107.886 95.8391 107.288 97.1136 107.288C97.4212 107.288 97.7552 107.332 97.9485 107.376V109.134C97.6057 109.063 97.2805 109.02 96.9202 109.02C95.4612 109.02 94.468 109.916 94.468 111.296V117H92.5608ZM99.5485 120.182V107.455H101.456V108.958H101.596C102.15 107.912 103.196 107.288 104.532 107.288C106.94 107.288 108.487 109.213 108.487 112.219V112.236C108.487 115.26 106.958 117.158 104.532 117.158C103.222 117.158 102.106 116.517 101.596 115.488H101.456V120.182H99.5485ZM103.996 115.532C105.587 115.532 106.545 114.284 106.545 112.236V112.219C106.545 110.162 105.587 108.923 103.996 108.923C102.405 108.923 101.421 110.18 101.421 112.219V112.236C101.421 114.275 102.405 115.532 103.996 115.532ZM114.464 117.185C111.66 117.185 109.946 115.312 109.946 112.236V112.219C109.946 109.151 111.669 107.271 114.464 107.271C117.25 107.271 118.973 109.143 118.973 112.219V112.236C118.973 115.312 117.259 117.185 114.464 117.185ZM114.464 115.594C116.099 115.594 117.03 114.346 117.03 112.236V112.219C117.03 110.101 116.099 108.861 114.464 108.861C112.82 108.861 111.897 110.101 111.897 112.219V112.236C111.897 114.354 112.82 115.594 114.464 115.594ZM120.889 117V107.455H122.796V108.896H122.937C123.28 107.886 124.167 107.288 125.442 107.288C125.749 107.288 126.083 107.332 126.277 107.376V109.134C125.934 109.063 125.609 109.02 125.248 109.02C123.789 109.02 122.796 109.916 122.796 111.296V117H120.889ZM130.285 117.158C128.466 117.158 127.121 116.051 127.121 114.319V114.302C127.121 112.597 128.404 111.604 130.68 111.463L133.264 111.313V110.47C133.264 109.424 132.605 108.844 131.313 108.844C130.259 108.844 129.564 109.23 129.336 109.907L129.327 109.942H127.49L127.499 109.881C127.727 108.316 129.23 107.271 131.401 107.271C133.801 107.271 135.154 108.466 135.154 110.47V117H133.264V115.646H133.115C132.552 116.613 131.551 117.158 130.285 117.158ZM129.019 114.24C129.019 115.119 129.766 115.638 130.795 115.638C132.218 115.638 133.264 114.706 133.264 113.476V112.658L130.935 112.808C129.617 112.887 129.019 113.361 129.019 114.223V114.24ZM141.087 117.062C138.986 117.062 138.125 116.323 138.125 114.486V108.958H136.631V107.455H138.125V105.047H140.067V107.455H142.115V108.958H140.067V114.029C140.067 115.058 140.454 115.479 141.395 115.479C141.685 115.479 141.852 115.471 142.115 115.444V116.965C141.808 117.018 141.456 117.062 141.087 117.062ZM147.881 117.185C145.086 117.185 143.399 115.277 143.399 112.254V112.245C143.399 109.266 145.122 107.271 147.785 107.271C150.448 107.271 152.082 109.195 152.082 112.061V112.729H145.315C145.35 114.557 146.352 115.62 147.925 115.62C149.147 115.62 149.876 115.014 150.105 114.521L150.14 114.451L151.977 114.442L151.959 114.521C151.643 115.778 150.325 117.185 147.881 117.185ZM147.793 108.835C146.493 108.835 145.508 109.723 145.341 111.366H150.193C150.043 109.661 149.085 108.835 147.793 108.835Z" fill="black"/>
<path d="M74.815 117.308C71.2906 117.308 69.0933 114.759 69.0933 110.672V110.654C69.0933 106.559 71.2818 104.01 74.8062 104.01C77.6011 104.01 79.7457 105.776 80.0796 108.299L80.0709 108.343H78.1197V108.316C77.7505 106.761 76.4761 105.75 74.8062 105.75C72.5298 105.75 71.106 107.64 71.106 110.654V110.672C71.106 113.678 72.5298 115.567 74.815 115.567C76.4937 115.567 77.7505 114.671 78.1109 113.238L78.1285 113.203H80.0796V113.256C79.7105 115.69 77.6451 117.308 74.815 117.308ZM86.1357 117.185C83.332 117.185 81.6181 115.312 81.6181 112.236V112.219C81.6181 109.151 83.3407 107.271 86.1357 107.271C88.9218 107.271 90.6445 109.143 90.6445 112.219V112.236C90.6445 115.312 88.9306 117.185 86.1357 117.185ZM86.1357 115.594C87.7704 115.594 88.7021 114.346 88.7021 112.236V112.219C88.7021 110.101 87.7704 108.861 86.1357 108.861C84.4921 108.861 83.5693 110.101 83.5693 112.219V112.236C83.5693 114.354 84.4921 115.594 86.1357 115.594ZM92.5608 117V107.455H94.468V108.896H94.6087C94.9514 107.886 95.8391 107.288 97.1136 107.288C97.4212 107.288 97.7552 107.332 97.9485 107.376V109.134C97.6057 109.063 97.2805 109.02 96.9202 109.02C95.4612 109.02 94.468 109.916 94.468 111.296V117H92.5608ZM99.5485 120.182V107.455H101.456V108.958H101.596C102.15 107.912 103.196 107.288 104.532 107.288C106.94 107.288 108.487 109.213 108.487 112.219V112.236C108.487 115.26 106.958 117.158 104.532 117.158C103.222 117.158 102.106 116.517 101.596 115.488H101.456V120.182H99.5485ZM103.996 115.532C105.587 115.532 106.545 114.284 106.545 112.236V112.219C106.545 110.162 105.587 108.923 103.996 108.923C102.405 108.923 101.421 110.18 101.421 112.219V112.236C101.421 114.275 102.405 115.532 103.996 115.532ZM114.464 117.185C111.66 117.185 109.946 115.312 109.946 112.236V112.219C109.946 109.151 111.669 107.271 114.464 107.271C117.25 107.271 118.973 109.143 118.973 112.219V112.236C118.973 115.312 117.259 117.185 114.464 117.185ZM114.464 115.594C116.099 115.594 117.03 114.346 117.03 112.236V112.219C117.03 110.101 116.099 108.861 114.464 108.861C112.82 108.861 111.897 110.101 111.897 112.219V112.236C111.897 114.354 112.82 115.594 114.464 115.594ZM120.889 117V107.455H122.796V108.896H122.937C123.28 107.886 124.167 107.288 125.442 107.288C125.749 107.288 126.083 107.332 126.277 107.376V109.134C125.934 109.063 125.609 109.02 125.248 109.02C123.789 109.02 122.796 109.916 122.796 111.296V117H120.889ZM130.285 117.158C128.466 117.158 127.121 116.051 127.121 114.319V114.302C127.121 112.597 128.404 111.604 130.68 111.463L133.264 111.313V110.47C133.264 109.424 132.605 108.844 131.313 108.844C130.259 108.844 129.564 109.23 129.336 109.907L129.327 109.942H127.49L127.499 109.881C127.727 108.316 129.23 107.271 131.401 107.271C133.801 107.271 135.154 108.466 135.154 110.47V117H133.264V115.646H133.115C132.552 116.613 131.551 117.158 130.285 117.158ZM129.019 114.24C129.019 115.119 129.766 115.638 130.795 115.638C132.218 115.638 133.264 114.706 133.264 113.476V112.658L130.935 112.808C129.617 112.887 129.019 113.361 129.019 114.223V114.24ZM141.087 117.062C138.986 117.062 138.125 116.323 138.125 114.486V108.958H136.631V107.455H138.125V105.047H140.067V107.455H142.115V108.958H140.067V114.029C140.067 115.058 140.454 115.479 141.395 115.479C141.685 115.479 141.852 115.471 142.115 115.444V116.965C141.808 117.018 141.456 117.062 141.087 117.062ZM147.881 117.185C145.086 117.185 143.399 115.277 143.399 112.254V112.245C143.399 109.266 145.122 107.271 147.785 107.271C150.448 107.271 152.082 109.195 152.082 112.061V112.729H145.315C145.35 114.557 146.352 115.62 147.925 115.62C149.147 115.62 149.876 115.014 150.105 114.521L150.14 114.451L151.977 114.442L151.959 114.521C151.643 115.778 150.325 117.185 147.881 117.185ZM147.793 108.835C146.493 108.835 145.508 109.723 145.341 111.366H150.193C150.043 109.661 149.085 108.835 147.793 108.835Z" fill="url(#paint0_linear_42_44)"/>
<defs>
<linearGradient id="paint0_linear_42_44" x1="45.8836" y1="121" x2="155" y2="121" gradientUnits="userSpaceOnUse">
<stop stop-color="#FF6000" stop-opacity="0"/>
<stop offset="0.0788975" stop-color="#FF6000" stop-opacity="0.208333"/>
<stop offset="0.149789" stop-color="#FF6000"/>
<stop offset="0.342771" stop-color="#FF6000" stop-opacity="0.197917"/>
<stop offset="0.401847" stop-color="#FF6000" stop-opacity="0"/>
</linearGradient>
</defs>
</svg>
