<svg width="220" height="220" viewBox="-30 -30 260 260" fill="none" xmlns="http://www.w3.org/2000/svg">
<path className='line' d="M207.483 110.4C213.082 114.597 216.545 119.422 218.239 124.643C219.934 129.866 219.87 135.525 218.349 141.406C215.303 153.184 206.428 165.793 194.317 177.389C182.215 188.976 166.925 199.509 151.121 207.144C135.311 214.781 119.024 219.5 104.923 219.5C76.6788 219.5 54.6044 207.7 37.8289 188.112C21.0405 168.509 9.55312 141.096 2.55004 109.891C-4.41843 78.8394 7.01223 51.5103 27.277 31.922C47.5515 12.3243 76.6488 0.5 104.923 0.5C133.025 0.5 147.274 19.2563 160.212 42.4932C162.536 46.6662 164.819 50.9887 167.133 55.3683C171.243 63.148 175.448 71.1081 180.141 78.7309C187.489 90.6637 196.075 101.847 207.483 110.4Z" stroke="#FF6000"/>
<path className='line' d="M213.5 109.987C213.001 129.464 210.502 151.708 196.471 170.892C182.45 190.064 156.841 206.268 109.924 213.506C86.496 217.12 68.3463 214.683 54.2959 208.472C40.2476 202.262 30.2577 192.261 23.1766 180.677C9.00069 157.485 6.5 127.976 6.5 110C6.5 92.1829 17.5291 70.4259 36.0491 51.0329C54.5551 31.6546 80.4783 14.7056 110.134 6.48176C139.603 -1.6904 165.666 14.3816 184.298 37.5011C202.934 60.6246 213.996 90.6375 213.5 109.987Z" stroke="#FF6000"/>
<path className='line' d="M195.5 110.004C195.749 141.144 186.161 162.491 170.669 176.061C155.165 189.643 133.674 195.5 110 195.5C86.341 195.5 60.2098 187.9 42.379 173.424C33.4689 166.191 26.6439 157.252 23.2183 146.697C19.7941 136.147 19.7542 123.946 24.4731 110.162C33.9709 82.4183 43.5704 61.0041 56.6845 46.5231C69.7694 32.0743 86.3803 24.5 110 24.5C133.673 24.5 154.914 30.3569 170.293 43.9373C185.661 57.5085 195.251 78.8583 195.5 110.004Z" stroke="#FF6000"/>
<path className='line' d="M186.5 110C186.5 131.215 182.881 147.311 171.57 159.609C160.243 171.922 141.125 180.515 109.906 186.509C94.3414 189.497 81.8059 188.837 71.7576 185.536C61.7149 182.237 54.1262 176.29 48.4642 168.65C37.1238 153.346 33.5 131.23 33.5 110C33.5 88.9346 45.1399 71.3118 60.5739 58.1837C76.0091 45.0545 95.1814 36.4737 110.098 33.4903C124.863 30.5373 143.954 39.0264 159.406 53.6657C174.84 68.2878 186.5 88.915 186.5 110Z" stroke="#FF6000"/>
<path d="M74.815 117.308C71.2906 117.308 69.0933 114.759 69.0933 110.672V110.654C69.0933 106.559 71.2818 104.01 74.8062 104.01C77.6011 104.01 79.7457 105.776 80.0796 108.299L80.0709 108.343H78.1197V108.316C77.7505 106.761 76.4761 105.75 74.8062 105.75C72.5298 105.75 71.106 107.64 71.106 110.654V110.672C71.106 113.678 72.5298 115.567 74.815 115.567C76.4937 115.567 77.7505 114.671 78.1109 113.238L78.1285 113.203H80.0796V113.256C79.7105 115.69 77.6451 117.308 74.815 117.308ZM86.1357 117.185C83.332 117.185 81.6181 115.312 81.6181 112.236V112.219C81.6181 109.151 83.3407 107.271 86.1357 107.271C88.9218 107.271 90.6445 109.143 90.6445 112.219V112.236C90.6445 115.312 88.9306 117.185 86.1357 117.185ZM86.1357 115.594C87.7704 115.594 88.7021 114.346 88.7021 112.236V112.219C88.7021 110.101 87.7704 108.861 86.1357 108.861C84.4921 108.861 83.5693 110.101 83.5693 112.219V112.236C83.5693 114.354 84.4921 115.594 86.1357 115.594ZM92.5608 117V107.455H94.468V108.896H94.6087C94.9514 107.886 95.8391 107.288 97.1136 107.288C97.4212 107.288 97.7552 107.332 97.9485 107.376V109.134C97.6057 109.063 97.2805 109.02 96.9202 109.02C95.4612 109.02 94.468 109.916 94.468 111.296V117H92.5608ZM99.5485 120.182V107.455H101.456V108.958H101.596C102.15 107.912 103.196 107.288 104.532 107.288C106.94 107.288 108.487 109.213 108.487 112.219V112.236C108.487 115.26 106.958 117.158 104.532 117.158C103.222 117.158 102.106 116.517 101.596 115.488H101.456V120.182H99.5485ZM103.996 115.532C105.587 115.532 106.545 114.284 106.545 112.236V112.219C106.545 110.162 105.587 108.923 103.996 108.923C102.405 108.923 101.421 110.18 101.421 112.219V112.236C101.421 114.275 102.405 115.532 103.996 115.532ZM114.464 117.185C111.66 117.185 109.946 115.312 109.946 112.236V112.219C109.946 109.151 111.669 107.271 114.464 107.271C117.25 107.271 118.973 109.143 118.973 112.219V112.236C118.973 115.312 117.259 117.185 114.464 117.185ZM114.464 115.594C116.099 115.594 117.03 114.346 117.03 112.236V112.219C117.03 110.101 116.099 108.861 114.464 108.861C112.82 108.861 111.897 110.101 111.897 112.219V112.236C111.897 114.354 112.82 115.594 114.464 115.594ZM120.889 117V107.455H122.796V108.896H122.937C123.28 107.886 124.167 107.288 125.442 107.288C125.749 107.288 126.083 107.332 126.277 107.376V109.134C125.934 109.063 125.609 109.02 125.248 109.02C123.789 109.02 122.796 109.916 122.796 111.296V117H120.889ZM130.285 117.158C128.466 117.158 127.121 116.051 127.121 114.319V114.302C127.121 112.597 128.404 111.604 130.68 111.463L133.264 111.313V110.47C133.264 109.424 132.605 108.844 131.313 108.844C130.259 108.844 129.564 109.23 129.336 109.907L129.327 109.942H127.49L127.499 109.881C127.727 108.316 129.23 107.271 131.401 107.271C133.801 107.271 135.154 108.466 135.154 110.47V117H133.264V115.646H133.115C132.552 116.613 131.551 117.158 130.285 117.158ZM129.019 114.24C129.019 115.119 129.766 115.638 130.795 115.638C132.218 115.638 133.264 114.706 133.264 113.476V112.658L130.935 112.808C129.617 112.887 129.019 113.361 129.019 114.223V114.24ZM141.087 117.062C138.986 117.062 138.125 116.323 138.125 114.486V108.958H136.631V107.455H138.125V105.047H140.067V107.455H142.115V108.958H140.067V114.029C140.067 115.058 140.454 115.479 141.395 115.479C141.685 115.479 141.852 115.471 142.115 115.444V116.965C141.808 117.018 141.456 117.062 141.087 117.062ZM147.881 117.185C145.086 117.185 143.399 115.277 143.399 112.254V112.245C143.399 109.266 145.122 107.271 147.785 107.271C150.448 107.271 152.082 109.195 152.082 112.061V112.729H145.315C145.35 114.557 146.352 115.62 147.925 115.62C149.147 115.62 149.876 115.014 150.105 114.521L150.14 114.451L151.977 114.442L151.959 114.521C151.643 115.778 150.325 117.185 147.881 117.185ZM147.793 108.835C146.493 108.835 145.508 109.723 145.341 111.366H150.193C150.043 109.661 149.085 108.835 147.793 108.835Z" fill="black"/>
<path d="M74.815 117.308C71.2906 117.308 69.0933 114.759 69.0933 110.672V110.654C69.0933 106.559 71.2818 104.01 74.8062 104.01C77.6011 104.01 79.7457 105.776 80.0796 108.299L80.0709 108.343H78.1197V108.316C77.7505 106.761 76.4761 105.75 74.8062 105.75C72.5298 105.75 71.106 107.64 71.106 110.654V110.672C71.106 113.678 72.5298 115.567 74.815 115.567C76.4937 115.567 77.7505 114.671 78.1109 113.238L78.1285 113.203H80.0796V113.256C79.7105 115.69 77.6451 117.308 74.815 117.308ZM86.1357 117.185C83.332 117.185 81.6181 115.312 81.6181 112.236V112.219C81.6181 109.151 83.3407 107.271 86.1357 107.271C88.9218 107.271 90.6445 109.143 90.6445 112.219V112.236C90.6445 115.312 88.9306 117.185 86.1357 117.185ZM86.1357 115.594C87.7704 115.594 88.7021 114.346 88.7021 112.236V112.219C88.7021 110.101 87.7704 108.861 86.1357 108.861C84.4921 108.861 83.5693 110.101 83.5693 112.219V112.236C83.5693 114.354 84.4921 115.594 86.1357 115.594ZM92.5608 117V107.455H94.468V108.896H94.6087C94.9514 107.886 95.8391 107.288 97.1136 107.288C97.4212 107.288 97.7552 107.332 97.9485 107.376V109.134C97.6057 109.063 97.2805 109.02 96.9202 109.02C95.4612 109.02 94.468 109.916 94.468 111.296V117H92.5608ZM99.5485 120.182V107.455H101.456V108.958H101.596C102.15 107.912 103.196 107.288 104.532 107.288C106.94 107.288 108.487 109.213 108.487 112.219V112.236C108.487 115.26 106.958 117.158 104.532 117.158C103.222 117.158 102.106 116.517 101.596 115.488H101.456V120.182H99.5485ZM103.996 115.532C105.587 115.532 106.545 114.284 106.545 112.236V112.219C106.545 110.162 105.587 108.923 103.996 108.923C102.405 108.923 101.421 110.18 101.421 112.219V112.236C101.421 114.275 102.405 115.532 103.996 115.532ZM114.464 117.185C111.66 117.185 109.946 115.312 109.946 112.236V112.219C109.946 109.151 111.669 107.271 114.464 107.271C117.25 107.271 118.973 109.143 118.973 112.219V112.236C118.973 115.312 117.259 117.185 114.464 117.185ZM114.464 115.594C116.099 115.594 117.03 114.346 117.03 112.236V112.219C117.03 110.101 116.099 108.861 114.464 108.861C112.82 108.861 111.897 110.101 111.897 112.219V112.236C111.897 114.354 112.82 115.594 114.464 115.594ZM120.889 117V107.455H122.796V108.896H122.937C123.28 107.886 124.167 107.288 125.442 107.288C125.749 107.288 126.083 107.332 126.277 107.376V109.134C125.934 109.063 125.609 109.02 125.248 109.02C123.789 109.02 122.796 109.916 122.796 111.296V117H120.889ZM130.285 117.158C128.466 117.158 127.121 116.051 127.121 114.319V114.302C127.121 112.597 128.404 111.604 130.68 111.463L133.264 111.313V110.47C133.264 109.424 132.605 108.844 131.313 108.844C130.259 108.844 129.564 109.23 129.336 109.907L129.327 109.942H127.49L127.499 109.881C127.727 108.316 129.23 107.271 131.401 107.271C133.801 107.271 135.154 108.466 135.154 110.47V117H133.264V115.646H133.115C132.552 116.613 131.551 117.158 130.285 117.158ZM129.019 114.24C129.019 115.119 129.766 115.638 130.795 115.638C132.218 115.638 133.264 114.706 133.264 113.476V112.658L130.935 112.808C129.617 112.887 129.019 113.361 129.019 114.223V114.24ZM141.087 117.062C138.986 117.062 138.125 116.323 138.125 114.486V108.958H136.631V107.455H138.125V105.047H140.067V107.455H142.115V108.958H140.067V114.029C140.067 115.058 140.454 115.479 141.395 115.479C141.685 115.479 141.852 115.471 142.115 115.444V116.965C141.808 117.018 141.456 117.062 141.087 117.062ZM147.881 117.185C145.086 117.185 143.399 115.277 143.399 112.254V112.245C143.399 109.266 145.122 107.271 147.785 107.271C150.448 107.271 152.082 109.195 152.082 112.061V112.729H145.315C145.35 114.557 146.352 115.62 147.925 115.62C149.147 115.62 149.876 115.014 150.105 114.521L150.14 114.451L151.977 114.442L151.959 114.521C151.643 115.778 150.325 117.185 147.881 117.185ZM147.793 108.835C146.493 108.835 145.508 109.723 145.341 111.366H150.193C150.043 109.661 149.085 108.835 147.793 108.835Z" fill="url(#paint0_linear_42_68)"/>
<defs>
<linearGradient id="paint0_linear_42_68" x1="72" y1="121" x2="162.5" y2="121" gradientUnits="userSpaceOnUse">
<stop offset="0.515113" stop-color="#FF6000" stop-opacity="0"/>
<stop offset="0.624" stop-color="#FF6000" stop-opacity="0.208333"/>
<stop offset="0.809108" stop-color="#FF6000"/>
<stop offset="0.955017" stop-color="#FF6000" stop-opacity="0.197917"/>
<stop offset="1" stop-color="#FF6000" stop-opacity="0"/>
</linearGradient>
</defs>
</svg>
