<svg width="220" height="220" viewBox="-30 -30 260 260" fill="none" xmlns="http://www.w3.org/2000/svg">
<path className='line' d="M212.617 111.246C220.194 124.623 221.109 138.108 217.341 150.827C213.569 163.56 205.096 175.549 193.864 185.882C171.39 206.557 137.982 220.5 109.535 220.5C81.0849 220.5 62.2916 211.431 47.1319 193.242C31.9321 175.005 20.3716 147.588 6.4854 110.823C-0.422952 92.5331 -0.981629 76.5815 2.92138 62.9423C6.82523 49.3001 15.2051 37.9285 26.2448 28.8232C48.3375 10.6018 81.0353 1.5 109.535 1.5C137.909 1.5 156.007 15.3745 170.858 36.0418C178.29 46.3854 184.9 58.4204 191.571 71.2618C193.319 74.6271 195.072 78.0482 196.844 81.5081C201.83 91.2403 206.972 101.279 212.617 111.246Z" stroke="#FF6000"/>
<path className='line' d="M213.5 110.331C213.5 124.515 211.817 135.954 208.111 145.647C204.408 155.334 198.677 163.302 190.543 170.531C174.243 185.018 148.332 196.514 109.805 212.866C90.6312 221.004 74.6236 222.181 61.3984 218.538C48.1733 214.895 37.6679 206.415 29.5306 195.123C13.2413 172.518 6.5 138.719 6.5 110.331C6.5 81.9875 16.7209 48.4309 34.7651 25.9319C43.783 14.6875 54.734 6.23052 67.3126 2.54071C79.8806 -1.14596 94.1252 -0.0891607 109.775 7.78326C115.632 10.7291 121.294 13.5243 126.749 16.2167C150.673 28.0259 170.595 37.8598 185.31 49.7757C194.331 57.0801 201.372 65.1515 206.16 74.9179C210.949 84.6838 213.5 96.1728 213.5 110.331Z" stroke="#FF6000"/>
<path className='line' d="M195.614 111.317C203.002 120.306 204.319 130.068 201.419 139.692C198.51 149.343 191.348 158.878 181.731 167.312C162.492 184.184 133.606 196.5 110 196.5C108.72 196.5 107.45 196.502 106.19 196.504C95.7431 196.518 85.9796 196.532 77.0741 195.511C67.1016 194.368 58.2545 191.93 50.7853 186.776C35.8668 176.481 26.2484 155.2 24.4996 110.98C22.7516 66.7799 32.378 45.5193 48.1496 35.2312C56.0569 30.073 65.5626 27.6335 76.0868 26.4892C85.486 25.4672 95.657 25.4815 106.189 25.4964C107.454 25.4982 108.725 25.4999 110 25.4999C133.517 25.4999 147.385 37.7278 159.151 54.5984C163.864 61.356 168.227 68.8395 172.736 76.5736C173.864 78.5085 175.001 80.459 176.155 82.4177C181.915 92.1952 188.088 102.161 195.614 111.317Z" stroke="#FF6000"/>
<path className='line' d="M186.5 111C186.5 132.219 183.38 145.55 172.336 156.467C161.24 167.435 142.1 176.023 109.832 187.529C93.7707 193.256 81.0046 193.953 70.8905 191.17C60.7846 188.389 53.2683 182.118 47.7287 173.795C36.6275 157.116 33.5 132.244 33.5 111C33.5 89.7922 38.4908 65.5385 50.5279 49.1613C56.5393 40.9824 64.298 34.7804 74.0641 31.8819C83.8309 28.9832 95.6573 29.373 109.831 34.4705C138.339 44.7236 157.493 53.3135 169.533 64.605C181.528 75.8545 186.5 89.8285 186.5 111Z" stroke="#FF6000"/>
<path d="M74.815 118.308C71.2906 118.308 69.0933 115.759 69.0933 111.672V111.654C69.0933 107.559 71.2818 105.01 74.8062 105.01C77.6011 105.01 79.7457 106.776 80.0796 109.299L80.0709 109.343H78.1197V109.316C77.7505 107.761 76.4761 106.75 74.8062 106.75C72.5298 106.75 71.106 108.64 71.106 111.654V111.672C71.106 114.678 72.5298 116.567 74.815 116.567C76.4937 116.567 77.7505 115.671 78.1109 114.238L78.1285 114.203H80.0796V114.256C79.7105 116.69 77.6451 118.308 74.815 118.308ZM86.1357 118.185C83.332 118.185 81.6181 116.312 81.6181 113.236V113.219C81.6181 110.151 83.3407 108.271 86.1357 108.271C88.9218 108.271 90.6445 110.143 90.6445 113.219V113.236C90.6445 116.312 88.9306 118.185 86.1357 118.185ZM86.1357 116.594C87.7704 116.594 88.7021 115.346 88.7021 113.236V113.219C88.7021 111.101 87.7704 109.861 86.1357 109.861C84.4921 109.861 83.5693 111.101 83.5693 113.219V113.236C83.5693 115.354 84.4921 116.594 86.1357 116.594ZM92.5608 118V108.455H94.468V109.896H94.6087C94.9514 108.886 95.8391 108.288 97.1136 108.288C97.4212 108.288 97.7552 108.332 97.9485 108.376V110.134C97.6057 110.063 97.2805 110.02 96.9202 110.02C95.4612 110.02 94.468 110.916 94.468 112.296V118H92.5608ZM99.5485 121.182V108.455H101.456V109.958H101.596C102.15 108.912 103.196 108.288 104.532 108.288C106.94 108.288 108.487 110.213 108.487 113.219V113.236C108.487 116.26 106.958 118.158 104.532 118.158C103.222 118.158 102.106 117.517 101.596 116.488H101.456V121.182H99.5485ZM103.996 116.532C105.587 116.532 106.545 115.284 106.545 113.236V113.219C106.545 111.162 105.587 109.923 103.996 109.923C102.405 109.923 101.421 111.18 101.421 113.219V113.236C101.421 115.275 102.405 116.532 103.996 116.532ZM114.464 118.185C111.66 118.185 109.946 116.312 109.946 113.236V113.219C109.946 110.151 111.669 108.271 114.464 108.271C117.25 108.271 118.973 110.143 118.973 113.219V113.236C118.973 116.312 117.259 118.185 114.464 118.185ZM114.464 116.594C116.099 116.594 117.03 115.346 117.03 113.236V113.219C117.03 111.101 116.099 109.861 114.464 109.861C112.82 109.861 111.897 111.101 111.897 113.219V113.236C111.897 115.354 112.82 116.594 114.464 116.594ZM120.889 118V108.455H122.796V109.896H122.937C123.28 108.886 124.167 108.288 125.442 108.288C125.749 108.288 126.083 108.332 126.277 108.376V110.134C125.934 110.063 125.609 110.02 125.248 110.02C123.789 110.02 122.796 110.916 122.796 112.296V118H120.889ZM130.285 118.158C128.466 118.158 127.121 117.051 127.121 115.319V115.302C127.121 113.597 128.404 112.604 130.68 112.463L133.264 112.313V111.47C133.264 110.424 132.605 109.844 131.313 109.844C130.259 109.844 129.564 110.23 129.336 110.907L129.327 110.942H127.49L127.499 110.881C127.727 109.316 129.23 108.271 131.401 108.271C133.801 108.271 135.154 109.466 135.154 111.47V118H133.264V116.646H133.115C132.552 117.613 131.551 118.158 130.285 118.158ZM129.019 115.24C129.019 116.119 129.766 116.638 130.795 116.638C132.218 116.638 133.264 115.706 133.264 114.476V113.658L130.935 113.808C129.617 113.887 129.019 114.361 129.019 115.223V115.24ZM141.087 118.062C138.986 118.062 138.125 117.323 138.125 115.486V109.958H136.631V108.455H138.125V106.047H140.067V108.455H142.115V109.958H140.067V115.029C140.067 116.058 140.454 116.479 141.395 116.479C141.685 116.479 141.852 116.471 142.115 116.444V117.965C141.808 118.018 141.456 118.062 141.087 118.062ZM147.881 118.185C145.086 118.185 143.399 116.277 143.399 113.254V113.245C143.399 110.266 145.122 108.271 147.785 108.271C150.448 108.271 152.082 110.195 152.082 113.061V113.729H145.315C145.35 115.557 146.352 116.62 147.925 116.62C149.147 116.62 149.876 116.014 150.105 115.521L150.14 115.451L151.977 115.442L151.959 115.521C151.643 116.778 150.325 118.185 147.881 118.185ZM147.793 109.835C146.493 109.835 145.508 110.723 145.341 112.366H150.193C150.043 110.661 149.085 109.835 147.793 109.835Z" fill="black"/>
<path d="M74.815 118.308C71.2906 118.308 69.0933 115.759 69.0933 111.672V111.654C69.0933 107.559 71.2818 105.01 74.8062 105.01C77.6011 105.01 79.7457 106.776 80.0796 109.299L80.0709 109.343H78.1197V109.316C77.7505 107.761 76.4761 106.75 74.8062 106.75C72.5298 106.75 71.106 108.64 71.106 111.654V111.672C71.106 114.678 72.5298 116.567 74.815 116.567C76.4937 116.567 77.7505 115.671 78.1109 114.238L78.1285 114.203H80.0796V114.256C79.7105 116.69 77.6451 118.308 74.815 118.308ZM86.1357 118.185C83.332 118.185 81.6181 116.312 81.6181 113.236V113.219C81.6181 110.151 83.3407 108.271 86.1357 108.271C88.9218 108.271 90.6445 110.143 90.6445 113.219V113.236C90.6445 116.312 88.9306 118.185 86.1357 118.185ZM86.1357 116.594C87.7704 116.594 88.7021 115.346 88.7021 113.236V113.219C88.7021 111.101 87.7704 109.861 86.1357 109.861C84.4921 109.861 83.5693 111.101 83.5693 113.219V113.236C83.5693 115.354 84.4921 116.594 86.1357 116.594ZM92.5608 118V108.455H94.468V109.896H94.6087C94.9514 108.886 95.8391 108.288 97.1136 108.288C97.4212 108.288 97.7552 108.332 97.9485 108.376V110.134C97.6057 110.063 97.2805 110.02 96.9202 110.02C95.4612 110.02 94.468 110.916 94.468 112.296V118H92.5608ZM99.5485 121.182V108.455H101.456V109.958H101.596C102.15 108.912 103.196 108.288 104.532 108.288C106.94 108.288 108.487 110.213 108.487 113.219V113.236C108.487 116.26 106.958 118.158 104.532 118.158C103.222 118.158 102.106 117.517 101.596 116.488H101.456V121.182H99.5485ZM103.996 116.532C105.587 116.532 106.545 115.284 106.545 113.236V113.219C106.545 111.162 105.587 109.923 103.996 109.923C102.405 109.923 101.421 111.18 101.421 113.219V113.236C101.421 115.275 102.405 116.532 103.996 116.532ZM114.464 118.185C111.66 118.185 109.946 116.312 109.946 113.236V113.219C109.946 110.151 111.669 108.271 114.464 108.271C117.25 108.271 118.973 110.143 118.973 113.219V113.236C118.973 116.312 117.259 118.185 114.464 118.185ZM114.464 116.594C116.099 116.594 117.03 115.346 117.03 113.236V113.219C117.03 111.101 116.099 109.861 114.464 109.861C112.82 109.861 111.897 111.101 111.897 113.219V113.236C111.897 115.354 112.82 116.594 114.464 116.594ZM120.889 118V108.455H122.796V109.896H122.937C123.28 108.886 124.167 108.288 125.442 108.288C125.749 108.288 126.083 108.332 126.277 108.376V110.134C125.934 110.063 125.609 110.02 125.248 110.02C123.789 110.02 122.796 110.916 122.796 112.296V118H120.889ZM130.285 118.158C128.466 118.158 127.121 117.051 127.121 115.319V115.302C127.121 113.597 128.404 112.604 130.68 112.463L133.264 112.313V111.47C133.264 110.424 132.605 109.844 131.313 109.844C130.259 109.844 129.564 110.23 129.336 110.907L129.327 110.942H127.49L127.499 110.881C127.727 109.316 129.23 108.271 131.401 108.271C133.801 108.271 135.154 109.466 135.154 111.47V118H133.264V116.646H133.115C132.552 117.613 131.551 118.158 130.285 118.158ZM129.019 115.24C129.019 116.119 129.766 116.638 130.795 116.638C132.218 116.638 133.264 115.706 133.264 114.476V113.658L130.935 113.808C129.617 113.887 129.019 114.361 129.019 115.223V115.24ZM141.087 118.062C138.986 118.062 138.125 117.323 138.125 115.486V109.958H136.631V108.455H138.125V106.047H140.067V108.455H142.115V109.958H140.067V115.029C140.067 116.058 140.454 116.479 141.395 116.479C141.685 116.479 141.852 116.471 142.115 116.444V117.965C141.808 118.018 141.456 118.062 141.087 118.062ZM147.881 118.185C145.086 118.185 143.399 116.277 143.399 113.254V113.245C143.399 110.266 145.122 108.271 147.785 108.271C150.448 108.271 152.082 110.195 152.082 113.061V113.729H145.315C145.35 115.557 146.352 116.62 147.925 116.62C149.147 116.62 149.876 116.014 150.105 115.521L150.14 115.451L151.977 115.442L151.959 115.521C151.643 116.778 150.325 118.185 147.881 118.185ZM147.793 109.835C146.493 109.835 145.508 110.723 145.341 112.366H150.193C150.043 110.661 149.085 109.835 147.793 109.835Z" fill="url(#paint0_linear_42_52)"/>
<defs>
<linearGradient id="paint0_linear_42_52" x1="69" y1="122" x2="155" y2="122" gradientUnits="userSpaceOnUse">
<stop stop-color="#FF6000" stop-opacity="0"/>
<stop offset="0.154025" stop-color="#FF6000" stop-opacity="0.208333"/>
<stop offset="0.337031" stop-color="#FF6000"/>
<stop offset="0.50631" stop-color="#FF6000" stop-opacity="0.197917"/>
<stop offset="0.609251" stop-color="#FF6000" stop-opacity="0"/>
</linearGradient>
</defs>
</svg>
