<svg width="220" height="220" viewBox="-30 -30 260 260" fill="none" xmlns="http://www.w3.org/2000/svg">
<path className='line' d="M210.193 109.757C204.733 119.571 199.764 129.246 194.995 138.531C192.776 142.851 190.6 147.087 188.439 151.213C181.626 164.218 174.949 176.142 167.469 186.265C159.991 196.386 151.722 204.69 141.732 210.466C131.748 216.238 120.019 219.5 105.597 219.5C76.5797 219.5 48.8135 217.488 29.1199 202.849C9.475 188.246 -2.27341 160.958 1.0636 110.033C4.40291 59.0725 16.1444 31.753 34.1496 17.1382C52.1679 2.51271 76.5813 0.5 105.597 0.5C134.474 0.5 168.613 13.5771 191.531 33.8123C202.986 43.9262 211.609 55.8033 215.391 68.6954C219.168 81.5735 218.125 95.4978 210.193 109.757Z" stroke="#FF6000"/>
<path className='line' d="M213.5 108.527C213.5 136.636 198.685 171.322 178.313 194.373C168.129 205.896 156.596 214.468 144.884 217.879C133.2 221.283 121.311 219.563 110.319 210.451C99.1615 201.202 87.0701 193.711 75.2286 186.801C72.4215 185.163 69.6297 183.559 66.868 181.971C57.9672 176.856 49.3781 171.919 41.5937 166.623C31.3999 159.689 22.6304 152.167 16.4075 142.884C10.1909 133.611 6.5 122.557 6.5 108.527C6.5 80.4393 20.2977 54.0026 40.1575 35.0706C60.0217 16.1344 85.8881 4.76417 109.96 6.71707C134.092 8.67491 159.99 20.0765 179.852 38.0307C199.711 55.9816 213.5 80.4484 213.5 108.527Z" stroke="#FF6000"/>
<path className='line' d="M195.523 109.851C187.279 136.332 177.679 157.747 164.253 172.539C150.851 187.306 133.612 195.5 110 195.5C86.431 195.5 70.0638 185.217 57.0755 169.371C44.1359 153.584 34.5714 132.302 24.6237 110.168L24.456 109.795C14.5808 87.8228 24.0463 66.5457 42.0195 50.6874C59.9953 34.8268 86.379 24.5 110 24.5C133.648 24.5 159.153 32.7188 176.676 47.5071C194.175 62.2754 203.703 83.5752 195.523 109.851Z" stroke="#FF6000"/>
<path className='line' d="M186.5 110C186.5 120.525 183.566 127.497 178.747 132.816C173.903 138.161 167.125 141.874 159.337 145.813C158.431 146.272 157.512 146.733 156.582 147.199C141.542 154.744 123.542 163.774 109.573 186.74C105.915 192.753 102.003 196.688 97.9789 198.923C93.9632 201.154 89.8072 201.709 85.6161 200.919C77.1983 199.33 68.5916 192.298 60.8321 182.328C53.0872 172.376 46.2504 159.579 41.3505 146.615C36.4491 133.648 33.5 120.551 33.5 110C33.5 99.446 36.3257 86.3155 41.0713 73.3089C45.8156 60.3056 52.4654 47.4628 60.0849 37.4812C67.7186 27.4812 76.2617 20.4362 84.7701 18.871C89.0076 18.0915 93.2521 18.6673 97.408 20.935C101.572 23.2073 105.672 27.1926 109.579 33.2704C124.418 56.3519 142.363 65.4167 157.157 72.8895C158.148 73.3899 159.125 73.8832 160.085 74.3731C167.748 78.281 174.337 81.9461 179.024 87.2498C183.688 92.5279 186.5 99.4695 186.5 110Z" stroke="#FF6000"/>
<path d="M74.815 117.308C71.2906 117.308 69.0933 114.759 69.0933 110.672V110.654C69.0933 106.559 71.2818 104.01 74.8062 104.01C77.6011 104.01 79.7457 105.776 80.0796 108.299L80.0709 108.343H78.1197V108.316C77.7505 106.761 76.4761 105.75 74.8062 105.75C72.5298 105.75 71.106 107.64 71.106 110.654V110.672C71.106 113.678 72.5298 115.567 74.815 115.567C76.4937 115.567 77.7505 114.671 78.1109 113.238L78.1285 113.203H80.0796V113.256C79.7105 115.69 77.6451 117.308 74.815 117.308ZM86.1357 117.185C83.332 117.185 81.6181 115.312 81.6181 112.236V112.219C81.6181 109.151 83.3407 107.271 86.1357 107.271C88.9218 107.271 90.6445 109.143 90.6445 112.219V112.236C90.6445 115.312 88.9306 117.185 86.1357 117.185ZM86.1357 115.594C87.7704 115.594 88.7021 114.346 88.7021 112.236V112.219C88.7021 110.101 87.7704 108.861 86.1357 108.861C84.4921 108.861 83.5693 110.101 83.5693 112.219V112.236C83.5693 114.354 84.4921 115.594 86.1357 115.594ZM92.5608 117V107.455H94.468V108.896H94.6087C94.9514 107.886 95.8391 107.288 97.1136 107.288C97.4212 107.288 97.7552 107.332 97.9485 107.376V109.134C97.6057 109.063 97.2805 109.02 96.9202 109.02C95.4612 109.02 94.468 109.916 94.468 111.296V117H92.5608ZM99.5485 120.182V107.455H101.456V108.958H101.596C102.15 107.912 103.196 107.288 104.532 107.288C106.94 107.288 108.487 109.213 108.487 112.219V112.236C108.487 115.26 106.958 117.158 104.532 117.158C103.222 117.158 102.106 116.517 101.596 115.488H101.456V120.182H99.5485ZM103.996 115.532C105.587 115.532 106.545 114.284 106.545 112.236V112.219C106.545 110.162 105.587 108.923 103.996 108.923C102.405 108.923 101.421 110.18 101.421 112.219V112.236C101.421 114.275 102.405 115.532 103.996 115.532ZM114.464 117.185C111.66 117.185 109.946 115.312 109.946 112.236V112.219C109.946 109.151 111.669 107.271 114.464 107.271C117.25 107.271 118.973 109.143 118.973 112.219V112.236C118.973 115.312 117.259 117.185 114.464 117.185ZM114.464 115.594C116.099 115.594 117.03 114.346 117.03 112.236V112.219C117.03 110.101 116.099 108.861 114.464 108.861C112.82 108.861 111.897 110.101 111.897 112.219V112.236C111.897 114.354 112.82 115.594 114.464 115.594ZM120.889 117V107.455H122.796V108.896H122.937C123.28 107.886 124.167 107.288 125.442 107.288C125.749 107.288 126.083 107.332 126.277 107.376V109.134C125.934 109.063 125.609 109.02 125.248 109.02C123.789 109.02 122.796 109.916 122.796 111.296V117H120.889ZM130.285 117.158C128.466 117.158 127.121 116.051 127.121 114.319V114.302C127.121 112.597 128.404 111.604 130.68 111.463L133.264 111.313V110.47C133.264 109.424 132.605 108.844 131.313 108.844C130.259 108.844 129.564 109.23 129.336 109.907L129.327 109.942H127.49L127.499 109.881C127.727 108.316 129.23 107.271 131.401 107.271C133.801 107.271 135.154 108.466 135.154 110.47V117H133.264V115.646H133.115C132.552 116.613 131.551 117.158 130.285 117.158ZM129.019 114.24C129.019 115.119 129.766 115.638 130.795 115.638C132.218 115.638 133.264 114.706 133.264 113.476V112.658L130.935 112.808C129.617 112.887 129.019 113.361 129.019 114.223V114.24ZM141.087 117.062C138.986 117.062 138.125 116.323 138.125 114.486V108.958H136.631V107.455H138.125V105.047H140.067V107.455H142.115V108.958H140.067V114.029C140.067 115.058 140.454 115.479 141.395 115.479C141.685 115.479 141.852 115.471 142.115 115.444V116.965C141.808 117.018 141.456 117.062 141.087 117.062ZM147.881 117.185C145.086 117.185 143.399 115.277 143.399 112.254V112.245C143.399 109.266 145.122 107.271 147.785 107.271C150.448 107.271 152.082 109.195 152.082 112.061V112.729H145.315C145.35 114.557 146.352 115.62 147.925 115.62C149.147 115.62 149.876 115.014 150.105 114.521L150.14 114.451L151.977 114.442L151.959 114.521C151.643 115.778 150.325 117.185 147.881 117.185ZM147.793 108.835C146.493 108.835 145.508 109.723 145.341 111.366H150.193C150.043 109.661 149.085 108.835 147.793 108.835Z" fill="black"/>
<path d="M74.815 117.308C71.2906 117.308 69.0933 114.759 69.0933 110.672V110.654C69.0933 106.559 71.2818 104.01 74.8062 104.01C77.6011 104.01 79.7457 105.776 80.0796 108.299L80.0709 108.343H78.1197V108.316C77.7505 106.761 76.4761 105.75 74.8062 105.75C72.5298 105.75 71.106 107.64 71.106 110.654V110.672C71.106 113.678 72.5298 115.567 74.815 115.567C76.4937 115.567 77.7505 114.671 78.1109 113.238L78.1285 113.203H80.0796V113.256C79.7105 115.69 77.6451 117.308 74.815 117.308ZM86.1357 117.185C83.332 117.185 81.6181 115.312 81.6181 112.236V112.219C81.6181 109.151 83.3407 107.271 86.1357 107.271C88.9218 107.271 90.6445 109.143 90.6445 112.219V112.236C90.6445 115.312 88.9306 117.185 86.1357 117.185ZM86.1357 115.594C87.7704 115.594 88.7021 114.346 88.7021 112.236V112.219C88.7021 110.101 87.7704 108.861 86.1357 108.861C84.4921 108.861 83.5693 110.101 83.5693 112.219V112.236C83.5693 114.354 84.4921 115.594 86.1357 115.594ZM92.5608 117V107.455H94.468V108.896H94.6087C94.9514 107.886 95.8391 107.288 97.1136 107.288C97.4212 107.288 97.7552 107.332 97.9485 107.376V109.134C97.6057 109.063 97.2805 109.02 96.9202 109.02C95.4612 109.02 94.468 109.916 94.468 111.296V117H92.5608ZM99.5485 120.182V107.455H101.456V108.958H101.596C102.15 107.912 103.196 107.288 104.532 107.288C106.94 107.288 108.487 109.213 108.487 112.219V112.236C108.487 115.26 106.958 117.158 104.532 117.158C103.222 117.158 102.106 116.517 101.596 115.488H101.456V120.182H99.5485ZM103.996 115.532C105.587 115.532 106.545 114.284 106.545 112.236V112.219C106.545 110.162 105.587 108.923 103.996 108.923C102.405 108.923 101.421 110.18 101.421 112.219V112.236C101.421 114.275 102.405 115.532 103.996 115.532ZM114.464 117.185C111.66 117.185 109.946 115.312 109.946 112.236V112.219C109.946 109.151 111.669 107.271 114.464 107.271C117.25 107.271 118.973 109.143 118.973 112.219V112.236C118.973 115.312 117.259 117.185 114.464 117.185ZM114.464 115.594C116.099 115.594 117.03 114.346 117.03 112.236V112.219C117.03 110.101 116.099 108.861 114.464 108.861C112.82 108.861 111.897 110.101 111.897 112.219V112.236C111.897 114.354 112.82 115.594 114.464 115.594ZM120.889 117V107.455H122.796V108.896H122.937C123.28 107.886 124.167 107.288 125.442 107.288C125.749 107.288 126.083 107.332 126.277 107.376V109.134C125.934 109.063 125.609 109.02 125.248 109.02C123.789 109.02 122.796 109.916 122.796 111.296V117H120.889ZM130.285 117.158C128.466 117.158 127.121 116.051 127.121 114.319V114.302C127.121 112.597 128.404 111.604 130.68 111.463L133.264 111.313V110.47C133.264 109.424 132.605 108.844 131.313 108.844C130.259 108.844 129.564 109.23 129.336 109.907L129.327 109.942H127.49L127.499 109.881C127.727 108.316 129.23 107.271 131.401 107.271C133.801 107.271 135.154 108.466 135.154 110.47V117H133.264V115.646H133.115C132.552 116.613 131.551 117.158 130.285 117.158ZM129.019 114.24C129.019 115.119 129.766 115.638 130.795 115.638C132.218 115.638 133.264 114.706 133.264 113.476V112.658L130.935 112.808C129.617 112.887 129.019 113.361 129.019 114.223V114.24ZM141.087 117.062C138.986 117.062 138.125 116.323 138.125 114.486V108.958H136.631V107.455H138.125V105.047H140.067V107.455H142.115V108.958H140.067V114.029C140.067 115.058 140.454 115.479 141.395 115.479C141.685 115.479 141.852 115.471 142.115 115.444V116.965C141.808 117.018 141.456 117.062 141.087 117.062ZM147.881 117.185C145.086 117.185 143.399 115.277 143.399 112.254V112.245C143.399 109.266 145.122 107.271 147.785 107.271C150.448 107.271 152.082 109.195 152.082 112.061V112.729H145.315C145.35 114.557 146.352 115.62 147.925 115.62C149.147 115.62 149.876 115.014 150.105 114.521L150.14 114.451L151.977 114.442L151.959 114.521C151.643 115.778 150.325 117.185 147.881 117.185ZM147.793 108.835C146.493 108.835 145.508 109.723 145.341 111.366H150.193C150.043 109.661 149.085 108.835 147.793 108.835Z" fill="url(#paint0_linear_42_60)"/>
<defs>
<linearGradient id="paint0_linear_42_60" x1="70" y1="121" x2="155" y2="121" gradientUnits="userSpaceOnUse">
<stop offset="0.360091" stop-color="#FF6000" stop-opacity="0"/>
<stop offset="0.504112" stop-color="#FF6000" stop-opacity="0.208333"/>
<stop offset="0.643632" stop-color="#FF6000"/>
<stop offset="0.810157" stop-color="#FF6000" stop-opacity="0.197917"/>
<stop offset="0.958678" stop-color="#FF6000" stop-opacity="0"/>
</linearGradient>
</defs>
</svg>
