<svg width="24" height="25" viewBox="0 0 24 25" fill="none" xmlns="http://www.w3.org/2000/svg">
<path fill-rule="evenodd" clip-rule="evenodd" d="M16.3027 3.24976H7.65069C4.63869 3.24976 2.74969 5.38376 2.74969 8.40376V16.5498C2.74969 19.5698 4.63069 21.7038 7.65069 21.7038H16.2977C19.3227 21.7038 21.2027 19.5698 21.2027 16.5498V8.40376C21.2067 5.38376 19.3257 3.24976 16.3027 3.24976Z" stroke="#75777E" stroke-width="1.5" stroke-linecap="round" stroke-linejoin="round"/>
<path opacity="0.4" fill-rule="evenodd" clip-rule="evenodd" d="M10.7031 9.28496C10.7031 10.305 9.87709 11.131 8.85709 11.131C7.83809 11.131 7.01109 10.305 7.01109 9.28496C7.01109 8.26496 7.83809 7.43896 8.85709 7.43896C9.87609 7.43996 10.7021 8.26596 10.7031 9.28496Z" stroke="#75777E" stroke-width="1.5" stroke-linecap="round" stroke-linejoin="round"/>
<path opacity="0.4" d="M21.207 15.4509C20.284 14.5009 18.509 12.5819 16.579 12.5819C14.648 12.5819 13.535 16.8149 11.678 16.8149C9.821 16.8149 8.134 14.9009 6.646 16.1279C5.158 17.3539 3.75 19.8609 3.75 19.8609" stroke="#75777E" stroke-width="1.5" stroke-linecap="round" stroke-linejoin="round"/>
</svg>
