<svg width="220" height="220" viewBox="-30 -30 260 260" fill="none" xmlns="http://www.w3.org/2000/svg">
<path className='line' d="M209.805 114.775C197.922 143.874 186.245 167.05 170.366 182.956C154.513 198.836 134.44 207.5 105.675 207.5C76.8006 207.5 51.3887 204.512 32.8965 191.489C14.4427 178.493 2.76848 155.415 1.58248 114.949C0.397027 74.5015 12.071 48.4273 31.1468 32.4496C50.2431 16.4547 76.8479 10.5 105.675 10.5C134.44 10.5 166.414 22.1477 188.22 41.0322C210.014 59.9059 221.585 85.9312 209.805 114.775Z" stroke="#C6C6C6"/>
<path className='line' d="M214.477 111.985C213.977 160.232 202.331 185.532 183.796 198.819C165.219 212.137 139.589 213.5 110.797 213.5C82.1953 213.5 62.9206 202.056 47.4676 183.64C32.8917 166.268 21.7297 142.713 9.38863 116.67C8.61998 115.048 7.84676 113.416 7.06785 111.775C-6.10502 84.0313 1.46486 48.9288 21.5203 25.6319C31.5405 13.9922 44.6598 5.32252 59.831 1.99266C74.9965 -1.33596 92.2496 0.662847 110.561 10.421C129.01 20.252 144.823 25.5049 158.138 29.3647C161.108 30.2257 163.949 31.0163 166.664 31.772C176.147 34.411 184.096 36.6229 190.648 39.9139C199.023 44.1201 205.083 50.0777 209.005 60.9778C212.941 71.9174 214.727 87.8433 214.477 111.985Z" stroke="#C6C6C6"/>
<path className='line' d="M196.512 110.108C203.496 141.788 199.342 163.063 184.972 176.447C170.559 189.87 145.732 195.5 111 195.5C93.6655 195.5 82.1672 192.973 74.0368 188.522C65.922 184.08 61.1075 177.691 57.1974 169.84C55.2396 165.908 53.5124 161.619 51.7095 157.023C51.4718 156.418 51.2327 155.806 50.9917 155.19C49.407 151.138 47.7364 146.866 45.7857 142.432C41.2878 132.205 35.2948 121.096 25.3775 109.672C15.5651 98.3693 11.7301 87.4336 12.4985 77.4054C13.2673 67.3732 18.6501 58.1569 27.4576 50.3108C45.0863 34.6064 76.326 24.5 111 24.5C145.726 24.5 163.516 30.1289 174.425 43.5035C179.895 50.2097 183.669 58.9019 186.95 69.9162C189.789 79.4441 192.249 90.6709 195.128 103.808C195.578 105.861 196.038 107.961 196.512 110.108Z" stroke="#C6C6C6"/>
<path className='line' d="M187.607 110.309C195.777 120.708 197.691 130.613 195.386 139.626C193.075 148.666 186.497 156.892 177.516 163.855C159.548 177.784 132.157 186.5 111 186.5C100.499 186.5 93.1818 183.02 87.4212 177.491C81.6365 171.939 77.4048 164.308 73.1227 155.959C72.5515 154.846 71.9797 153.72 71.4034 152.585C63.3631 136.753 54.4457 119.193 34.2152 109.549C23.5883 104.482 18.7724 97.2505 18.4763 89.3017C18.1786 81.3093 22.4424 72.4494 30.3005 64.1564C46.008 47.5797 75.8712 33.5 111 33.5C128.595 33.5 140.067 35.6858 147.911 39.573C155.727 43.4466 159.985 49.032 163.107 55.9555C164.672 59.4268 165.95 63.2308 167.247 67.3305C167.538 68.2515 167.831 69.1875 168.128 70.1376C169.15 73.4095 170.224 76.8488 171.49 80.4171C174.759 89.6376 179.313 99.7533 187.607 110.309Z" stroke="#C6C6C6"/>
<path d="M86.2568 107V94.3174H94.1757V96.0137H88.2255V100.03H93.6747V101.691H88.2255V107H86.2568ZM98.2102 107.158C96.3909 107.158 95.0462 106.051 95.0462 104.319V104.302C95.0462 102.597 96.3294 101.604 98.6057 101.463L101.19 101.313V100.47C101.19 99.4238 100.531 98.8438 99.2386 98.8438C98.1839 98.8438 97.4895 99.2305 97.261 99.9072L97.2522 99.9424H95.4153L95.4241 99.8809C95.6526 98.3164 97.1555 97.2705 99.3264 97.2705C101.726 97.2705 103.079 98.4658 103.079 100.47V107H101.19V105.646H101.04C100.478 106.613 99.4759 107.158 98.2102 107.158ZM96.9446 104.24C96.9446 105.119 97.6917 105.638 98.72 105.638C100.144 105.638 101.19 104.706 101.19 103.476V102.658L98.8606 102.808C97.5423 102.887 96.9446 103.361 96.9446 104.223V104.24ZM105.409 107V97.4551H107.316V98.9229H107.457C107.879 97.877 108.81 97.2705 110.058 97.2705C111.359 97.2705 112.282 97.9473 112.704 98.9756H112.853C113.337 97.9473 114.435 97.2705 115.762 97.2705C117.687 97.2705 118.812 98.4307 118.812 100.417V107H116.914V100.874C116.914 99.5557 116.316 98.9053 115.068 98.9053C113.855 98.9053 113.055 99.8105 113.055 100.962V107H111.157V100.681C111.157 99.5908 110.445 98.9053 109.32 98.9053C108.169 98.9053 107.316 99.8896 107.316 101.138V107H105.409ZM122.108 95.75C121.449 95.75 120.913 95.2139 120.913 94.5635C120.913 93.9043 121.449 93.3682 122.108 93.3682C122.759 93.3682 123.304 93.9043 123.304 94.5635C123.304 95.2139 122.759 95.75 122.108 95.75ZM121.15 107V97.4551H123.049V107H121.15ZM125.554 107V93.7109H127.461V107H125.554ZM130.872 110.357C130.634 110.357 130.353 110.34 130.107 110.313V108.811C130.292 108.837 130.529 108.846 130.749 108.846C131.636 108.846 132.173 108.468 132.454 107.501L132.594 107.009L129.132 97.4551H131.188L133.579 105.084H133.746L136.128 97.4551H138.132L134.581 107.369C133.772 109.646 132.805 110.357 130.872 110.357ZM68.955 128V115.317H73.9559C76.5575 115.317 78.1747 116.829 78.1747 119.185V119.202C78.1747 120.907 77.2606 122.296 75.7137 122.814L78.5614 128H76.285L73.7011 123.122H70.9237V128H68.955ZM70.9237 121.522H73.7626C75.2743 121.522 76.1532 120.696 76.1532 119.255V119.237C76.1532 117.831 75.2216 116.97 73.7011 116.97H70.9237V121.522ZM84.1252 128.185C81.3303 128.185 79.6428 126.277 79.6428 123.254V123.245C79.6428 120.266 81.3655 118.271 84.0286 118.271C86.6916 118.271 88.3264 120.195 88.3264 123.061V123.729H81.5588C81.594 125.557 82.5959 126.62 84.1692 126.62C85.3909 126.62 86.1204 126.014 86.3489 125.521L86.384 125.451L88.2209 125.442L88.2034 125.521C87.887 126.778 86.5686 128.185 84.1252 128.185ZM84.0373 119.835C82.7366 119.835 81.7522 120.723 81.5852 122.366H86.4368C86.2873 120.661 85.3293 119.835 84.0373 119.835ZM90.3219 128V114.711H92.2291V128H90.3219ZM98.7509 128.185C95.9472 128.185 94.2334 126.312 94.2334 123.236V123.219C94.2334 120.151 95.956 118.271 98.7509 118.271C101.537 118.271 103.26 120.143 103.26 123.219V123.236C103.26 126.312 101.546 128.185 98.7509 128.185ZM98.7509 126.594C100.386 126.594 101.317 125.346 101.317 123.236V123.219C101.317 121.101 100.386 119.861 98.7509 119.861C97.1074 119.861 96.1845 121.101 96.1845 123.219V123.236C96.1845 125.354 97.1074 126.594 98.7509 126.594ZM109.193 128.185C106.407 128.185 104.701 126.286 104.701 123.201V123.184C104.701 120.16 106.398 118.271 109.184 118.271C111.583 118.271 113.016 119.624 113.28 121.479V121.522L111.451 121.531L111.443 121.505C111.232 120.564 110.458 119.861 109.193 119.861C107.602 119.861 106.644 121.127 106.644 123.184V123.201C106.644 125.311 107.619 126.594 109.193 126.594C110.388 126.594 111.126 126.049 111.434 125.021L111.451 124.977H113.28L113.262 125.056C112.919 126.91 111.557 128.185 109.193 128.185ZM117.701 128.158C115.882 128.158 114.537 127.051 114.537 125.319V125.302C114.537 123.597 115.82 122.604 118.096 122.463L120.68 122.313V121.47C120.68 120.424 120.021 119.844 118.729 119.844C117.674 119.844 116.98 120.23 116.752 120.907L116.743 120.942H114.906L114.915 120.881C115.143 119.316 116.646 118.271 118.817 118.271C121.216 118.271 122.57 119.466 122.57 121.47V128H120.68V126.646H120.531C119.968 127.613 118.966 128.158 117.701 128.158ZM116.435 125.24C116.435 126.119 117.182 126.638 118.211 126.638C119.634 126.638 120.68 125.706 120.68 124.476V123.658L118.351 123.808C117.033 123.887 116.435 124.361 116.435 125.223V125.24ZM128.503 128.062C126.402 128.062 125.541 127.323 125.541 125.486V119.958H124.047V118.455H125.541V116.047H127.483V118.455H129.531V119.958H127.483V125.029C127.483 126.058 127.87 126.479 128.811 126.479C129.101 126.479 129.268 126.471 129.531 126.444V127.965C129.224 128.018 128.872 128.062 128.503 128.062ZM132.388 116.75C131.729 116.75 131.193 116.214 131.193 115.563C131.193 114.904 131.729 114.368 132.388 114.368C133.038 114.368 133.583 114.904 133.583 115.563C133.583 116.214 133.038 116.75 132.388 116.75ZM131.43 128V118.455H133.329V128H131.43ZM139.789 128.185C136.985 128.185 135.271 126.312 135.271 123.236V123.219C135.271 120.151 136.994 118.271 139.789 118.271C142.575 118.271 144.298 120.143 144.298 123.219V123.236C144.298 126.312 142.584 128.185 139.789 128.185ZM139.789 126.594C141.424 126.594 142.355 125.346 142.355 123.236V123.219C142.355 121.101 141.424 119.861 139.789 119.861C138.145 119.861 137.222 121.101 137.222 123.219V123.236C137.222 125.354 138.145 126.594 139.789 126.594ZM146.214 128V118.455H148.121V119.905H148.262C148.728 118.886 149.642 118.271 151.03 118.271C153.166 118.271 154.344 119.545 154.344 121.821V128H152.445V122.27C152.445 120.688 151.786 119.905 150.389 119.905C148.991 119.905 148.121 120.863 148.121 122.401V128H146.214Z" fill="black"/>
<path d="M86.2568 107V94.3174H94.1757V96.0137H88.2255V100.03H93.6747V101.691H88.2255V107H86.2568ZM98.2102 107.158C96.3909 107.158 95.0462 106.051 95.0462 104.319V104.302C95.0462 102.597 96.3294 101.604 98.6057 101.463L101.19 101.313V100.47C101.19 99.4238 100.531 98.8438 99.2386 98.8438C98.1839 98.8438 97.4895 99.2305 97.261 99.9072L97.2522 99.9424H95.4153L95.4241 99.8809C95.6526 98.3164 97.1555 97.2705 99.3264 97.2705C101.726 97.2705 103.079 98.4658 103.079 100.47V107H101.19V105.646H101.04C100.478 106.613 99.4759 107.158 98.2102 107.158ZM96.9446 104.24C96.9446 105.119 97.6917 105.638 98.72 105.638C100.144 105.638 101.19 104.706 101.19 103.476V102.658L98.8606 102.808C97.5423 102.887 96.9446 103.361 96.9446 104.223V104.24ZM105.409 107V97.4551H107.316V98.9229H107.457C107.879 97.877 108.81 97.2705 110.058 97.2705C111.359 97.2705 112.282 97.9473 112.704 98.9756H112.853C113.337 97.9473 114.435 97.2705 115.762 97.2705C117.687 97.2705 118.812 98.4307 118.812 100.417V107H116.914V100.874C116.914 99.5557 116.316 98.9053 115.068 98.9053C113.855 98.9053 113.055 99.8105 113.055 100.962V107H111.157V100.681C111.157 99.5908 110.445 98.9053 109.32 98.9053C108.169 98.9053 107.316 99.8896 107.316 101.138V107H105.409ZM122.108 95.75C121.449 95.75 120.913 95.2139 120.913 94.5635C120.913 93.9043 121.449 93.3682 122.108 93.3682C122.759 93.3682 123.304 93.9043 123.304 94.5635C123.304 95.2139 122.759 95.75 122.108 95.75ZM121.15 107V97.4551H123.049V107H121.15ZM125.554 107V93.7109H127.461V107H125.554ZM130.872 110.357C130.634 110.357 130.353 110.34 130.107 110.313V108.811C130.292 108.837 130.529 108.846 130.749 108.846C131.636 108.846 132.173 108.468 132.454 107.501L132.594 107.009L129.132 97.4551H131.188L133.579 105.084H133.746L136.128 97.4551H138.132L134.581 107.369C133.772 109.646 132.805 110.357 130.872 110.357ZM68.955 128V115.317H73.9559C76.5575 115.317 78.1747 116.829 78.1747 119.185V119.202C78.1747 120.907 77.2606 122.296 75.7137 122.814L78.5614 128H76.285L73.7011 123.122H70.9237V128H68.955ZM70.9237 121.522H73.7626C75.2743 121.522 76.1532 120.696 76.1532 119.255V119.237C76.1532 117.831 75.2216 116.97 73.7011 116.97H70.9237V121.522ZM84.1252 128.185C81.3303 128.185 79.6428 126.277 79.6428 123.254V123.245C79.6428 120.266 81.3655 118.271 84.0286 118.271C86.6916 118.271 88.3264 120.195 88.3264 123.061V123.729H81.5588C81.594 125.557 82.5959 126.62 84.1692 126.62C85.3909 126.62 86.1204 126.014 86.3489 125.521L86.384 125.451L88.2209 125.442L88.2034 125.521C87.887 126.778 86.5686 128.185 84.1252 128.185ZM84.0373 119.835C82.7366 119.835 81.7522 120.723 81.5852 122.366H86.4368C86.2873 120.661 85.3293 119.835 84.0373 119.835ZM90.3219 128V114.711H92.2291V128H90.3219ZM98.7509 128.185C95.9472 128.185 94.2334 126.312 94.2334 123.236V123.219C94.2334 120.151 95.956 118.271 98.7509 118.271C101.537 118.271 103.26 120.143 103.26 123.219V123.236C103.26 126.312 101.546 128.185 98.7509 128.185ZM98.7509 126.594C100.386 126.594 101.317 125.346 101.317 123.236V123.219C101.317 121.101 100.386 119.861 98.7509 119.861C97.1074 119.861 96.1845 121.101 96.1845 123.219V123.236C96.1845 125.354 97.1074 126.594 98.7509 126.594ZM109.193 128.185C106.407 128.185 104.701 126.286 104.701 123.201V123.184C104.701 120.16 106.398 118.271 109.184 118.271C111.583 118.271 113.016 119.624 113.28 121.479V121.522L111.451 121.531L111.443 121.505C111.232 120.564 110.458 119.861 109.193 119.861C107.602 119.861 106.644 121.127 106.644 123.184V123.201C106.644 125.311 107.619 126.594 109.193 126.594C110.388 126.594 111.126 126.049 111.434 125.021L111.451 124.977H113.28L113.262 125.056C112.919 126.91 111.557 128.185 109.193 128.185ZM117.701 128.158C115.882 128.158 114.537 127.051 114.537 125.319V125.302C114.537 123.597 115.82 122.604 118.096 122.463L120.68 122.313V121.47C120.68 120.424 120.021 119.844 118.729 119.844C117.674 119.844 116.98 120.23 116.752 120.907L116.743 120.942H114.906L114.915 120.881C115.143 119.316 116.646 118.271 118.817 118.271C121.216 118.271 122.57 119.466 122.57 121.47V128H120.68V126.646H120.531C119.968 127.613 118.966 128.158 117.701 128.158ZM116.435 125.24C116.435 126.119 117.182 126.638 118.211 126.638C119.634 126.638 120.68 125.706 120.68 124.476V123.658L118.351 123.808C117.033 123.887 116.435 124.361 116.435 125.223V125.24ZM128.503 128.062C126.402 128.062 125.541 127.323 125.541 125.486V119.958H124.047V118.455H125.541V116.047H127.483V118.455H129.531V119.958H127.483V125.029C127.483 126.058 127.87 126.479 128.811 126.479C129.101 126.479 129.268 126.471 129.531 126.444V127.965C129.224 128.018 128.872 128.062 128.503 128.062ZM132.388 116.75C131.729 116.75 131.193 116.214 131.193 115.563C131.193 114.904 131.729 114.368 132.388 114.368C133.038 114.368 133.583 114.904 133.583 115.563C133.583 116.214 133.038 116.75 132.388 116.75ZM131.43 128V118.455H133.329V128H131.43ZM139.789 128.185C136.985 128.185 135.271 126.312 135.271 123.236V123.219C135.271 120.151 136.994 118.271 139.789 118.271C142.575 118.271 144.298 120.143 144.298 123.219V123.236C144.298 126.312 142.584 128.185 139.789 128.185ZM139.789 126.594C141.424 126.594 142.355 125.346 142.355 123.236V123.219C142.355 121.101 141.424 119.861 139.789 119.861C138.145 119.861 137.222 121.101 137.222 123.219V123.236C137.222 125.354 138.145 126.594 139.789 126.594ZM146.214 128V118.455H148.121V119.905H148.262C148.728 118.886 149.642 118.271 151.03 118.271C153.166 118.271 154.344 119.545 154.344 121.821V128H152.445V122.27C152.445 120.688 151.786 119.905 150.389 119.905C148.991 119.905 148.121 120.863 148.121 122.401V128H146.214Z" fill="url(#paint0_linear_47_142)"/>
<defs>
<linearGradient id="paint0_linear_47_142" x1="46.8836" y1="133" x2="156" y2="133" gradientUnits="userSpaceOnUse">
<stop stop-color="#FF6000" stop-opacity="0"/>
<stop offset="0.0788975" stop-color="#FF6000" stop-opacity="0.208333"/>
<stop offset="0.149789" stop-color="#FF6000"/>
<stop offset="0.342771" stop-color="#FF6000" stop-opacity="0.197917"/>
<stop offset="0.401847" stop-color="#FF6000" stop-opacity="0"/>
</linearGradient>
</defs>
</svg>
