<svg width="220" height="220" viewBox="-30 -30 260 260" fill="none" xmlns="http://www.w3.org/2000/svg">
<path className='line' d="M216.836 110.099C225.2 151.69 213.083 178.989 191.49 195.919C169.853 212.884 138.62 219.5 108.67 219.5C78.6956 219.5 51.927 215 32.5262 199.113C13.1454 183.243 1.0074 155.915 0.514459 109.995C0.0215875 64.0806 12.1594 36.7573 31.7831 20.8888C51.4312 5.00055 78.6948 0.5 108.67 0.5C138.601 0.5 161.42 7.10713 178.856 24.0461C196.312 41.0033 208.447 68.3831 216.836 110.099Z" stroke="#C6C6C6"/>
<path className='line' d="M213.926 109.159C219.669 128.042 219.709 142.131 215.689 153.074C211.671 164.012 203.568 171.889 192.856 178.292C182.135 184.701 168.843 189.608 154.497 194.624C152.797 195.218 151.083 195.814 149.357 196.414C136.529 200.872 123.04 205.56 109.99 211.573C80.5932 225.119 49.4946 220.796 28.3644 202.487C7.24271 184.187 -4.00667 151.83 6.47908 109.133C16.9965 66.3069 28.6329 40.6805 44.7451 25.7437C60.8318 10.8306 81.4632 6.5 110.199 6.5C138.887 6.5 159.03 13.2847 174.885 29.4416C190.771 45.6307 202.406 71.2816 213.926 109.159Z" stroke="#C6C6C6"/>
<path className='line' d="M195.735 110.424C199.641 112.865 201.954 115.986 202.959 119.572C203.967 123.17 203.672 127.286 202.265 131.724C199.449 140.611 192.218 150.667 182.463 160.141C172.717 169.607 160.492 178.452 147.749 184.929C135 191.409 121.767 195.5 110 195.5C62.8516 195.5 34.4682 157.796 24.4894 109.898C19.5328 86.1059 29.0647 64.7754 45.7777 49.3676C62.4978 33.9532 86.3766 24.5 110 24.5C133.457 24.5 146.827 40.7704 158.384 59.7599C160.753 63.6523 163.052 67.6708 165.345 71.6799C168.619 77.4033 171.883 83.1074 175.322 88.3976C181.187 97.4171 187.642 105.366 195.735 110.424Z" stroke="#C6C6C6"/>
<path className='line' d="M186.5 110C186.5 154.215 152.258 186.5 110 186.5C88.751 186.5 63.3791 183.621 46.4499 172.643C38.0032 167.166 31.6744 159.683 28.9876 149.536C26.2982 139.38 27.2409 126.491 33.4672 110.178C45.977 77.4024 54.5627 58.2609 65.2854 47.2869C75.9499 36.3726 88.7758 33.5 110 33.5C152.258 33.5 186.5 65.7845 186.5 110Z" stroke="#C6C6C6"/>
<path d="M85.2568 107V94.3174H93.1757V96.0137H87.2255V100.03H92.6747V101.691H87.2255V107H85.2568ZM97.2102 107.158C95.3909 107.158 94.0462 106.051 94.0462 104.319V104.302C94.0462 102.597 95.3294 101.604 97.6057 101.463L100.19 101.313V100.47C100.19 99.4238 99.5305 98.8438 98.2386 98.8438C97.1839 98.8438 96.4895 99.2305 96.261 99.9072L96.2522 99.9424H94.4153L94.4241 99.8809C94.6526 98.3164 96.1555 97.2705 98.3264 97.2705C100.726 97.2705 102.079 98.4658 102.079 100.47V107H100.19V105.646H100.04C99.4778 106.613 98.4759 107.158 97.2102 107.158ZM95.9446 104.24C95.9446 105.119 96.6917 105.638 97.72 105.638C99.1438 105.638 100.19 104.706 100.19 103.476V102.658L97.8606 102.808C96.5423 102.887 95.9446 103.361 95.9446 104.223V104.24ZM104.409 107V97.4551H106.316V98.9229H106.457C106.879 97.877 107.81 97.2705 109.058 97.2705C110.359 97.2705 111.282 97.9473 111.704 98.9756H111.853C112.337 97.9473 113.435 97.2705 114.762 97.2705C116.687 97.2705 117.812 98.4307 117.812 100.417V107H115.914V100.874C115.914 99.5557 115.316 98.9053 114.068 98.9053C112.855 98.9053 112.055 99.8105 112.055 100.962V107H110.157V100.681C110.157 99.5908 109.445 98.9053 108.32 98.9053C107.169 98.9053 106.316 99.8896 106.316 101.138V107H104.409ZM121.108 95.75C120.449 95.75 119.913 95.2139 119.913 94.5635C119.913 93.9043 120.449 93.3682 121.108 93.3682C121.759 93.3682 122.304 93.9043 122.304 94.5635C122.304 95.2139 121.759 95.75 121.108 95.75ZM120.15 107V97.4551H122.049V107H120.15ZM124.554 107V93.7109H126.461V107H124.554ZM129.872 110.357C129.634 110.357 129.353 110.34 129.107 110.313V108.811C129.292 108.837 129.529 108.846 129.749 108.846C130.636 108.846 131.173 108.468 131.454 107.501L131.594 107.009L128.132 97.4551H130.188L132.579 105.084H132.746L135.128 97.4551H137.132L133.581 107.369C132.772 109.646 131.805 110.357 129.872 110.357ZM67.955 128V115.317H72.9559C75.5575 115.317 77.1747 116.829 77.1747 119.185V119.202C77.1747 120.907 76.2606 122.296 74.7137 122.814L77.5614 128H75.285L72.7011 123.122H69.9237V128H67.955ZM69.9237 121.522H72.7626C74.2743 121.522 75.1532 120.696 75.1532 119.255V119.237C75.1532 117.831 74.2216 116.97 72.7011 116.97H69.9237V121.522ZM83.1252 128.185C80.3303 128.185 78.6428 126.277 78.6428 123.254V123.245C78.6428 120.266 80.3655 118.271 83.0286 118.271C85.6916 118.271 87.3264 120.195 87.3264 123.061V123.729H80.5588C80.594 125.557 81.5959 126.62 83.1692 126.62C84.3909 126.62 85.1204 126.014 85.3489 125.521L85.384 125.451L87.2209 125.442L87.2034 125.521C86.887 126.778 85.5686 128.185 83.1252 128.185ZM83.0373 119.835C81.7366 119.835 80.7522 120.723 80.5852 122.366H85.4368C85.2873 120.661 84.3293 119.835 83.0373 119.835ZM89.3219 128V114.711H91.2291V128H89.3219ZM97.7509 128.185C94.9472 128.185 93.2334 126.312 93.2334 123.236V123.219C93.2334 120.151 94.956 118.271 97.7509 118.271C100.537 118.271 102.26 120.143 102.26 123.219V123.236C102.26 126.312 100.546 128.185 97.7509 128.185ZM97.7509 126.594C99.3857 126.594 100.317 125.346 100.317 123.236V123.219C100.317 121.101 99.3857 119.861 97.7509 119.861C96.1074 119.861 95.1845 121.101 95.1845 123.219V123.236C95.1845 125.354 96.1074 126.594 97.7509 126.594ZM108.193 128.185C105.407 128.185 103.701 126.286 103.701 123.201V123.184C103.701 120.16 105.398 118.271 108.184 118.271C110.583 118.271 112.016 119.624 112.28 121.479V121.522L110.451 121.531L110.443 121.505C110.232 120.564 109.458 119.861 108.193 119.861C106.602 119.861 105.644 121.127 105.644 123.184V123.201C105.644 125.311 106.619 126.594 108.193 126.594C109.388 126.594 110.126 126.049 110.434 125.021L110.451 124.977H112.28L112.262 125.056C111.919 126.91 110.557 128.185 108.193 128.185ZM116.701 128.158C114.882 128.158 113.537 127.051 113.537 125.319V125.302C113.537 123.597 114.82 122.604 117.096 122.463L119.68 122.313V121.47C119.68 120.424 119.021 119.844 117.729 119.844C116.674 119.844 115.98 120.23 115.752 120.907L115.743 120.942H113.906L113.915 120.881C114.143 119.316 115.646 118.271 117.817 118.271C120.216 118.271 121.57 119.466 121.57 121.47V128H119.68V126.646H119.531C118.968 127.613 117.966 128.158 116.701 128.158ZM115.435 125.24C115.435 126.119 116.182 126.638 117.211 126.638C118.634 126.638 119.68 125.706 119.68 124.476V123.658L117.351 123.808C116.033 123.887 115.435 124.361 115.435 125.223V125.24ZM127.503 128.062C125.402 128.062 124.541 127.323 124.541 125.486V119.958H123.047V118.455H124.541V116.047H126.483V118.455H128.531V119.958H126.483V125.029C126.483 126.058 126.87 126.479 127.811 126.479C128.101 126.479 128.268 126.471 128.531 126.444V127.965C128.224 128.018 127.872 128.062 127.503 128.062ZM131.388 116.75C130.729 116.75 130.193 116.214 130.193 115.563C130.193 114.904 130.729 114.368 131.388 114.368C132.038 114.368 132.583 114.904 132.583 115.563C132.583 116.214 132.038 116.75 131.388 116.75ZM130.43 128V118.455H132.329V128H130.43ZM138.789 128.185C135.985 128.185 134.271 126.312 134.271 123.236V123.219C134.271 120.151 135.994 118.271 138.789 118.271C141.575 118.271 143.298 120.143 143.298 123.219V123.236C143.298 126.312 141.584 128.185 138.789 128.185ZM138.789 126.594C140.424 126.594 141.355 125.346 141.355 123.236V123.219C141.355 121.101 140.424 119.861 138.789 119.861C137.145 119.861 136.222 121.101 136.222 123.219V123.236C136.222 125.354 137.145 126.594 138.789 126.594ZM145.214 128V118.455H147.121V119.905H147.262C147.728 118.886 148.642 118.271 150.03 118.271C152.166 118.271 153.344 119.545 153.344 121.821V128H151.445V122.27C151.445 120.688 150.786 119.905 149.389 119.905C147.991 119.905 147.121 120.863 147.121 122.401V128H145.214Z" fill="black"/>
<path d="M85.2568 107V94.3174H93.1757V96.0137H87.2255V100.03H92.6747V101.691H87.2255V107H85.2568ZM97.2102 107.158C95.3909 107.158 94.0462 106.051 94.0462 104.319V104.302C94.0462 102.597 95.3294 101.604 97.6057 101.463L100.19 101.313V100.47C100.19 99.4238 99.5305 98.8438 98.2386 98.8438C97.1839 98.8438 96.4895 99.2305 96.261 99.9072L96.2522 99.9424H94.4153L94.4241 99.8809C94.6526 98.3164 96.1555 97.2705 98.3264 97.2705C100.726 97.2705 102.079 98.4658 102.079 100.47V107H100.19V105.646H100.04C99.4778 106.613 98.4759 107.158 97.2102 107.158ZM95.9446 104.24C95.9446 105.119 96.6917 105.638 97.72 105.638C99.1438 105.638 100.19 104.706 100.19 103.476V102.658L97.8606 102.808C96.5423 102.887 95.9446 103.361 95.9446 104.223V104.24ZM104.409 107V97.4551H106.316V98.9229H106.457C106.879 97.877 107.81 97.2705 109.058 97.2705C110.359 97.2705 111.282 97.9473 111.704 98.9756H111.853C112.337 97.9473 113.435 97.2705 114.762 97.2705C116.687 97.2705 117.812 98.4307 117.812 100.417V107H115.914V100.874C115.914 99.5557 115.316 98.9053 114.068 98.9053C112.855 98.9053 112.055 99.8105 112.055 100.962V107H110.157V100.681C110.157 99.5908 109.445 98.9053 108.32 98.9053C107.169 98.9053 106.316 99.8896 106.316 101.138V107H104.409ZM121.108 95.75C120.449 95.75 119.913 95.2139 119.913 94.5635C119.913 93.9043 120.449 93.3682 121.108 93.3682C121.759 93.3682 122.304 93.9043 122.304 94.5635C122.304 95.2139 121.759 95.75 121.108 95.75ZM120.15 107V97.4551H122.049V107H120.15ZM124.554 107V93.7109H126.461V107H124.554ZM129.872 110.357C129.634 110.357 129.353 110.34 129.107 110.313V108.811C129.292 108.837 129.529 108.846 129.749 108.846C130.636 108.846 131.173 108.468 131.454 107.501L131.594 107.009L128.132 97.4551H130.188L132.579 105.084H132.746L135.128 97.4551H137.132L133.581 107.369C132.772 109.646 131.805 110.357 129.872 110.357ZM67.955 128V115.317H72.9559C75.5575 115.317 77.1747 116.829 77.1747 119.185V119.202C77.1747 120.907 76.2606 122.296 74.7137 122.814L77.5614 128H75.285L72.7011 123.122H69.9237V128H67.955ZM69.9237 121.522H72.7626C74.2743 121.522 75.1532 120.696 75.1532 119.255V119.237C75.1532 117.831 74.2216 116.97 72.7011 116.97H69.9237V121.522ZM83.1252 128.185C80.3303 128.185 78.6428 126.277 78.6428 123.254V123.245C78.6428 120.266 80.3655 118.271 83.0286 118.271C85.6916 118.271 87.3264 120.195 87.3264 123.061V123.729H80.5588C80.594 125.557 81.5959 126.62 83.1692 126.62C84.3909 126.62 85.1204 126.014 85.3489 125.521L85.384 125.451L87.2209 125.442L87.2034 125.521C86.887 126.778 85.5686 128.185 83.1252 128.185ZM83.0373 119.835C81.7366 119.835 80.7522 120.723 80.5852 122.366H85.4368C85.2873 120.661 84.3293 119.835 83.0373 119.835ZM89.3219 128V114.711H91.2291V128H89.3219ZM97.7509 128.185C94.9472 128.185 93.2334 126.312 93.2334 123.236V123.219C93.2334 120.151 94.956 118.271 97.7509 118.271C100.537 118.271 102.26 120.143 102.26 123.219V123.236C102.26 126.312 100.546 128.185 97.7509 128.185ZM97.7509 126.594C99.3857 126.594 100.317 125.346 100.317 123.236V123.219C100.317 121.101 99.3857 119.861 97.7509 119.861C96.1074 119.861 95.1845 121.101 95.1845 123.219V123.236C95.1845 125.354 96.1074 126.594 97.7509 126.594ZM108.193 128.185C105.407 128.185 103.701 126.286 103.701 123.201V123.184C103.701 120.16 105.398 118.271 108.184 118.271C110.583 118.271 112.016 119.624 112.28 121.479V121.522L110.451 121.531L110.443 121.505C110.232 120.564 109.458 119.861 108.193 119.861C106.602 119.861 105.644 121.127 105.644 123.184V123.201C105.644 125.311 106.619 126.594 108.193 126.594C109.388 126.594 110.126 126.049 110.434 125.021L110.451 124.977H112.28L112.262 125.056C111.919 126.91 110.557 128.185 108.193 128.185ZM116.701 128.158C114.882 128.158 113.537 127.051 113.537 125.319V125.302C113.537 123.597 114.82 122.604 117.096 122.463L119.68 122.313V121.47C119.68 120.424 119.021 119.844 117.729 119.844C116.674 119.844 115.98 120.23 115.752 120.907L115.743 120.942H113.906L113.915 120.881C114.143 119.316 115.646 118.271 117.817 118.271C120.216 118.271 121.57 119.466 121.57 121.47V128H119.68V126.646H119.531C118.968 127.613 117.966 128.158 116.701 128.158ZM115.435 125.24C115.435 126.119 116.182 126.638 117.211 126.638C118.634 126.638 119.68 125.706 119.68 124.476V123.658L117.351 123.808C116.033 123.887 115.435 124.361 115.435 125.223V125.24ZM127.503 128.062C125.402 128.062 124.541 127.323 124.541 125.486V119.958H123.047V118.455H124.541V116.047H126.483V118.455H128.531V119.958H126.483V125.029C126.483 126.058 126.87 126.479 127.811 126.479C128.101 126.479 128.268 126.471 128.531 126.444V127.965C128.224 128.018 127.872 128.062 127.503 128.062ZM131.388 116.75C130.729 116.75 130.193 116.214 130.193 115.563C130.193 114.904 130.729 114.368 131.388 114.368C132.038 114.368 132.583 114.904 132.583 115.563C132.583 116.214 132.038 116.75 131.388 116.75ZM130.43 128V118.455H132.329V128H130.43ZM138.789 128.185C135.985 128.185 134.271 126.312 134.271 123.236V123.219C134.271 120.151 135.994 118.271 138.789 118.271C141.575 118.271 143.298 120.143 143.298 123.219V123.236C143.298 126.312 141.584 128.185 138.789 128.185ZM138.789 126.594C140.424 126.594 141.355 125.346 141.355 123.236V123.219C141.355 121.101 140.424 119.861 138.789 119.861C137.145 119.861 136.222 121.101 136.222 123.219V123.236C136.222 125.354 137.145 126.594 138.789 126.594ZM145.214 128V118.455H147.121V119.905H147.262C147.728 118.886 148.642 118.271 150.03 118.271C152.166 118.271 153.344 119.545 153.344 121.821V128H151.445V122.27C151.445 120.688 150.786 119.905 149.389 119.905C147.991 119.905 147.121 120.863 147.121 122.401V128H145.214Z" fill="url(#paint0_linear_47_158)"/>
<defs>
<linearGradient id="paint0_linear_47_158" x1="66" y1="133" x2="155" y2="133" gradientUnits="userSpaceOnUse">
<stop offset="0.218877" stop-color="#FF6000" stop-opacity="0"/>
<stop offset="0.359153" stop-color="#FF6000" stop-opacity="0.208333"/>
<stop offset="0.546795" stop-color="#FF6000"/>
<stop offset="0.756132" stop-color="#FF6000" stop-opacity="0.197917"/>
<stop offset="0.836144" stop-color="#FF6000" stop-opacity="0"/>
</linearGradient>
</defs>
</svg>
