<svg width="370" height="390" viewBox="-30 -30 450 450" fill="none" xmlns="http://www.w3.org/2000/svg">
<path className='line' d="M346.5 188C346.5 254.414 328.617 294.24 299.823 317.486C271.006 340.75 231.152 347.5 187 347.5C142.944 347.5 96.3128 329.048 64.0734 299.879C31.8397 270.716 14.0532 230.908 27.4771 188.15C40.9471 145.245 69.7696 103.439 100.786 73.2961C116.293 58.2263 132.333 46.0862 147.257 38.1841C162.196 30.2746 175.952 26.645 186.917 28.493C209.172 32.2439 249.075 38.9825 283.415 61.3565C317.718 83.7069 346.5 121.678 346.5 188Z" stroke="black"/>
<path className='line' d="M338.588 187.717C328.568 202.281 319.522 218.308 310.493 234.305C309.822 235.494 309.15 236.683 308.479 237.871C298.771 255.053 288.998 272.075 277.952 287.142C255.869 317.263 228.75 339.5 187 339.5C145.178 339.5 117.19 324.443 94.7133 297.989C72.2019 271.494 55.2167 233.57 35.4591 187.802C15.7713 142.196 22.1555 104.43 49.1 78.0447C76.0899 51.6145 123.808 36.5 187 36.5C250.137 36.5 298.743 58.8348 326.193 88.8996C353.639 118.96 359.925 156.703 338.588 187.717Z" stroke="black"/>
<path className='line' d="M373.5 187.798C367.089 267.635 340.728 317.73 306.203 345.683C271.676 373.636 228.908 379.509 189.549 370.743C150.134 361.965 95.9239 339.313 55.65 307.297C15.3586 275.267 -10.822 234.015 5.35287 187.983C21.6307 141.659 45.541 88.6361 76.452 50.8186C107.366 12.9969 145.166 -9.49281 189.286 4.87886C233.672 19.3373 279.742 39.842 314.707 69.3566C349.656 98.8572 373.494 137.341 373.5 187.798Z" stroke="black"/>
<path className='line' d="M187 366.5H186.989L186.979 366.5C110.572 369.746 66.0108 349.734 40.5208 316.704C15.0035 283.639 8.5 237.411 8.5 188C8.5 138.782 34.6256 103.787 70.0568 76.2604C98.2945 54.3223 132.387 37.168 163.81 21.3573C171.838 17.3175 179.693 13.3654 187.231 9.44361C205.548 -0.0861611 228.537 1.83446 252.119 11.2767C275.692 20.7151 299.777 37.6406 320.21 57.9794C340.643 78.3187 357.393 102.043 366.323 125.056C375.255 148.076 376.334 170.3 365.574 187.738C357.515 200.8 349.688 215.169 341.666 229.897C338.856 235.057 336.021 240.262 333.144 245.469C322.049 265.551 310.315 285.698 296.86 303.637C269.952 339.511 236.208 366.5 187 366.5Z" stroke="black"/>
<path  d="M144.955 195V182.317H149.956C152.557 182.317 154.175 183.829 154.175 186.185V186.202C154.175 187.907 153.261 189.296 151.714 189.814L154.561 195H152.285L149.701 190.122H146.924V195H144.955ZM146.924 188.522H149.763C151.274 188.522 152.153 187.696 152.153 186.255V186.237C152.153 184.831 151.222 183.97 149.701 183.97H146.924V188.522ZM160.125 195.185C157.33 195.185 155.643 193.277 155.643 190.254V190.245C155.643 187.266 157.365 185.271 160.029 185.271C162.692 185.271 164.326 187.195 164.326 190.061V190.729H157.559C157.594 192.557 158.596 193.62 160.169 193.62C161.391 193.62 162.12 193.014 162.349 192.521L162.384 192.451L164.221 192.442L164.203 192.521C163.887 193.778 162.569 195.185 160.125 195.185ZM160.037 186.835C158.737 186.835 157.752 187.723 157.585 189.366H162.437C162.287 187.661 161.329 186.835 160.037 186.835ZM166.322 195V181.711H168.229V195H166.322ZM174.751 195.185C171.947 195.185 170.233 193.312 170.233 190.236V190.219C170.233 187.151 171.956 185.271 174.751 185.271C177.537 185.271 179.26 187.143 179.26 190.219V190.236C179.26 193.312 177.546 195.185 174.751 195.185ZM174.751 193.594C176.386 193.594 177.317 192.346 177.317 190.236V190.219C177.317 188.101 176.386 186.861 174.751 186.861C173.107 186.861 172.185 188.101 172.185 190.219V190.236C172.185 192.354 173.107 193.594 174.751 193.594ZM185.193 195.185C182.407 195.185 180.701 193.286 180.701 190.201V190.184C180.701 187.16 182.398 185.271 185.184 185.271C187.583 185.271 189.016 186.624 189.28 188.479V188.522L187.451 188.531L187.443 188.505C187.232 187.564 186.458 186.861 185.193 186.861C183.602 186.861 182.644 188.127 182.644 190.184V190.201C182.644 192.311 183.619 193.594 185.193 193.594C186.388 193.594 187.126 193.049 187.434 192.021L187.451 191.977H189.28L189.262 192.056C188.919 193.91 187.557 195.185 185.193 195.185ZM193.701 195.158C191.882 195.158 190.537 194.051 190.537 192.319V192.302C190.537 190.597 191.82 189.604 194.096 189.463L196.68 189.313V188.47C196.68 187.424 196.021 186.844 194.729 186.844C193.674 186.844 192.98 187.23 192.752 187.907L192.743 187.942H190.906L190.915 187.881C191.143 186.316 192.646 185.271 194.817 185.271C197.216 185.271 198.57 186.466 198.57 188.47V195H196.68V193.646H196.531C195.968 194.613 194.966 195.158 193.701 195.158ZM192.435 192.24C192.435 193.119 193.182 193.638 194.211 193.638C195.634 193.638 196.68 192.706 196.68 191.476V190.658L194.351 190.808C193.033 190.887 192.435 191.361 192.435 192.223V192.24ZM204.503 195.062C202.402 195.062 201.541 194.323 201.541 192.486V186.958H200.047V185.455H201.541V183.047H203.483V185.455H205.531V186.958H203.483V192.029C203.483 193.058 203.87 193.479 204.811 193.479C205.101 193.479 205.268 193.471 205.531 193.444V194.965C205.224 195.018 204.872 195.062 204.503 195.062ZM208.388 183.75C207.729 183.75 207.193 183.214 207.193 182.563C207.193 181.904 207.729 181.368 208.388 181.368C209.038 181.368 209.583 181.904 209.583 182.563C209.583 183.214 209.038 183.75 208.388 183.75ZM207.43 195V185.455H209.329V195H207.43ZM215.789 195.185C212.985 195.185 211.271 193.312 211.271 190.236V190.219C211.271 187.151 212.994 185.271 215.789 185.271C218.575 185.271 220.298 187.143 220.298 190.219V190.236C220.298 193.312 218.584 195.185 215.789 195.185ZM215.789 193.594C217.424 193.594 218.355 192.346 218.355 190.236V190.219C218.355 188.101 217.424 186.861 215.789 186.861C214.145 186.861 213.222 188.101 213.222 190.219V190.236C213.222 192.354 214.145 193.594 215.789 193.594ZM222.214 195V185.455H224.121V186.905H224.262C224.728 185.886 225.642 185.271 227.03 185.271C229.166 185.271 230.344 186.545 230.344 188.821V195H228.445V189.27C228.445 187.688 227.786 186.905 226.389 186.905C224.991 186.905 224.121 187.863 224.121 189.401V195H222.214Z" fill="#030202"/>
<g clip-path="url(#clip0_10_3)">
<path d="M144.955 195V182.317H149.956C152.557 182.317 154.175 183.829 154.175 186.185V186.202C154.175 187.907 153.261 189.296 151.714 189.814L154.561 195H152.285L149.701 190.122H146.924V195H144.955ZM146.924 188.522H149.763C151.274 188.522 152.153 187.696 152.153 186.255V186.237C152.153 184.831 151.222 183.97 149.701 183.97H146.924V188.522ZM160.125 195.185C157.33 195.185 155.643 193.277 155.643 190.254V190.245C155.643 187.266 157.365 185.271 160.029 185.271C162.692 185.271 164.326 187.195 164.326 190.061V190.729H157.559C157.594 192.557 158.596 193.62 160.169 193.62C161.391 193.62 162.12 193.014 162.349 192.521L162.384 192.451L164.221 192.442L164.203 192.521C163.887 193.778 162.569 195.185 160.125 195.185ZM160.037 186.835C158.737 186.835 157.752 187.723 157.585 189.366H162.437C162.287 187.661 161.329 186.835 160.037 186.835ZM166.322 195V181.711H168.229V195H166.322ZM174.751 195.185C171.947 195.185 170.233 193.312 170.233 190.236V190.219C170.233 187.151 171.956 185.271 174.751 185.271C177.537 185.271 179.26 187.143 179.26 190.219V190.236C179.26 193.312 177.546 195.185 174.751 195.185ZM174.751 193.594C176.386 193.594 177.317 192.346 177.317 190.236V190.219C177.317 188.101 176.386 186.861 174.751 186.861C173.107 186.861 172.185 188.101 172.185 190.219V190.236C172.185 192.354 173.107 193.594 174.751 193.594ZM185.193 195.185C182.407 195.185 180.701 193.286 180.701 190.201V190.184C180.701 187.16 182.398 185.271 185.184 185.271C187.583 185.271 189.016 186.624 189.28 188.479V188.522L187.451 188.531L187.443 188.505C187.232 187.564 186.458 186.861 185.193 186.861C183.602 186.861 182.644 188.127 182.644 190.184V190.201C182.644 192.311 183.619 193.594 185.193 193.594C186.388 193.594 187.126 193.049 187.434 192.021L187.451 191.977H189.28L189.262 192.056C188.919 193.91 187.557 195.185 185.193 195.185ZM193.701 195.158C191.882 195.158 190.537 194.051 190.537 192.319V192.302C190.537 190.597 191.82 189.604 194.096 189.463L196.68 189.313V188.47C196.68 187.424 196.021 186.844 194.729 186.844C193.674 186.844 192.98 187.23 192.752 187.907L192.743 187.942H190.906L190.915 187.881C191.143 186.316 192.646 185.271 194.817 185.271C197.216 185.271 198.57 186.466 198.57 188.47V195H196.68V193.646H196.531C195.968 194.613 194.966 195.158 193.701 195.158ZM192.435 192.24C192.435 193.119 193.182 193.638 194.211 193.638C195.634 193.638 196.68 192.706 196.68 191.476V190.658L194.351 190.808C193.033 190.887 192.435 191.361 192.435 192.223V192.24ZM204.503 195.062C202.402 195.062 201.541 194.323 201.541 192.486V186.958H200.047V185.455H201.541V183.047H203.483V185.455H205.531V186.958H203.483V192.029C203.483 193.058 203.87 193.479 204.811 193.479C205.101 193.479 205.268 193.471 205.531 193.444V194.965C205.224 195.018 204.872 195.062 204.503 195.062ZM208.388 183.75C207.729 183.75 207.193 183.214 207.193 182.563C207.193 181.904 207.729 181.368 208.388 181.368C209.038 181.368 209.583 181.904 209.583 182.563C209.583 183.214 209.038 183.75 208.388 183.75ZM207.43 195V185.455H209.329V195H207.43ZM215.789 195.185C212.985 195.185 211.271 193.312 211.271 190.236V190.219C211.271 187.151 212.994 185.271 215.789 185.271C218.575 185.271 220.298 187.143 220.298 190.219V190.236C220.298 193.312 218.584 195.185 215.789 195.185ZM215.789 193.594C217.424 193.594 218.355 192.346 218.355 190.236V190.219C218.355 188.101 217.424 186.861 215.789 186.861C214.145 186.861 213.222 188.101 213.222 190.219V190.236C213.222 192.354 214.145 193.594 215.789 193.594ZM222.214 195V185.455H224.121V186.905H224.262C224.728 185.886 225.642 185.271 227.03 185.271C229.166 185.271 230.344 186.545 230.344 188.821V195H228.445V189.27C228.445 187.688 227.786 186.905 226.389 186.905C224.991 186.905 224.121 187.863 224.121 189.401V195H222.214Z" fill="url(#paint0_linear_10_3)"/>
</g>
<defs>
<linearGradient id="paint0_linear_10_3" x1="120.468" y1="199" x2="232" y2="199" gradientUnits="userSpaceOnUse">
<stop stop-color="#FF6000" stop-opacity="0"/>
<stop offset="0.0765029" stop-color="#FF6000" stop-opacity="0.216495"/>
<stop offset="0.196748" stop-color="#FF6000"/>
<stop offset="0.28149" stop-color="#FF6000" stop-opacity="0.284211"/>
<stop offset="0.364391" stop-color="#FF6000" stop-opacity="0"/>
</linearGradient>
<clipPath id="clip0_10_3">
<rect width="89" height="21" fill="white" transform="translate(143 178)"/>
</clipPath>
</defs>
</svg>
