    <svg width="370" height="390" viewBox="-30 -30 450 450" fill="none" xmlns="http://www.w3.org/2000/svg">
<path className='line' d="M346.5 187C346.5 230.957 323.516 258.075 292.022 280.605C277.525 290.976 261.243 300.362 244.579 309.967C243.131 310.802 241.68 311.639 240.227 312.478C222.064 322.964 203.601 333.83 186.699 346.601C169.965 359.244 151.699 361.127 133.673 355.465C115.625 349.795 97.8062 336.554 82.0604 318.929C50.5631 283.673 27.5 231.037 27.5 187C27.5 143.059 54.8391 112.064 88.5439 87.58C105.393 75.3404 123.808 64.7465 141.151 54.9859C142.902 54.0009 144.641 53.0243 146.367 52.0553C161.732 43.4291 176.027 35.4037 187.289 27.4077C199.602 18.6655 215.66 18.6644 232.92 25.0659C250.177 31.4661 268.556 44.2425 285.398 60.9059C319.094 94.2442 346.5 142.999 346.5 187Z" stroke="black"/>
<path className='line' d="M338.515 186.878C325.773 237.595 308.787 275.496 284.557 300.716C260.347 325.915 228.86 338.5 187 338.5C166.095 338.5 149.315 333.708 135.119 325.366C120.918 317.021 109.276 305.107 98.6712 290.827C88.0643 276.543 78.5112 259.914 68.474 242.145C67.761 240.882 67.0455 239.614 66.327 238.341C56.9369 221.699 47.0391 204.157 35.416 186.723C22.9983 168.096 21.0253 149.375 26.3299 131.754C31.6409 114.11 44.2601 97.5305 61.0931 83.2563C94.7656 54.7027 145.153 35.5 187 35.5C228.888 35.5 273.141 48.1021 303.725 73.3232C334.277 98.5189 351.216 136.324 338.515 186.878Z" stroke="black"/>
<path className='line' d="M373.5 186.141C373.5 235.536 349.859 269.976 314.694 297.247C281.838 322.727 238.965 341.917 195.966 361.163C192.909 362.532 189.85 363.901 186.795 365.272C141.071 385.796 94.5405 365.854 59.365 328.272C24.1916 290.693 0.5 235.592 0.5 186.141C0.5 136.653 13.9654 100.786 43.9658 72.8446C73.9969 44.8748 120.646 24.799 187.129 7.03692C220.304 -1.82635 248.519 -1.23576 272.179 6.15338C295.839 13.5423 314.978 27.7399 329.988 46.1447C360.017 82.9679 373.5 136.622 373.5 186.141Z" stroke="black"/>
<path className='line' d="M365.521 186.857C345.023 255.601 325.015 300.244 297.842 327.711C270.703 355.143 236.355 365.5 187 365.5C137.595 365.5 90.3633 358.373 56.7953 332.541C23.2661 306.739 3.25607 262.18 8.49879 187.035C13.7444 111.848 33.7555 67.2588 64.6858 41.4464C95.6259 15.6257 137.599 8.5 187 8.5C236.383 8.5 291.257 18.869 328.651 46.3405C347.337 60.0685 361.653 78.062 368.752 101.17C375.853 124.281 375.75 152.553 365.521 186.857Z" stroke="black"/>
<path d="M144.955 194V181.317H149.956C152.557 181.317 154.175 182.829 154.175 185.185V185.202C154.175 186.907 153.261 188.296 151.714 188.814L154.561 194H152.285L149.701 189.122H146.924V194H144.955ZM146.924 187.522H149.763C151.274 187.522 152.153 186.696 152.153 185.255V185.237C152.153 183.831 151.222 182.97 149.701 182.97H146.924V187.522ZM160.125 194.185C157.33 194.185 155.643 192.277 155.643 189.254V189.245C155.643 186.266 157.365 184.271 160.029 184.271C162.692 184.271 164.326 186.195 164.326 189.061V189.729H157.559C157.594 191.557 158.596 192.62 160.169 192.62C161.391 192.62 162.12 192.014 162.349 191.521L162.384 191.451L164.221 191.442L164.203 191.521C163.887 192.778 162.569 194.185 160.125 194.185ZM160.037 185.835C158.737 185.835 157.752 186.723 157.585 188.366H162.437C162.287 186.661 161.329 185.835 160.037 185.835ZM166.322 194V180.711H168.229V194H166.322ZM174.751 194.185C171.947 194.185 170.233 192.312 170.233 189.236V189.219C170.233 186.151 171.956 184.271 174.751 184.271C177.537 184.271 179.26 186.143 179.26 189.219V189.236C179.26 192.312 177.546 194.185 174.751 194.185ZM174.751 192.594C176.386 192.594 177.317 191.346 177.317 189.236V189.219C177.317 187.101 176.386 185.861 174.751 185.861C173.107 185.861 172.185 187.101 172.185 189.219V189.236C172.185 191.354 173.107 192.594 174.751 192.594ZM185.193 194.185C182.407 194.185 180.701 192.286 180.701 189.201V189.184C180.701 186.16 182.398 184.271 185.184 184.271C187.583 184.271 189.016 185.624 189.28 187.479V187.522L187.451 187.531L187.443 187.505C187.232 186.564 186.458 185.861 185.193 185.861C183.602 185.861 182.644 187.127 182.644 189.184V189.201C182.644 191.311 183.619 192.594 185.193 192.594C186.388 192.594 187.126 192.049 187.434 191.021L187.451 190.977H189.28L189.262 191.056C188.919 192.91 187.557 194.185 185.193 194.185ZM193.701 194.158C191.882 194.158 190.537 193.051 190.537 191.319V191.302C190.537 189.597 191.82 188.604 194.096 188.463L196.68 188.313V187.47C196.68 186.424 196.021 185.844 194.729 185.844C193.674 185.844 192.98 186.23 192.752 186.907L192.743 186.942H190.906L190.915 186.881C191.143 185.316 192.646 184.271 194.817 184.271C197.216 184.271 198.57 185.466 198.57 187.47V194H196.68V192.646H196.531C195.968 193.613 194.966 194.158 193.701 194.158ZM192.435 191.24C192.435 192.119 193.182 192.638 194.211 192.638C195.634 192.638 196.68 191.706 196.68 190.476V189.658L194.351 189.808C193.033 189.887 192.435 190.361 192.435 191.223V191.24ZM204.503 194.062C202.402 194.062 201.541 193.323 201.541 191.486V185.958H200.047V184.455H201.541V182.047H203.483V184.455H205.531V185.958H203.483V191.029C203.483 192.058 203.87 192.479 204.811 192.479C205.101 192.479 205.268 192.471 205.531 192.444V193.965C205.224 194.018 204.872 194.062 204.503 194.062ZM208.388 182.75C207.729 182.75 207.193 182.214 207.193 181.563C207.193 180.904 207.729 180.368 208.388 180.368C209.038 180.368 209.583 180.904 209.583 181.563C209.583 182.214 209.038 182.75 208.388 182.75ZM207.43 194V184.455H209.329V194H207.43ZM215.789 194.185C212.985 194.185 211.271 192.312 211.271 189.236V189.219C211.271 186.151 212.994 184.271 215.789 184.271C218.575 184.271 220.298 186.143 220.298 189.219V189.236C220.298 192.312 218.584 194.185 215.789 194.185ZM215.789 192.594C217.424 192.594 218.355 191.346 218.355 189.236V189.219C218.355 187.101 217.424 185.861 215.789 185.861C214.145 185.861 213.222 187.101 213.222 189.219V189.236C213.222 191.354 214.145 192.594 215.789 192.594ZM222.214 194V184.455H224.121V185.905H224.262C224.728 184.886 225.642 184.271 227.03 184.271C229.166 184.271 230.344 185.545 230.344 187.821V194H228.445V188.27C228.445 186.688 227.786 185.905 226.389 185.905C224.991 185.905 224.121 186.863 224.121 188.401V194H222.214Z" fill="#030202"/>
<g clip-path="url(#clip0_10_13)">
<path d="M144.955 194V181.317H149.956C152.557 181.317 154.175 182.829 154.175 185.185V185.202C154.175 186.907 153.261 188.296 151.714 188.814L154.561 194H152.285L149.701 189.122H146.924V194H144.955ZM146.924 187.522H149.763C151.274 187.522 152.153 186.696 152.153 185.255V185.237C152.153 183.831 151.222 182.97 149.701 182.97H146.924V187.522ZM160.125 194.185C157.33 194.185 155.643 192.277 155.643 189.254V189.245C155.643 186.266 157.365 184.271 160.029 184.271C162.692 184.271 164.326 186.195 164.326 189.061V189.729H157.559C157.594 191.557 158.596 192.62 160.169 192.62C161.391 192.62 162.12 192.014 162.349 191.521L162.384 191.451L164.221 191.442L164.203 191.521C163.887 192.778 162.569 194.185 160.125 194.185ZM160.037 185.835C158.737 185.835 157.752 186.723 157.585 188.366H162.437C162.287 186.661 161.329 185.835 160.037 185.835ZM166.322 194V180.711H168.229V194H166.322ZM174.751 194.185C171.947 194.185 170.233 192.312 170.233 189.236V189.219C170.233 186.151 171.956 184.271 174.751 184.271C177.537 184.271 179.26 186.143 179.26 189.219V189.236C179.26 192.312 177.546 194.185 174.751 194.185ZM174.751 192.594C176.386 192.594 177.317 191.346 177.317 189.236V189.219C177.317 187.101 176.386 185.861 174.751 185.861C173.107 185.861 172.185 187.101 172.185 189.219V189.236C172.185 191.354 173.107 192.594 174.751 192.594ZM185.193 194.185C182.407 194.185 180.701 192.286 180.701 189.201V189.184C180.701 186.16 182.398 184.271 185.184 184.271C187.583 184.271 189.016 185.624 189.28 187.479V187.522L187.451 187.531L187.443 187.505C187.232 186.564 186.458 185.861 185.193 185.861C183.602 185.861 182.644 187.127 182.644 189.184V189.201C182.644 191.311 183.619 192.594 185.193 192.594C186.388 192.594 187.126 192.049 187.434 191.021L187.451 190.977H189.28L189.262 191.056C188.919 192.91 187.557 194.185 185.193 194.185ZM193.701 194.158C191.882 194.158 190.537 193.051 190.537 191.319V191.302C190.537 189.597 191.82 188.604 194.096 188.463L196.68 188.313V187.47C196.68 186.424 196.021 185.844 194.729 185.844C193.674 185.844 192.98 186.23 192.752 186.907L192.743 186.942H190.906L190.915 186.881C191.143 185.316 192.646 184.271 194.817 184.271C197.216 184.271 198.57 185.466 198.57 187.47V194H196.68V192.646H196.531C195.968 193.613 194.966 194.158 193.701 194.158ZM192.435 191.24C192.435 192.119 193.182 192.638 194.211 192.638C195.634 192.638 196.68 191.706 196.68 190.476V189.658L194.351 189.808C193.033 189.887 192.435 190.361 192.435 191.223V191.24ZM204.503 194.062C202.402 194.062 201.541 193.323 201.541 191.486V185.958H200.047V184.455H201.541V182.047H203.483V184.455H205.531V185.958H203.483V191.029C203.483 192.058 203.87 192.479 204.811 192.479C205.101 192.479 205.268 192.471 205.531 192.444V193.965C205.224 194.018 204.872 194.062 204.503 194.062ZM208.388 182.75C207.729 182.75 207.193 182.214 207.193 181.563C207.193 180.904 207.729 180.368 208.388 180.368C209.038 180.368 209.583 180.904 209.583 181.563C209.583 182.214 209.038 182.75 208.388 182.75ZM207.43 194V184.455H209.329V194H207.43ZM215.789 194.185C212.985 194.185 211.271 192.312 211.271 189.236V189.219C211.271 186.151 212.994 184.271 215.789 184.271C218.575 184.271 220.298 186.143 220.298 189.219V189.236C220.298 192.312 218.584 194.185 215.789 194.185ZM215.789 192.594C217.424 192.594 218.355 191.346 218.355 189.236V189.219C218.355 187.101 217.424 185.861 215.789 185.861C214.145 185.861 213.222 187.101 213.222 189.219V189.236C213.222 191.354 214.145 192.594 215.789 192.594ZM222.214 194V184.455H224.121V185.905H224.262C224.728 184.886 225.642 184.271 227.03 184.271C229.166 184.271 230.344 185.545 230.344 187.821V194H228.445V188.27C228.445 186.688 227.786 185.905 226.389 185.905C224.991 185.905 224.121 186.863 224.121 188.401V194H222.214Z" fill="url(#paint0_linear_10_13)"/>
</g>
<defs>
<linearGradient id="paint0_linear_10_13" x1="143" y1="198" x2="232" y2="198" gradientUnits="userSpaceOnUse">
<stop stop-color="#FF6000" stop-opacity="0"/>
<stop offset="0.192708" stop-color="#FF6000" stop-opacity="0.216495"/>
<stop offset="0.291667" stop-color="#FF6000"/>
<stop offset="0.489583" stop-color="#FF6000" stop-opacity="0.284211"/>
<stop offset="0.677083" stop-color="#FF6000" stop-opacity="0"/>
</linearGradient>
<clipPath id="clip0_10_13">
<rect width="89" height="21" fill="white" transform="translate(143 177)"/>
</clipPath>
</defs>
</svg>
