<svg width="370" height="390" viewBox="-30 -30 450 450" fill="none" xmlns="http://www.w3.org/2000/svg">
<path className='line' d="M342.5 183.291C342.5 204.744 338.127 218.211 330.299 228.103C322.453 238.016 311.093 244.401 296.948 251.598C295.216 252.479 293.444 253.372 291.632 254.285C263.863 268.272 226.946 286.867 186.605 338.853C165.207 366.428 144.891 375.73 126.5 373.062C108.065 370.389 91.352 355.667 77.2399 334.691C49.0255 292.754 31.5 226.243 31.5 183.291C31.5 97.5319 108.257 34.7245 187.043 27.9214C226.354 24.527 265.216 41.8947 294.262 70.8727C323.308 99.8494 342.5 140.398 342.5 183.291Z" stroke="black"/>
<path className='line' d="M338.556 187.23C349.624 208.621 350.915 228.736 345.35 246.885C339.781 265.046 327.332 281.282 310.85 294.864C277.875 322.036 228.865 338.5 187 338.5C103.335 338.5 35.5 267.73 35.5 187C35.5 106.27 103.335 35.5 187 35.5C228.803 35.5 255.541 51.9156 277.403 79.0636C294.751 100.606 309.01 128.878 325.257 161.093C329.522 169.55 333.924 178.279 338.556 187.23Z" stroke="black"/>
<path className='line' d="M367.5 180.575C367.5 205.386 357.834 232.52 342.893 258.421C327.955 284.316 307.766 308.939 286.776 328.718C265.778 348.504 244.013 363.411 225.933 369.913C216.891 373.165 208.819 374.297 202.243 372.933C195.696 371.575 190.594 367.737 187.454 360.94C180.976 346.917 166.344 334.858 148.169 323.115C139.071 317.237 129.062 311.424 118.708 305.477C117.453 304.756 116.194 304.034 114.93 303.309C105.76 298.048 96.3739 292.664 87.1424 287.013C45.0914 261.271 6.5 230.139 6.5 180.575C6.5 130.901 34.4667 85.8825 71.062 53.2623C107.665 20.6351 152.802 0.499918 187 0.5C221.198 0.500082 266.335 20.6353 302.938 53.2625C339.533 85.8826 367.5 130.901 367.5 180.575Z" stroke="black"/>
<path className='line' d="M365.5 187C365.5 279.994 288.273 359.5 193.017 359.5C145.375 359.5 83.5156 336.472 42.9307 303.375C22.6395 286.828 7.72115 267.808 2.51606 247.95C-2.67909 228.13 1.78213 207.403 20.4012 187.34C39.1562 167.131 53.3781 146.2 65.6509 126.184C70.5679 118.165 75.166 110.304 79.616 102.696C86.2861 91.2915 92.6233 80.4567 99.2026 70.513C110.159 53.9543 121.731 39.9586 136.494 30.0984C151.248 20.2452 169.221 14.5 193.017 14.5C288.273 14.5 365.5 94.0064 365.5 187Z" stroke="black"/>
<path d="M144.955 194V181.317H149.956C152.557 181.317 154.175 182.829 154.175 185.185V185.202C154.175 186.907 153.261 188.296 151.714 188.814L154.561 194H152.285L149.701 189.122H146.924V194H144.955ZM146.924 187.522H149.763C151.274 187.522 152.153 186.696 152.153 185.255V185.237C152.153 183.831 151.222 182.97 149.701 182.97H146.924V187.522ZM160.125 194.185C157.33 194.185 155.643 192.277 155.643 189.254V189.245C155.643 186.266 157.365 184.271 160.029 184.271C162.692 184.271 164.326 186.195 164.326 189.061V189.729H157.559C157.594 191.557 158.596 192.62 160.169 192.62C161.391 192.62 162.12 192.014 162.349 191.521L162.384 191.451L164.221 191.442L164.203 191.521C163.887 192.778 162.569 194.185 160.125 194.185ZM160.037 185.835C158.737 185.835 157.752 186.723 157.585 188.366H162.437C162.287 186.661 161.329 185.835 160.037 185.835ZM166.322 194V180.711H168.229V194H166.322ZM174.751 194.185C171.947 194.185 170.233 192.312 170.233 189.236V189.219C170.233 186.151 171.956 184.271 174.751 184.271C177.537 184.271 179.26 186.143 179.26 189.219V189.236C179.26 192.312 177.546 194.185 174.751 194.185ZM174.751 192.594C176.386 192.594 177.317 191.346 177.317 189.236V189.219C177.317 187.101 176.386 185.861 174.751 185.861C173.107 185.861 172.185 187.101 172.185 189.219V189.236C172.185 191.354 173.107 192.594 174.751 192.594ZM185.193 194.185C182.407 194.185 180.701 192.286 180.701 189.201V189.184C180.701 186.16 182.398 184.271 185.184 184.271C187.583 184.271 189.016 185.624 189.28 187.479V187.522L187.451 187.531L187.443 187.505C187.232 186.564 186.458 185.861 185.193 185.861C183.602 185.861 182.644 187.127 182.644 189.184V189.201C182.644 191.311 183.619 192.594 185.193 192.594C186.388 192.594 187.126 192.049 187.434 191.021L187.451 190.977H189.28L189.262 191.056C188.919 192.91 187.557 194.185 185.193 194.185ZM193.701 194.158C191.882 194.158 190.537 193.051 190.537 191.319V191.302C190.537 189.597 191.82 188.604 194.096 188.463L196.68 188.313V187.47C196.68 186.424 196.021 185.844 194.729 185.844C193.674 185.844 192.98 186.23 192.752 186.907L192.743 186.942H190.906L190.915 186.881C191.143 185.316 192.646 184.271 194.817 184.271C197.216 184.271 198.57 185.466 198.57 187.47V194H196.68V192.646H196.531C195.968 193.613 194.966 194.158 193.701 194.158ZM192.435 191.24C192.435 192.119 193.182 192.638 194.211 192.638C195.634 192.638 196.68 191.706 196.68 190.476V189.658L194.351 189.808C193.033 189.887 192.435 190.361 192.435 191.223V191.24ZM204.503 194.062C202.402 194.062 201.541 193.323 201.541 191.486V185.958H200.047V184.455H201.541V182.047H203.483V184.455H205.531V185.958H203.483V191.029C203.483 192.058 203.87 192.479 204.811 192.479C205.101 192.479 205.268 192.471 205.531 192.444V193.965C205.224 194.018 204.872 194.062 204.503 194.062ZM208.388 182.75C207.729 182.75 207.193 182.214 207.193 181.563C207.193 180.904 207.729 180.368 208.388 180.368C209.038 180.368 209.583 180.904 209.583 181.563C209.583 182.214 209.038 182.75 208.388 182.75ZM207.43 194V184.455H209.329V194H207.43ZM215.789 194.185C212.985 194.185 211.271 192.312 211.271 189.236V189.219C211.271 186.151 212.994 184.271 215.789 184.271C218.575 184.271 220.298 186.143 220.298 189.219V189.236C220.298 192.312 218.584 194.185 215.789 194.185ZM215.789 192.594C217.424 192.594 218.355 191.346 218.355 189.236V189.219C218.355 187.101 217.424 185.861 215.789 185.861C214.145 185.861 213.222 187.101 213.222 189.219V189.236C213.222 191.354 214.145 192.594 215.789 192.594ZM222.214 194V184.455H224.121V185.905H224.262C224.728 184.886 225.642 184.271 227.03 184.271C229.166 184.271 230.344 185.545 230.344 187.821V194H228.445V188.27C228.445 186.688 227.786 185.905 226.389 185.905C224.991 185.905 224.121 186.863 224.121 188.401V194H222.214Z" fill="#030202"/>
<g clip-path="url(#clip0_10_23)">
<path d="M144.955 194V181.317H149.956C152.557 181.317 154.175 182.829 154.175 185.185V185.202C154.175 186.907 153.261 188.296 151.714 188.814L154.561 194H152.285L149.701 189.122H146.924V194H144.955ZM146.924 187.522H149.763C151.274 187.522 152.153 186.696 152.153 185.255V185.237C152.153 183.831 151.222 182.97 149.701 182.97H146.924V187.522ZM160.125 194.185C157.33 194.185 155.643 192.277 155.643 189.254V189.245C155.643 186.266 157.365 184.271 160.029 184.271C162.692 184.271 164.326 186.195 164.326 189.061V189.729H157.559C157.594 191.557 158.596 192.62 160.169 192.62C161.391 192.62 162.12 192.014 162.349 191.521L162.384 191.451L164.221 191.442L164.203 191.521C163.887 192.778 162.569 194.185 160.125 194.185ZM160.037 185.835C158.737 185.835 157.752 186.723 157.585 188.366H162.437C162.287 186.661 161.329 185.835 160.037 185.835ZM166.322 194V180.711H168.229V194H166.322ZM174.751 194.185C171.947 194.185 170.233 192.312 170.233 189.236V189.219C170.233 186.151 171.956 184.271 174.751 184.271C177.537 184.271 179.26 186.143 179.26 189.219V189.236C179.26 192.312 177.546 194.185 174.751 194.185ZM174.751 192.594C176.386 192.594 177.317 191.346 177.317 189.236V189.219C177.317 187.101 176.386 185.861 174.751 185.861C173.107 185.861 172.185 187.101 172.185 189.219V189.236C172.185 191.354 173.107 192.594 174.751 192.594ZM185.193 194.185C182.407 194.185 180.701 192.286 180.701 189.201V189.184C180.701 186.16 182.398 184.271 185.184 184.271C187.583 184.271 189.016 185.624 189.28 187.479V187.522L187.451 187.531L187.443 187.505C187.232 186.564 186.458 185.861 185.193 185.861C183.602 185.861 182.644 187.127 182.644 189.184V189.201C182.644 191.311 183.619 192.594 185.193 192.594C186.388 192.594 187.126 192.049 187.434 191.021L187.451 190.977H189.28L189.262 191.056C188.919 192.91 187.557 194.185 185.193 194.185ZM193.701 194.158C191.882 194.158 190.537 193.051 190.537 191.319V191.302C190.537 189.597 191.82 188.604 194.096 188.463L196.68 188.313V187.47C196.68 186.424 196.021 185.844 194.729 185.844C193.674 185.844 192.98 186.23 192.752 186.907L192.743 186.942H190.906L190.915 186.881C191.143 185.316 192.646 184.271 194.817 184.271C197.216 184.271 198.57 185.466 198.57 187.47V194H196.68V192.646H196.531C195.968 193.613 194.966 194.158 193.701 194.158ZM192.435 191.24C192.435 192.119 193.182 192.638 194.211 192.638C195.634 192.638 196.68 191.706 196.68 190.476V189.658L194.351 189.808C193.033 189.887 192.435 190.361 192.435 191.223V191.24ZM204.503 194.062C202.402 194.062 201.541 193.323 201.541 191.486V185.958H200.047V184.455H201.541V182.047H203.483V184.455H205.531V185.958H203.483V191.029C203.483 192.058 203.87 192.479 204.811 192.479C205.101 192.479 205.268 192.471 205.531 192.444V193.965C205.224 194.018 204.872 194.062 204.503 194.062ZM208.388 182.75C207.729 182.75 207.193 182.214 207.193 181.563C207.193 180.904 207.729 180.368 208.388 180.368C209.038 180.368 209.583 180.904 209.583 181.563C209.583 182.214 209.038 182.75 208.388 182.75ZM207.43 194V184.455H209.329V194H207.43ZM215.789 194.185C212.985 194.185 211.271 192.312 211.271 189.236V189.219C211.271 186.151 212.994 184.271 215.789 184.271C218.575 184.271 220.298 186.143 220.298 189.219V189.236C220.298 192.312 218.584 194.185 215.789 194.185ZM215.789 192.594C217.424 192.594 218.355 191.346 218.355 189.236V189.219C218.355 187.101 217.424 185.861 215.789 185.861C214.145 185.861 213.222 187.101 213.222 189.219V189.236C213.222 191.354 214.145 192.594 215.789 192.594ZM222.214 194V184.455H224.121V185.905H224.262C224.728 184.886 225.642 184.271 227.03 184.271C229.166 184.271 230.344 185.545 230.344 187.821V194H228.445V188.27C228.445 186.688 227.786 185.905 226.389 185.905C224.991 185.905 224.121 186.863 224.121 188.401V194H222.214Z" fill="url(#paint0_linear_10_23)"/>
</g>
<defs>
<linearGradient id="paint0_linear_10_23" x1="143" y1="198" x2="232" y2="198" gradientUnits="userSpaceOnUse">
<stop offset="0.195302" stop-color="#FF6000" stop-opacity="0"/>
<stop offset="0.387201" stop-color="#FF6000" stop-opacity="0.216495"/>
<stop offset="0.561548" stop-color="#FF6000"/>
<stop offset="0.78394" stop-color="#FF6000" stop-opacity="0.284211"/>
<stop offset="0.911022" stop-color="#FF6000" stop-opacity="0"/>
</linearGradient>
<clipPath id="clip0_10_23">
<rect width="89" height="21" fill="white" transform="translate(143 177)"/>
</clipPath>
</defs>
</svg>
