<svg width="18" height="18" viewBox="0 0 18 18" fill="none" xmlns="http://www.w3.org/2000/svg">
<path fill-rule="evenodd" clip-rule="evenodd" d="M10.0874 3.66014H12.3899C15.1574 3.66014 16.5074 5.13764 16.4999 8.16764V11.8201C16.4999 14.7151 14.7149 16.5001 11.8124 16.5001H6.17992C3.29242 16.5001 1.49992 14.7151 1.49992 11.8126V6.18014C1.49992 3.07514 2.87992 1.50014 5.60242 1.50014H6.78742C7.48567 1.49264 8.13742 1.81514 8.56492 2.36264L9.22492 3.24014C9.43492 3.50264 9.74992 3.66014 10.0874 3.66014ZM5.52742 11.4676H12.4724C12.7799 11.4676 13.0274 11.2126 13.0274 10.9051C13.0274 10.5901 12.7799 10.3426 12.4724 10.3426H5.52742C5.21242 10.3426 4.96492 10.5901 4.96492 10.9051C4.96492 11.2126 5.21242 11.4676 5.52742 11.4676Z" fill="#151824"/>
</svg>
