<svg width="24" height="25" viewBox="0 0 24 25" fill="none" xmlns="http://www.w3.org/2000/svg">
<path fill-rule="evenodd" clip-rule="evenodd" d="M14.2124 8.26241C14.2124 10.9062 12.0489 13.0248 9.34933 13.0248C6.6507 13.0248 4.48631 10.9062 4.48631 8.26241C4.48631 5.61865 6.6507 3.5 9.34933 3.5C12.0489 3.5 14.2124 5.61865 14.2124 8.26241ZM2 18.4174C2 15.97 5.38553 15.3577 9.34933 15.3577C13.3347 15.3577 16.6987 15.9911 16.6987 18.4404C16.6987 20.8877 13.3131 21.5 9.34933 21.5C5.364 21.5 2 20.8666 2 18.4174ZM16.1734 8.34875C16.1734 9.69506 15.7605 10.9513 15.0364 11.9948C14.9611 12.1021 15.0276 12.2468 15.1587 12.2698C15.3407 12.2995 15.5276 12.3177 15.7184 12.3216C17.6167 12.3704 19.3202 11.1736 19.7908 9.37118C20.4885 6.69676 18.4415 4.29543 15.8339 4.29543C15.5511 4.29543 15.2801 4.32418 15.0159 4.37688C14.9797 4.38454 14.9405 4.40179 14.921 4.43246C14.8955 4.47174 14.9141 4.52253 14.9396 4.55607C15.7233 5.63216 16.1734 6.94206 16.1734 8.34875ZM19.3173 14.2023C20.5932 14.4466 21.4317 14.944 21.7791 15.6694C22.0736 16.2635 22.0736 16.9534 21.7791 17.5475C21.2478 18.6705 19.5335 19.0318 18.8672 19.1247C18.7292 19.1439 18.6186 19.0289 18.6333 18.8928C18.9738 15.7805 16.2664 14.3048 15.5658 13.9656C15.5364 13.9493 15.5296 13.9263 15.5325 13.911C15.5345 13.9014 15.5472 13.8861 15.5697 13.8832C17.0854 13.8545 18.7155 14.0586 19.3173 14.2023Z" fill="#6470FF"/>
</svg>
