<svg width="24" height="25" viewBox="0 0 24 25" fill="none" xmlns="http://www.w3.org/2000/svg">
<path fill-rule="evenodd" clip-rule="evenodd" d="M9.5915 15.7068C13.2805 15.7068 16.4335 16.2658 16.4335 18.4988C16.4335 20.7318 13.3015 21.3068 9.5915 21.3068C5.9015 21.3068 2.7495 20.7528 2.7495 18.5188C2.7495 16.2848 5.8805 15.7068 9.5915 15.7068Z" stroke="#75777E" stroke-width="1.5" stroke-linecap="round" stroke-linejoin="round"/>
<path opacity="0.4" fill-rule="evenodd" clip-rule="evenodd" d="M9.59149 12.5198C7.16949 12.5198 5.20549 10.5568 5.20549 8.13476C5.20549 5.71276 7.16949 3.74976 9.59149 3.74976C12.0125 3.74976 13.9765 5.71276 13.9765 8.13476C13.9855 10.5478 12.0355 12.5108 9.62249 12.5198H9.59149Z" stroke="#75777E" stroke-width="1.5" stroke-linecap="round" stroke-linejoin="round"/>
<path opacity="0.4" d="M16.4831 11.3815C18.0841 11.1565 19.3171 9.78253 19.3201 8.11953C19.3201 6.48053 18.1251 5.12053 16.5581 4.86353" stroke="#75777E" stroke-width="1.5" stroke-linecap="round" stroke-linejoin="round"/>
<path d="M18.5954 15.2322C20.1464 15.4632 21.2294 16.0072 21.2294 17.1272C21.2294 17.8982 20.7194 18.3982 19.8954 18.7112" stroke="#75777E" stroke-width="1.5" stroke-linecap="round" stroke-linejoin="round"/>
</svg>
