<svg width="24" height="25" viewBox="0 0 24 25" fill="none" xmlns="http://www.w3.org/2000/svg">
<path fill-rule="evenodd" clip-rule="evenodd" d="M15.164 6.58252C15.4791 6.58684 15.7949 6.59117 16.1119 6.59441C19.5172 6.59441 22 9.02216 22 12.3748V16.6811C22 20.0337 19.5172 22.4615 16.1119 22.4615C14.7478 22.4904 13.3837 22.5 12.0098 22.5C10.6359 22.5 9.25221 22.4904 7.88813 22.4615C4.48283 22.4615 2 20.0337 2 16.6811V12.3748C2 9.02216 4.48283 6.59441 7.89794 6.59441C9.18351 6.57514 10.4985 6.55588 11.8332 6.55588V6.3921C11.8332 5.72736 11.2738 5.18786 10.6065 5.18786H9.63494C8.52601 5.18786 7.62316 4.30154 7.62316 3.22254C7.62316 2.82755 7.95682 2.5 8.35918 2.5C8.77134 2.5 9.09519 2.82755 9.09519 3.22254C9.09519 3.51156 9.34053 3.74277 9.63494 3.74277H10.6065C12.0883 3.75241 13.2954 4.93738 13.3052 6.38247V6.56551C13.9239 6.56551 14.5425 6.574 15.164 6.58252ZM10.8518 15.2457H9.82139V16.2669C9.82139 16.6618 9.48773 16.9894 9.08538 16.9894C8.67321 16.9894 8.34936 16.6618 8.34936 16.2669V15.2457H7.30913C6.90677 15.2457 6.57311 14.9277 6.57311 14.5231C6.57311 14.1281 6.90677 13.8006 7.30913 13.8006H8.34936V12.789C8.34936 12.394 8.67321 12.0665 9.08538 12.0665C9.48773 12.0665 9.82139 12.394 9.82139 12.789V13.8006H10.8518C11.2542 13.8006 11.5878 14.1281 11.5878 14.5231C11.5878 14.9277 11.2542 15.2457 10.8518 15.2457ZM15.0226 13.6175H15.1207C15.5231 13.6175 15.8567 13.2996 15.8567 12.895C15.8567 12.5 15.5231 12.1724 15.1207 12.1724H15.0226C14.6104 12.1724 14.2866 12.5 14.2866 12.895C14.2866 13.2996 14.6104 13.6175 15.0226 13.6175ZM16.7007 16.9316H16.7988C17.2012 16.9316 17.5348 16.6137 17.5348 16.2091C17.5348 15.8141 17.2012 15.4865 16.7988 15.4865H16.7007C16.2875 15.4865 15.9647 15.8141 15.9647 16.2091C15.9647 16.6137 16.2875 16.9316 16.7007 16.9316Z" fill="#6470FF"/>
</svg>
