<svg width="220" height="220" viewBox="-30 -30 260 260" fill="none" xmlns="http://www.w3.org/2000/svg">
<path className='line' d="M213.694 109.831C200.114 147.592 188.612 175.007 173.436 192.99C158.3 210.925 139.488 219.5 111.176 219.5C83.0002 219.5 65.9271 202.064 51.5886 179.544C46.4098 171.41 41.6038 162.64 36.7633 153.806C34.8996 150.405 33.0308 146.994 31.1336 143.607C24.3175 131.438 17.1437 119.588 8.56526 109.673C0.154955 99.9516 -1.22832 88.3254 2.34294 76.2907C5.9202 64.2357 14.4684 51.7903 25.8877 40.5437C48.7363 18.0407 82.9078 0.5 111.176 0.5C139.535 0.5 171.947 9.10456 193.865 27.0742C204.816 36.0531 213.139 47.3614 217.045 61.0977C220.95 74.8324 220.453 91.037 213.694 109.831Z" stroke="#C6C6C6"/>
<path className='line' d="M213.5 110C213.5 138.646 205.642 169.774 188.795 191.104C180.377 201.763 169.721 209.968 156.681 214.211C143.643 218.454 128.184 218.747 110.139 213.52C73.9061 203.025 48.0045 191.411 31.158 175.303C14.3402 159.222 6.5 138.615 6.5 110C6.5 81.4253 16.3128 62.3142 34.1388 46.965C52.0056 31.5805 77.9281 19.9677 110.193 6.46136C126.221 -0.247886 140.662 -0.698916 153.312 3.25947C165.969 7.22021 176.876 15.6093 185.799 26.6503C203.653 48.7425 213.5 81.3761 213.5 110Z" stroke="#C6C6C6"/>
<path className='line' d="M195.531 109.826C183.777 141.588 174.18 162.993 161.633 176.472C149.129 189.903 133.655 195.5 110 195.5C86.326 195.5 59.5702 188.767 41.4324 174.73C32.3706 167.716 25.4734 158.891 22.1658 148.181C18.8591 137.473 19.1257 124.836 24.4698 110.171C35.2214 80.6668 44.8197 59.2553 57.6209 45.2118C70.3853 31.2086 86.3664 24.5 110 24.5C133.693 24.5 160.947 30.1157 179.328 43.5907C188.509 50.3212 195.463 59.0014 198.676 69.9147C201.889 80.8282 201.378 94.0284 195.531 109.826Z" stroke="#C6C6C6"/>
<path className='line' d="M186.553 110.224C193.514 124.146 194.823 135.832 192.278 145.529C189.732 155.229 183.309 163.014 174.66 169.091C157.342 181.259 131.207 186.5 110 186.5C99.4152 186.5 91.2696 184.975 84.5248 181.897C77.784 178.82 72.4063 174.175 67.3811 167.876C62.3496 161.569 57.6823 153.618 52.3563 143.939C50.8586 141.217 49.3091 138.359 47.6854 135.364C43.541 127.719 38.9135 119.184 33.4323 109.749C25.8556 96.7071 24.2415 85.4666 26.6682 75.9438C29.097 66.4129 35.5949 58.5184 44.4059 52.2192C62.0427 39.6104 88.8054 33.5 110 33.5C120.593 33.5 128.902 34.8082 135.847 37.6197C142.785 40.4285 148.393 44.75 153.567 50.8242C158.747 56.9065 163.49 64.7424 168.694 74.5776C172.153 81.1135 175.806 88.5145 179.924 96.8554C182.004 101.068 184.202 105.521 186.553 110.224Z" stroke="#C6C6C6"/>
<path d="M87.3137 107V94.3174H89.2825V99.6787H95.7952V94.3174H97.7552V107H95.7952V101.384H89.2825V107H87.3137ZM104.4 107.185C101.596 107.185 99.8825 105.312 99.8825 102.236V102.219C99.8825 99.1514 101.605 97.2705 104.4 97.2705C107.186 97.2705 108.909 99.1426 108.909 102.219V102.236C108.909 105.312 107.195 107.185 104.4 107.185ZM104.4 105.594C106.035 105.594 106.966 104.346 106.966 102.236V102.219C106.966 100.101 106.035 98.8613 104.4 98.8613C102.756 98.8613 101.834 100.101 101.834 102.219V102.236C101.834 104.354 102.756 105.594 104.4 105.594ZM110.825 107V97.4551H112.732V98.9229H112.873C113.295 97.877 114.227 97.2705 115.475 97.2705C116.775 97.2705 117.698 97.9473 118.12 98.9756H118.27C118.753 97.9473 119.852 97.2705 121.179 97.2705C123.104 97.2705 124.229 98.4307 124.229 100.417V107H122.33V100.874C122.33 99.5557 121.732 98.9053 120.484 98.9053C119.271 98.9053 118.472 99.8105 118.472 100.962V107H116.573V100.681C116.573 99.5908 115.861 98.9053 114.736 98.9053C113.585 98.9053 112.732 99.8896 112.732 101.138V107H110.825ZM130.539 107.185C127.744 107.185 126.057 105.277 126.057 102.254V102.245C126.057 99.2656 127.78 97.2705 130.443 97.2705C133.106 97.2705 134.741 99.1953 134.741 102.061V102.729H127.973C128.008 104.557 129.01 105.62 130.583 105.62C131.805 105.62 132.535 105.014 132.763 104.521L132.798 104.451L134.635 104.442L134.618 104.521C134.301 105.778 132.983 107.185 130.539 107.185ZM130.452 98.835C129.151 98.835 128.166 99.7227 127.999 101.366H132.851C132.702 99.6611 131.744 98.835 130.452 98.835ZM81.1786 128V115.317H89.0976V117.014H83.1474V121.03H88.5966V122.691H83.1474V128H81.1786ZM92.0686 116.75C91.4095 116.75 90.8733 116.214 90.8733 115.563C90.8733 114.904 91.4095 114.368 92.0686 114.368C92.719 114.368 93.2639 114.904 93.2639 115.563C93.2639 116.214 92.719 116.75 92.0686 116.75ZM91.1106 128V118.455H93.0091V128H91.1106ZM95.4264 128V118.455H97.3336V119.905H97.4743C97.9401 118.886 98.8541 118.271 100.243 118.271C102.379 118.271 103.556 119.545 103.556 121.821V128H101.658V122.27C101.658 120.688 100.999 119.905 99.6012 119.905C98.2038 119.905 97.3336 120.863 97.3336 122.401V128H95.4264ZM109.34 128.158C106.94 128.158 105.385 126.233 105.385 123.236V123.219C105.385 120.195 106.914 118.288 109.34 118.288C110.649 118.288 111.766 118.938 112.275 119.967H112.425V114.711H114.323V128H112.425V126.497H112.275C111.722 127.543 110.676 128.158 109.34 128.158ZM109.885 126.532C111.476 126.532 112.451 125.275 112.451 123.236V123.219C112.451 121.18 111.467 119.923 109.885 119.923C108.285 119.923 107.327 121.171 107.327 123.219V123.236C107.327 125.284 108.285 126.532 109.885 126.532ZM117.795 116.75C117.136 116.75 116.6 116.214 116.6 115.563C116.6 114.904 117.136 114.368 117.795 114.368C118.446 114.368 118.991 114.904 118.991 115.563C118.991 116.214 118.446 116.75 117.795 116.75ZM116.837 128V118.455H118.736V128H116.837ZM121.153 128V118.455H123.06V119.905H123.201C123.667 118.886 124.581 118.271 125.969 118.271C128.105 118.271 129.283 119.545 129.283 121.821V128H127.384V122.27C127.384 120.688 126.725 119.905 125.328 119.905C123.93 119.905 123.06 120.863 123.06 122.401V128H121.153ZM135.62 131.366C133.194 131.366 131.7 130.303 131.472 128.712L131.489 128.694H133.414L133.423 128.712C133.581 129.371 134.355 129.837 135.647 129.837C137.22 129.837 138.151 129.099 138.151 127.798V125.917H138.011C137.431 126.954 136.376 127.534 135.066 127.534C132.614 127.534 131.103 125.645 131.103 122.955V122.938C131.103 120.213 132.623 118.288 135.102 118.288C136.438 118.288 137.475 118.947 138.028 120.02H138.143V118.455H140.041V127.807C140.041 129.978 138.327 131.366 135.62 131.366ZM135.594 125.961C137.211 125.961 138.187 124.73 138.187 122.946V122.929C138.187 121.153 137.202 119.905 135.594 119.905C133.968 119.905 133.054 121.153 133.054 122.929V122.946C133.054 124.722 133.968 125.961 135.594 125.961Z" fill="black"/>
<path d="M87.3137 107V94.3174H89.2825V99.6787H95.7952V94.3174H97.7552V107H95.7952V101.384H89.2825V107H87.3137ZM104.4 107.185C101.596 107.185 99.8825 105.312 99.8825 102.236V102.219C99.8825 99.1514 101.605 97.2705 104.4 97.2705C107.186 97.2705 108.909 99.1426 108.909 102.219V102.236C108.909 105.312 107.195 107.185 104.4 107.185ZM104.4 105.594C106.035 105.594 106.966 104.346 106.966 102.236V102.219C106.966 100.101 106.035 98.8613 104.4 98.8613C102.756 98.8613 101.834 100.101 101.834 102.219V102.236C101.834 104.354 102.756 105.594 104.4 105.594ZM110.825 107V97.4551H112.732V98.9229H112.873C113.295 97.877 114.227 97.2705 115.475 97.2705C116.775 97.2705 117.698 97.9473 118.12 98.9756H118.27C118.753 97.9473 119.852 97.2705 121.179 97.2705C123.104 97.2705 124.229 98.4307 124.229 100.417V107H122.33V100.874C122.33 99.5557 121.732 98.9053 120.484 98.9053C119.271 98.9053 118.472 99.8105 118.472 100.962V107H116.573V100.681C116.573 99.5908 115.861 98.9053 114.736 98.9053C113.585 98.9053 112.732 99.8896 112.732 101.138V107H110.825ZM130.539 107.185C127.744 107.185 126.057 105.277 126.057 102.254V102.245C126.057 99.2656 127.78 97.2705 130.443 97.2705C133.106 97.2705 134.741 99.1953 134.741 102.061V102.729H127.973C128.008 104.557 129.01 105.62 130.583 105.62C131.805 105.62 132.535 105.014 132.763 104.521L132.798 104.451L134.635 104.442L134.618 104.521C134.301 105.778 132.983 107.185 130.539 107.185ZM130.452 98.835C129.151 98.835 128.166 99.7227 127.999 101.366H132.851C132.702 99.6611 131.744 98.835 130.452 98.835ZM81.1786 128V115.317H89.0976V117.014H83.1474V121.03H88.5966V122.691H83.1474V128H81.1786ZM92.0686 116.75C91.4095 116.75 90.8733 116.214 90.8733 115.563C90.8733 114.904 91.4095 114.368 92.0686 114.368C92.719 114.368 93.2639 114.904 93.2639 115.563C93.2639 116.214 92.719 116.75 92.0686 116.75ZM91.1106 128V118.455H93.0091V128H91.1106ZM95.4264 128V118.455H97.3336V119.905H97.4743C97.9401 118.886 98.8541 118.271 100.243 118.271C102.379 118.271 103.556 119.545 103.556 121.821V128H101.658V122.27C101.658 120.688 100.999 119.905 99.6012 119.905C98.2038 119.905 97.3336 120.863 97.3336 122.401V128H95.4264ZM109.34 128.158C106.94 128.158 105.385 126.233 105.385 123.236V123.219C105.385 120.195 106.914 118.288 109.34 118.288C110.649 118.288 111.766 118.938 112.275 119.967H112.425V114.711H114.323V128H112.425V126.497H112.275C111.722 127.543 110.676 128.158 109.34 128.158ZM109.885 126.532C111.476 126.532 112.451 125.275 112.451 123.236V123.219C112.451 121.18 111.467 119.923 109.885 119.923C108.285 119.923 107.327 121.171 107.327 123.219V123.236C107.327 125.284 108.285 126.532 109.885 126.532ZM117.795 116.75C117.136 116.75 116.6 116.214 116.6 115.563C116.6 114.904 117.136 114.368 117.795 114.368C118.446 114.368 118.991 114.904 118.991 115.563C118.991 116.214 118.446 116.75 117.795 116.75ZM116.837 128V118.455H118.736V128H116.837ZM121.153 128V118.455H123.06V119.905H123.201C123.667 118.886 124.581 118.271 125.969 118.271C128.105 118.271 129.283 119.545 129.283 121.821V128H127.384V122.27C127.384 120.688 126.725 119.905 125.328 119.905C123.93 119.905 123.06 120.863 123.06 122.401V128H121.153ZM135.62 131.366C133.194 131.366 131.7 130.303 131.472 128.712L131.489 128.694H133.414L133.423 128.712C133.581 129.371 134.355 129.837 135.647 129.837C137.22 129.837 138.151 129.099 138.151 127.798V125.917H138.011C137.431 126.954 136.376 127.534 135.066 127.534C132.614 127.534 131.103 125.645 131.103 122.955V122.938C131.103 120.213 132.623 118.288 135.102 118.288C136.438 118.288 137.475 118.947 138.028 120.02H138.143V118.455H140.041V127.807C140.041 129.978 138.327 131.366 135.62 131.366ZM135.594 125.961C137.211 125.961 138.187 124.73 138.187 122.946V122.929C138.187 121.153 137.202 119.905 135.594 119.905C133.968 119.905 133.054 121.153 133.054 122.929V122.946C133.054 124.722 133.968 125.961 135.594 125.961Z" fill="url(#paint0_linear_47_183)"/>
<defs>
<linearGradient id="paint0_linear_47_183" x1="80" y1="133" x2="155" y2="133" gradientUnits="userSpaceOnUse">
<stop stop-color="#FF6000" stop-opacity="0"/>
<stop offset="0.119501" stop-color="#FF6000" stop-opacity="0.208333"/>
<stop offset="0.243041" stop-color="#FF6000"/>
<stop offset="0.381708" stop-color="#FF6000" stop-opacity="0.197917"/>
<stop offset="0.490121" stop-color="#FF6000" stop-opacity="0"/>
</linearGradient>
</defs>
</svg>
