<svg width="220" height="220" viewBox="-30 -30 260 260" fill="none" xmlns="http://www.w3.org/2000/svg">
<path className='line' d="M219.577 113.342C211.856 143.56 199.6 170.105 181.748 189.089C163.909 208.06 140.465 219.5 110.298 219.5C80.1889 219.5 54.7453 202.302 35.8689 180.389C16.9919 158.475 4.7483 131.919 1.02474 113.367C-0.809336 104.23 2.26568 94.9558 8.69458 85.6638C15.124 76.371 24.8713 67.1153 36.2695 58.0474C51.4179 45.996 69.4073 34.3309 86.2995 23.3773C94.844 17.8366 103.108 12.478 110.581 7.34343C121.529 -0.178218 134.744 -1.12353 148.221 2.67611C161.704 6.47732 175.417 15.0218 187.285 26.4198C211.041 49.2358 227.248 83.3215 219.577 113.342Z" stroke="#C6C6C6"/>
<path className='line' d="M213.517 110.13C221.469 139.703 212.274 171.78 192.754 193.352C173.249 214.907 143.459 225.951 110.175 213.532C101.794 210.405 93.664 207.567 85.8851 204.855L85.4765 204.713C77.8443 202.052 70.5544 199.511 63.6914 196.931C49.7157 191.676 37.5474 186.272 27.915 179.405C18.293 172.546 11.2128 164.234 7.39441 153.157C3.57284 142.072 3.00111 128.167 6.49089 110.095C13.476 73.9226 26.8097 50.0328 44.6446 34.1864C62.4839 18.3361 84.8794 10.4858 110.078 6.49395C135.112 2.52828 156.954 13.5433 174.567 33.023C192.185 52.5095 205.531 80.43 213.517 110.13Z" stroke="#C6C6C6"/>
<path className='line' d="M195.7 110.4C201.434 114.7 202.096 122.031 198.897 130.861C195.703 139.677 188.706 149.806 179.451 159.403C170.202 168.995 158.726 178.025 146.61 184.655C134.49 191.288 121.762 195.5 110 195.5C86.4294 195.5 65.68 183.465 50.4966 166.727C35.3093 149.984 25.7401 128.587 24.4989 109.967C23.261 91.3974 32.8019 70.0272 48.6149 53.2808C64.4213 36.5414 86.4224 24.5 110 24.5C133.47 24.5 148.839 41.2879 161.392 60.5233C165.222 66.3908 168.766 72.4478 172.196 78.3092C174.393 82.0636 176.543 85.7379 178.691 89.2307C184.167 98.136 189.616 105.837 195.7 110.4Z" stroke="#C6C6C6"/>
<path className='line' d="M186.502 109.963C184.759 133.361 176.182 152.492 162.783 165.77C149.386 179.046 131.141 186.5 110 186.5C99.4297 186.5 91.7687 184.605 85.6212 181.074C79.4705 177.542 74.7879 172.345 70.2159 165.655C67.1888 161.226 64.229 156.173 60.9267 150.536C59.2302 147.64 57.4433 144.589 55.5106 141.39C49.8257 131.98 42.9075 121.333 33.3875 109.684C23.9563 98.1429 21.4352 87.6708 23.5079 78.4613C25.5857 69.2287 32.3052 61.1495 41.595 54.4684C60.1803 41.1021 88.8236 33.5 110 33.5C152.309 33.5 189.975 63.3218 186.502 109.963Z" stroke="#C6C6C6"/>
<path d="M87.3137 107V94.3174H89.2825V99.6787H95.7952V94.3174H97.7552V107H95.7952V101.384H89.2825V107H87.3137ZM104.4 107.185C101.596 107.185 99.8825 105.312 99.8825 102.236V102.219C99.8825 99.1514 101.605 97.2705 104.4 97.2705C107.186 97.2705 108.909 99.1426 108.909 102.219V102.236C108.909 105.312 107.195 107.185 104.4 107.185ZM104.4 105.594C106.035 105.594 106.966 104.346 106.966 102.236V102.219C106.966 100.101 106.035 98.8613 104.4 98.8613C102.756 98.8613 101.834 100.101 101.834 102.219V102.236C101.834 104.354 102.756 105.594 104.4 105.594ZM110.825 107V97.4551H112.732V98.9229H112.873C113.295 97.877 114.227 97.2705 115.475 97.2705C116.775 97.2705 117.698 97.9473 118.12 98.9756H118.27C118.753 97.9473 119.852 97.2705 121.179 97.2705C123.104 97.2705 124.229 98.4307 124.229 100.417V107H122.33V100.874C122.33 99.5557 121.732 98.9053 120.484 98.9053C119.271 98.9053 118.472 99.8105 118.472 100.962V107H116.573V100.681C116.573 99.5908 115.861 98.9053 114.736 98.9053C113.585 98.9053 112.732 99.8896 112.732 101.138V107H110.825ZM130.539 107.185C127.744 107.185 126.057 105.277 126.057 102.254V102.245C126.057 99.2656 127.78 97.2705 130.443 97.2705C133.106 97.2705 134.741 99.1953 134.741 102.061V102.729H127.973C128.008 104.557 129.01 105.62 130.583 105.62C131.805 105.62 132.535 105.014 132.763 104.521L132.798 104.451L134.635 104.442L134.618 104.521C134.301 105.778 132.983 107.185 130.539 107.185ZM130.452 98.835C129.151 98.835 128.166 99.7227 127.999 101.366H132.851C132.702 99.6611 131.744 98.835 130.452 98.835ZM81.1786 128V115.317H89.0976V117.014H83.1474V121.03H88.5966V122.691H83.1474V128H81.1786ZM92.0686 116.75C91.4095 116.75 90.8733 116.214 90.8733 115.563C90.8733 114.904 91.4095 114.368 92.0686 114.368C92.719 114.368 93.2639 114.904 93.2639 115.563C93.2639 116.214 92.719 116.75 92.0686 116.75ZM91.1106 128V118.455H93.0091V128H91.1106ZM95.4264 128V118.455H97.3336V119.905H97.4743C97.9401 118.886 98.8541 118.271 100.243 118.271C102.379 118.271 103.556 119.545 103.556 121.821V128H101.658V122.27C101.658 120.688 100.999 119.905 99.6012 119.905C98.2038 119.905 97.3336 120.863 97.3336 122.401V128H95.4264ZM109.34 128.158C106.94 128.158 105.385 126.233 105.385 123.236V123.219C105.385 120.195 106.914 118.288 109.34 118.288C110.649 118.288 111.766 118.938 112.275 119.967H112.425V114.711H114.323V128H112.425V126.497H112.275C111.722 127.543 110.676 128.158 109.34 128.158ZM109.885 126.532C111.476 126.532 112.451 125.275 112.451 123.236V123.219C112.451 121.18 111.467 119.923 109.885 119.923C108.285 119.923 107.327 121.171 107.327 123.219V123.236C107.327 125.284 108.285 126.532 109.885 126.532ZM117.795 116.75C117.136 116.75 116.6 116.214 116.6 115.563C116.6 114.904 117.136 114.368 117.795 114.368C118.446 114.368 118.991 114.904 118.991 115.563C118.991 116.214 118.446 116.75 117.795 116.75ZM116.837 128V118.455H118.736V128H116.837ZM121.153 128V118.455H123.06V119.905H123.201C123.667 118.886 124.581 118.271 125.969 118.271C128.105 118.271 129.283 119.545 129.283 121.821V128H127.384V122.27C127.384 120.688 126.725 119.905 125.328 119.905C123.93 119.905 123.06 120.863 123.06 122.401V128H121.153ZM135.62 131.366C133.194 131.366 131.7 130.303 131.472 128.712L131.489 128.694H133.414L133.423 128.712C133.581 129.371 134.355 129.837 135.647 129.837C137.22 129.837 138.151 129.099 138.151 127.798V125.917H138.011C137.431 126.954 136.376 127.534 135.066 127.534C132.614 127.534 131.103 125.645 131.103 122.955V122.938C131.103 120.213 132.623 118.288 135.102 118.288C136.438 118.288 137.475 118.947 138.028 120.02H138.143V118.455H140.041V127.807C140.041 129.978 138.327 131.366 135.62 131.366ZM135.594 125.961C137.211 125.961 138.187 124.73 138.187 122.946V122.929C138.187 121.153 137.202 119.905 135.594 119.905C133.968 119.905 133.054 121.153 133.054 122.929V122.946C133.054 124.722 133.968 125.961 135.594 125.961Z" fill="black"/>
<path d="M87.3137 107V94.3174H89.2825V99.6787H95.7952V94.3174H97.7552V107H95.7952V101.384H89.2825V107H87.3137ZM104.4 107.185C101.596 107.185 99.8825 105.312 99.8825 102.236V102.219C99.8825 99.1514 101.605 97.2705 104.4 97.2705C107.186 97.2705 108.909 99.1426 108.909 102.219V102.236C108.909 105.312 107.195 107.185 104.4 107.185ZM104.4 105.594C106.035 105.594 106.966 104.346 106.966 102.236V102.219C106.966 100.101 106.035 98.8613 104.4 98.8613C102.756 98.8613 101.834 100.101 101.834 102.219V102.236C101.834 104.354 102.756 105.594 104.4 105.594ZM110.825 107V97.4551H112.732V98.9229H112.873C113.295 97.877 114.227 97.2705 115.475 97.2705C116.775 97.2705 117.698 97.9473 118.12 98.9756H118.27C118.753 97.9473 119.852 97.2705 121.179 97.2705C123.104 97.2705 124.229 98.4307 124.229 100.417V107H122.33V100.874C122.33 99.5557 121.732 98.9053 120.484 98.9053C119.271 98.9053 118.472 99.8105 118.472 100.962V107H116.573V100.681C116.573 99.5908 115.861 98.9053 114.736 98.9053C113.585 98.9053 112.732 99.8896 112.732 101.138V107H110.825ZM130.539 107.185C127.744 107.185 126.057 105.277 126.057 102.254V102.245C126.057 99.2656 127.78 97.2705 130.443 97.2705C133.106 97.2705 134.741 99.1953 134.741 102.061V102.729H127.973C128.008 104.557 129.01 105.62 130.583 105.62C131.805 105.62 132.535 105.014 132.763 104.521L132.798 104.451L134.635 104.442L134.618 104.521C134.301 105.778 132.983 107.185 130.539 107.185ZM130.452 98.835C129.151 98.835 128.166 99.7227 127.999 101.366H132.851C132.702 99.6611 131.744 98.835 130.452 98.835ZM81.1786 128V115.317H89.0976V117.014H83.1474V121.03H88.5966V122.691H83.1474V128H81.1786ZM92.0686 116.75C91.4095 116.75 90.8733 116.214 90.8733 115.563C90.8733 114.904 91.4095 114.368 92.0686 114.368C92.719 114.368 93.2639 114.904 93.2639 115.563C93.2639 116.214 92.719 116.75 92.0686 116.75ZM91.1106 128V118.455H93.0091V128H91.1106ZM95.4264 128V118.455H97.3336V119.905H97.4743C97.9401 118.886 98.8541 118.271 100.243 118.271C102.379 118.271 103.556 119.545 103.556 121.821V128H101.658V122.27C101.658 120.688 100.999 119.905 99.6012 119.905C98.2038 119.905 97.3336 120.863 97.3336 122.401V128H95.4264ZM109.34 128.158C106.94 128.158 105.385 126.233 105.385 123.236V123.219C105.385 120.195 106.914 118.288 109.34 118.288C110.649 118.288 111.766 118.938 112.275 119.967H112.425V114.711H114.323V128H112.425V126.497H112.275C111.722 127.543 110.676 128.158 109.34 128.158ZM109.885 126.532C111.476 126.532 112.451 125.275 112.451 123.236V123.219C112.451 121.18 111.467 119.923 109.885 119.923C108.285 119.923 107.327 121.171 107.327 123.219V123.236C107.327 125.284 108.285 126.532 109.885 126.532ZM117.795 116.75C117.136 116.75 116.6 116.214 116.6 115.563C116.6 114.904 117.136 114.368 117.795 114.368C118.446 114.368 118.991 114.904 118.991 115.563C118.991 116.214 118.446 116.75 117.795 116.75ZM116.837 128V118.455H118.736V128H116.837ZM121.153 128V118.455H123.06V119.905H123.201C123.667 118.886 124.581 118.271 125.969 118.271C128.105 118.271 129.283 119.545 129.283 121.821V128H127.384V122.27C127.384 120.688 126.725 119.905 125.328 119.905C123.93 119.905 123.06 120.863 123.06 122.401V128H121.153ZM135.62 131.366C133.194 131.366 131.7 130.303 131.472 128.712L131.489 128.694H133.414L133.423 128.712C133.581 129.371 134.355 129.837 135.647 129.837C137.22 129.837 138.151 129.099 138.151 127.798V125.917H138.011C137.431 126.954 136.376 127.534 135.066 127.534C132.614 127.534 131.103 125.645 131.103 122.955V122.938C131.103 120.213 132.623 118.288 135.102 118.288C136.438 118.288 137.475 118.947 138.028 120.02H138.143V118.455H140.041V127.807C140.041 129.978 138.327 131.366 135.62 131.366ZM135.594 125.961C137.211 125.961 138.187 124.73 138.187 122.946V122.929C138.187 121.153 137.202 119.905 135.594 119.905C133.968 119.905 133.054 121.153 133.054 122.929V122.946C133.054 124.722 133.968 125.961 135.594 125.961Z" fill="url(#paint0_linear_47_199)"/>
<defs>
<linearGradient id="paint0_linear_47_199" x1="82" y1="133" x2="156.5" y2="133" gradientUnits="userSpaceOnUse">
<stop offset="0.40132" stop-color="#FF6000" stop-opacity="0"/>
<stop offset="0.493334" stop-color="#FF6000" stop-opacity="0.208333"/>
<stop offset="0.665256" stop-color="#FF6000"/>
<stop offset="0.929191" stop-color="#FF6000" stop-opacity="0.197917"/>
<stop offset="0.982462" stop-color="#FF6000" stop-opacity="0"/>
</linearGradient>
</defs>
</svg>
