<svg width="220" height="220" viewBox="-30 -30 260 260" fill="none" xmlns="http://www.w3.org/2000/svg">
<path className='line' d="M218.138 112.983C206.33 141.008 193.748 164.134 176.69 180.255C159.653 196.357 138.118 205.5 108.33 205.5C78.515 205.5 52.0532 197.005 33.055 181.232C14.0667 165.466 2.5 142.403 2.5 113.177C2.5 84.085 22.9642 65.3607 46.8212 49.9927C54.2395 45.214 61.9502 40.781 69.4585 36.4644C74.03 33.8362 78.5265 31.2511 82.8363 28.6573C94.1909 21.8239 104.226 14.943 110.685 7.13598C116.879 -0.351496 128.043 -1.1511 141.194 2.97336C154.309 7.08671 169.202 16.0485 182.58 27.7404C195.957 39.431 207.784 53.821 214.793 68.7606C221.802 83.7013 223.972 99.138 218.138 112.983Z" stroke="#C6C6C6"/>
<path className='line' d="M195.5 94C195.5 122.652 188.873 152.557 175.111 175.28C161.358 197.989 140.503 213.5 112 213.5C97.6826 213.5 86.1333 211.63 76.3458 207.692C66.5636 203.757 58.5148 197.744 51.2117 189.42C36.5783 172.741 24.97 146.826 8.45669 109.796C0.243072 91.3778 -0.945064 75.749 2.73243 62.6666C6.41071 49.5814 14.9745 38.9804 26.3808 30.6538C49.2111 13.9878 83.3438 6.5 112 6.5C140.634 6.5 161.479 14.1163 175.173 28.8019C188.874 43.4941 195.5 65.3489 195.5 94Z" stroke="#C6C6C6"/>
<path className='line' d="M197.68 110.384C211.858 122.199 216.435 133.35 214.795 143.396C213.148 153.483 205.207 162.647 193.903 170.4C171.306 185.9 135.657 195.5 112 195.5C88.4487 195.5 73.0819 184.609 60.5845 168.444C54.3281 160.352 48.7962 150.942 43.3223 140.917C41.3065 137.225 39.297 133.446 37.2622 129.619C33.7794 123.07 30.2226 116.382 26.4342 109.752C20.521 99.4039 20.7007 88.944 24.8518 79.037C29.0114 69.1097 37.163 59.7347 47.1892 51.639C57.2107 43.5471 69.0745 36.7582 80.6128 31.9934C92.1579 27.2258 103.34 24.5 112 24.5C120.642 24.5 126.714 26.8707 131.869 31.1428C137.05 35.4376 141.324 41.6687 146.329 49.4578C147.006 50.5105 147.695 51.5906 148.401 52.697C158.131 67.9473 171.047 88.1902 197.68 110.384Z" stroke="#C6C6C6"/>
<path className='line' d="M180.529 107.67C188.204 128.961 181.662 148.642 167.898 163.029C154.123 177.429 133.129 186.5 112 186.5C90.8085 186.5 63.9212 180.141 46.3461 167.408C37.5656 161.046 31.1473 153.122 28.881 143.642C26.617 134.17 28.4759 123.056 36.4246 110.264C43.7192 98.5243 49.4294 88.1338 54.3955 79.0972C54.8814 78.2129 55.3603 77.3416 55.8328 76.4833C61.1385 66.8448 65.6349 58.8616 70.4516 52.489C75.2615 46.1254 80.3749 41.3904 86.9017 38.2393C93.4319 35.0866 101.417 33.5 112 33.5C122.568 33.5 131.149 35.4566 138.319 39.041C145.488 42.6251 151.274 47.8503 156.235 54.4261C166.01 67.3812 172.548 85.5227 180.14 106.589C180.27 106.949 180.399 107.309 180.529 107.67Z" stroke="#C6C6C6"/>
<path d="M89.3137 107V94.3174H91.2825V99.6787H97.7952V94.3174H99.7552V107H97.7952V101.384H91.2825V107H89.3137ZM106.4 107.185C103.596 107.185 101.882 105.312 101.882 102.236V102.219C101.882 99.1514 103.605 97.2705 106.4 97.2705C109.186 97.2705 110.909 99.1426 110.909 102.219V102.236C110.909 105.312 109.195 107.185 106.4 107.185ZM106.4 105.594C108.035 105.594 108.966 104.346 108.966 102.236V102.219C108.966 100.101 108.035 98.8613 106.4 98.8613C104.756 98.8613 103.834 100.101 103.834 102.219V102.236C103.834 104.354 104.756 105.594 106.4 105.594ZM112.825 107V97.4551H114.732V98.9229H114.873C115.295 97.877 116.227 97.2705 117.475 97.2705C118.775 97.2705 119.698 97.9473 120.12 98.9756H120.27C120.753 97.9473 121.852 97.2705 123.179 97.2705C125.104 97.2705 126.229 98.4307 126.229 100.417V107H124.33V100.874C124.33 99.5557 123.732 98.9053 122.484 98.9053C121.271 98.9053 120.472 99.8105 120.472 100.962V107H118.573V100.681C118.573 99.5908 117.861 98.9053 116.736 98.9053C115.585 98.9053 114.732 99.8896 114.732 101.138V107H112.825ZM132.539 107.185C129.744 107.185 128.057 105.277 128.057 102.254V102.245C128.057 99.2656 129.78 97.2705 132.443 97.2705C135.106 97.2705 136.741 99.1953 136.741 102.061V102.729H129.973C130.008 104.557 131.01 105.62 132.583 105.62C133.805 105.62 134.535 105.014 134.763 104.521L134.798 104.451L136.635 104.442L136.618 104.521C136.301 105.778 134.983 107.185 132.539 107.185ZM132.452 98.835C131.151 98.835 130.166 99.7227 129.999 101.366H134.851C134.702 99.6611 133.744 98.835 132.452 98.835ZM83.1786 128V115.317H91.0976V117.014H85.1474V121.03H90.5966V122.691H85.1474V128H83.1786ZM94.0686 116.75C93.4095 116.75 92.8733 116.214 92.8733 115.563C92.8733 114.904 93.4095 114.368 94.0686 114.368C94.719 114.368 95.2639 114.904 95.2639 115.563C95.2639 116.214 94.719 116.75 94.0686 116.75ZM93.1106 128V118.455H95.0091V128H93.1106ZM97.4264 128V118.455H99.3336V119.905H99.4743C99.9401 118.886 100.854 118.271 102.243 118.271C104.379 118.271 105.556 119.545 105.556 121.821V128H103.658V122.27C103.658 120.688 102.999 119.905 101.601 119.905C100.204 119.905 99.3336 120.863 99.3336 122.401V128H97.4264ZM111.34 128.158C108.94 128.158 107.385 126.233 107.385 123.236V123.219C107.385 120.195 108.914 118.288 111.34 118.288C112.649 118.288 113.766 118.938 114.275 119.967H114.425V114.711H116.323V128H114.425V126.497H114.275C113.722 127.543 112.676 128.158 111.34 128.158ZM111.885 126.532C113.476 126.532 114.451 125.275 114.451 123.236V123.219C114.451 121.18 113.467 119.923 111.885 119.923C110.285 119.923 109.327 121.171 109.327 123.219V123.236C109.327 125.284 110.285 126.532 111.885 126.532ZM119.795 116.75C119.136 116.75 118.6 116.214 118.6 115.563C118.6 114.904 119.136 114.368 119.795 114.368C120.446 114.368 120.991 114.904 120.991 115.563C120.991 116.214 120.446 116.75 119.795 116.75ZM118.837 128V118.455H120.736V128H118.837ZM123.153 128V118.455H125.06V119.905H125.201C125.667 118.886 126.581 118.271 127.969 118.271C130.105 118.271 131.283 119.545 131.283 121.821V128H129.384V122.27C129.384 120.688 128.725 119.905 127.328 119.905C125.93 119.905 125.06 120.863 125.06 122.401V128H123.153ZM137.62 131.366C135.194 131.366 133.7 130.303 133.472 128.712L133.489 128.694H135.414L135.423 128.712C135.581 129.371 136.355 129.837 137.647 129.837C139.22 129.837 140.151 129.099 140.151 127.798V125.917H140.011C139.431 126.954 138.376 127.534 137.066 127.534C134.614 127.534 133.103 125.645 133.103 122.955V122.938C133.103 120.213 134.623 118.288 137.102 118.288C138.438 118.288 139.475 118.947 140.028 120.02H140.143V118.455H142.041V127.807C142.041 129.978 140.327 131.366 137.62 131.366ZM137.594 125.961C139.211 125.961 140.187 124.73 140.187 122.946V122.929C140.187 121.153 139.202 119.905 137.594 119.905C135.968 119.905 135.054 121.153 135.054 122.929V122.946C135.054 124.722 135.968 125.961 137.594 125.961Z" fill="black"/>
<path d="M89.3137 107V94.3174H91.2825V99.6787H97.7952V94.3174H99.7552V107H97.7952V101.384H91.2825V107H89.3137ZM106.4 107.185C103.596 107.185 101.882 105.312 101.882 102.236V102.219C101.882 99.1514 103.605 97.2705 106.4 97.2705C109.186 97.2705 110.909 99.1426 110.909 102.219V102.236C110.909 105.312 109.195 107.185 106.4 107.185ZM106.4 105.594C108.035 105.594 108.966 104.346 108.966 102.236V102.219C108.966 100.101 108.035 98.8613 106.4 98.8613C104.756 98.8613 103.834 100.101 103.834 102.219V102.236C103.834 104.354 104.756 105.594 106.4 105.594ZM112.825 107V97.4551H114.732V98.9229H114.873C115.295 97.877 116.227 97.2705 117.475 97.2705C118.775 97.2705 119.698 97.9473 120.12 98.9756H120.27C120.753 97.9473 121.852 97.2705 123.179 97.2705C125.104 97.2705 126.229 98.4307 126.229 100.417V107H124.33V100.874C124.33 99.5557 123.732 98.9053 122.484 98.9053C121.271 98.9053 120.472 99.8105 120.472 100.962V107H118.573V100.681C118.573 99.5908 117.861 98.9053 116.736 98.9053C115.585 98.9053 114.732 99.8896 114.732 101.138V107H112.825ZM132.539 107.185C129.744 107.185 128.057 105.277 128.057 102.254V102.245C128.057 99.2656 129.78 97.2705 132.443 97.2705C135.106 97.2705 136.741 99.1953 136.741 102.061V102.729H129.973C130.008 104.557 131.01 105.62 132.583 105.62C133.805 105.62 134.535 105.014 134.763 104.521L134.798 104.451L136.635 104.442L136.618 104.521C136.301 105.778 134.983 107.185 132.539 107.185ZM132.452 98.835C131.151 98.835 130.166 99.7227 129.999 101.366H134.851C134.702 99.6611 133.744 98.835 132.452 98.835ZM83.1786 128V115.317H91.0976V117.014H85.1474V121.03H90.5966V122.691H85.1474V128H83.1786ZM94.0686 116.75C93.4095 116.75 92.8733 116.214 92.8733 115.563C92.8733 114.904 93.4095 114.368 94.0686 114.368C94.719 114.368 95.2639 114.904 95.2639 115.563C95.2639 116.214 94.719 116.75 94.0686 116.75ZM93.1106 128V118.455H95.0091V128H93.1106ZM97.4264 128V118.455H99.3336V119.905H99.4743C99.9401 118.886 100.854 118.271 102.243 118.271C104.379 118.271 105.556 119.545 105.556 121.821V128H103.658V122.27C103.658 120.688 102.999 119.905 101.601 119.905C100.204 119.905 99.3336 120.863 99.3336 122.401V128H97.4264ZM111.34 128.158C108.94 128.158 107.385 126.233 107.385 123.236V123.219C107.385 120.195 108.914 118.288 111.34 118.288C112.649 118.288 113.766 118.938 114.275 119.967H114.425V114.711H116.323V128H114.425V126.497H114.275C113.722 127.543 112.676 128.158 111.34 128.158ZM111.885 126.532C113.476 126.532 114.451 125.275 114.451 123.236V123.219C114.451 121.18 113.467 119.923 111.885 119.923C110.285 119.923 109.327 121.171 109.327 123.219V123.236C109.327 125.284 110.285 126.532 111.885 126.532ZM119.795 116.75C119.136 116.75 118.6 116.214 118.6 115.563C118.6 114.904 119.136 114.368 119.795 114.368C120.446 114.368 120.991 114.904 120.991 115.563C120.991 116.214 120.446 116.75 119.795 116.75ZM118.837 128V118.455H120.736V128H118.837ZM123.153 128V118.455H125.06V119.905H125.201C125.667 118.886 126.581 118.271 127.969 118.271C130.105 118.271 131.283 119.545 131.283 121.821V128H129.384V122.27C129.384 120.688 128.725 119.905 127.328 119.905C125.93 119.905 125.06 120.863 125.06 122.401V128H123.153ZM137.62 131.366C135.194 131.366 133.7 130.303 133.472 128.712L133.489 128.694H135.414L135.423 128.712C135.581 129.371 136.355 129.837 137.647 129.837C139.22 129.837 140.151 129.099 140.151 127.798V125.917H140.011C139.431 126.954 138.376 127.534 137.066 127.534C134.614 127.534 133.103 125.645 133.103 122.955V122.938C133.103 120.213 134.623 118.288 137.102 118.288C138.438 118.288 139.475 118.947 140.028 120.02H140.143V118.455H142.041V127.807C142.041 129.978 140.327 131.366 137.62 131.366ZM137.594 125.961C139.211 125.961 140.187 124.73 140.187 122.946V122.929C140.187 121.153 139.202 119.905 137.594 119.905C135.968 119.905 135.054 121.153 135.054 122.929V122.946C135.054 124.722 135.968 125.961 137.594 125.961Z" fill="url(#paint0_linear_47_175)"/>
<defs>
<linearGradient id="paint0_linear_47_175" x1="59" y1="133" x2="157" y2="133" gradientUnits="userSpaceOnUse">
<stop stop-color="#FF6000" stop-opacity="0"/>
<stop offset="0.0788975" stop-color="#FF6000" stop-opacity="0.208333"/>
<stop offset="0.149789" stop-color="#FF6000"/>
<stop offset="0.342771" stop-color="#FF6000" stop-opacity="0.197917"/>
<stop offset="0.401847" stop-color="#FF6000" stop-opacity="0"/>
</linearGradient>
</defs>
</svg>
