<svg width="220" height="220" viewBox="-30 -30 260 260" fill="none" xmlns="http://www.w3.org/2000/svg">
<path className='line' d="M213.374 110.256C227.364 133.696 215.945 160.94 193.64 182.453C171.355 203.946 138.397 219.5 109.847 219.5C81.3073 219.5 48.5862 202.955 26.4132 180.958C15.3318 169.964 6.91778 157.639 2.9736 145.386C-0.96722 133.143 -0.44295 120.99 6.31344 110.267C12.2889 100.782 17.8714 90.2075 23.5312 79.4865C24.3732 77.8915 25.2169 76.2934 26.0638 74.6951C32.6091 62.3433 39.3522 49.9771 47.0262 38.9735C62.3717 16.9699 81.3777 0.5 109.847 0.5C138.326 0.5 157.095 15.9821 172.315 37.4764C179.929 48.2284 186.642 60.4684 193.231 73.006C194.54 75.4973 195.844 78.0006 197.15 80.5061C202.41 90.6002 207.688 100.73 213.374 110.256Z" stroke="#C6C6C6"/>
<path className='line' d="M213.5 110C213.5 138.575 203.687 157.686 185.861 173.035C167.994 188.42 142.072 200.033 109.807 213.539C93.7794 220.248 79.3383 220.699 66.6884 216.741C54.031 212.78 43.1243 204.391 34.2014 193.35C16.3472 171.258 6.5 138.624 6.5 110C6.5 52.9122 59.702 14.4743 110.078 6.49398C135.123 2.52654 160.97 14.0689 180.583 33.8134C200.191 53.5543 213.5 81.4322 213.5 110Z" stroke="#C6C6C6"/>
<path className='line' d="M195.62 110.325C201.471 117.151 202.082 125.824 198.894 135.087C195.701 144.363 188.711 154.173 179.463 163.141C160.957 181.086 133.575 195.5 110 195.5C86.4294 195.5 65.68 183.465 50.4966 166.727C35.3093 149.984 25.7401 128.587 24.4989 109.967C23.2611 91.3974 32.8019 70.0272 48.615 53.2808C64.4213 36.5414 86.4224 24.5 110 24.5C133.5 24.5 148.87 38.8312 161.401 56.7862C166.725 64.4138 171.519 72.6709 176.204 80.7378C177.033 82.1667 177.86 83.5897 178.685 85.0022C184.16 94.3748 189.587 103.287 195.62 110.325Z" stroke="#C6C6C6"/>
<path className='line' d="M186.5 110C186.5 139.149 177.915 158.241 164.122 170.058C150.314 181.887 131.202 186.5 110 186.5C99.4976 186.5 92.435 183.081 86.991 177.639C81.5193 172.168 77.6622 164.636 73.6273 156.344C73.3201 155.712 73.0119 155.077 72.702 154.438C64.8926 138.331 55.9888 119.966 33.208 109.545C27.3906 106.884 23.6159 103.722 21.4968 100.258C19.3841 96.8042 18.8883 93.0047 19.7128 88.9992C21.3707 80.9448 28.3655 72.0844 38.2486 63.8211C48.1116 55.5747 60.7712 47.9895 73.6163 42.4672C86.4678 36.9421 99.4628 33.5 110 33.5C131.202 33.5 150.314 38.1132 164.122 49.9422C177.915 61.7586 186.5 80.8505 186.5 110Z" stroke="#C6C6C6"/>
<path d="M87.3137 107V94.3174H89.2825V99.6787H95.7952V94.3174H97.7552V107H95.7952V101.384H89.2825V107H87.3137ZM104.4 107.185C101.596 107.185 99.8825 105.312 99.8825 102.236V102.219C99.8825 99.1514 101.605 97.2705 104.4 97.2705C107.186 97.2705 108.909 99.1426 108.909 102.219V102.236C108.909 105.312 107.195 107.185 104.4 107.185ZM104.4 105.594C106.035 105.594 106.966 104.346 106.966 102.236V102.219C106.966 100.101 106.035 98.8613 104.4 98.8613C102.756 98.8613 101.834 100.101 101.834 102.219V102.236C101.834 104.354 102.756 105.594 104.4 105.594ZM110.825 107V97.4551H112.732V98.9229H112.873C113.295 97.877 114.227 97.2705 115.475 97.2705C116.775 97.2705 117.698 97.9473 118.12 98.9756H118.27C118.753 97.9473 119.852 97.2705 121.179 97.2705C123.104 97.2705 124.229 98.4307 124.229 100.417V107H122.33V100.874C122.33 99.5557 121.732 98.9053 120.484 98.9053C119.271 98.9053 118.472 99.8105 118.472 100.962V107H116.573V100.681C116.573 99.5908 115.861 98.9053 114.736 98.9053C113.585 98.9053 112.732 99.8896 112.732 101.138V107H110.825ZM130.539 107.185C127.744 107.185 126.057 105.277 126.057 102.254V102.245C126.057 99.2656 127.78 97.2705 130.443 97.2705C133.106 97.2705 134.741 99.1953 134.741 102.061V102.729H127.973C128.008 104.557 129.01 105.62 130.583 105.62C131.805 105.62 132.535 105.014 132.763 104.521L132.798 104.451L134.635 104.442L134.618 104.521C134.301 105.778 132.983 107.185 130.539 107.185ZM130.452 98.835C129.151 98.835 128.166 99.7227 127.999 101.366H132.851C132.702 99.6611 131.744 98.835 130.452 98.835ZM81.1786 128V115.317H89.0976V117.014H83.1474V121.03H88.5966V122.691H83.1474V128H81.1786ZM92.0686 116.75C91.4095 116.75 90.8733 116.214 90.8733 115.563C90.8733 114.904 91.4095 114.368 92.0686 114.368C92.719 114.368 93.2639 114.904 93.2639 115.563C93.2639 116.214 92.719 116.75 92.0686 116.75ZM91.1106 128V118.455H93.0091V128H91.1106ZM95.4264 128V118.455H97.3336V119.905H97.4743C97.9401 118.886 98.8541 118.271 100.243 118.271C102.379 118.271 103.556 119.545 103.556 121.821V128H101.658V122.27C101.658 120.688 100.999 119.905 99.6012 119.905C98.2038 119.905 97.3336 120.863 97.3336 122.401V128H95.4264ZM109.34 128.158C106.94 128.158 105.385 126.233 105.385 123.236V123.219C105.385 120.195 106.914 118.288 109.34 118.288C110.649 118.288 111.766 118.938 112.275 119.967H112.425V114.711H114.323V128H112.425V126.497H112.275C111.722 127.543 110.676 128.158 109.34 128.158ZM109.885 126.532C111.476 126.532 112.451 125.275 112.451 123.236V123.219C112.451 121.18 111.467 119.923 109.885 119.923C108.285 119.923 107.327 121.171 107.327 123.219V123.236C107.327 125.284 108.285 126.532 109.885 126.532ZM117.795 116.75C117.136 116.75 116.6 116.214 116.6 115.563C116.6 114.904 117.136 114.368 117.795 114.368C118.446 114.368 118.991 114.904 118.991 115.563C118.991 116.214 118.446 116.75 117.795 116.75ZM116.837 128V118.455H118.736V128H116.837ZM121.153 128V118.455H123.06V119.905H123.201C123.667 118.886 124.581 118.271 125.969 118.271C128.105 118.271 129.283 119.545 129.283 121.821V128H127.384V122.27C127.384 120.688 126.725 119.905 125.328 119.905C123.93 119.905 123.06 120.863 123.06 122.401V128H121.153ZM135.62 131.366C133.194 131.366 131.7 130.303 131.472 128.712L131.489 128.694H133.414L133.423 128.712C133.581 129.371 134.355 129.837 135.647 129.837C137.22 129.837 138.151 129.099 138.151 127.798V125.917H138.011C137.431 126.954 136.376 127.534 135.066 127.534C132.614 127.534 131.103 125.645 131.103 122.955V122.938C131.103 120.213 132.623 118.288 135.102 118.288C136.438 118.288 137.475 118.947 138.028 120.02H138.143V118.455H140.041V127.807C140.041 129.978 138.327 131.366 135.62 131.366ZM135.594 125.961C137.211 125.961 138.187 124.73 138.187 122.946V122.929C138.187 121.153 137.202 119.905 135.594 119.905C133.968 119.905 133.054 121.153 133.054 122.929V122.946C133.054 124.722 133.968 125.961 135.594 125.961Z" fill="black"/>
<path d="M87.3137 107V94.3174H89.2825V99.6787H95.7952V94.3174H97.7552V107H95.7952V101.384H89.2825V107H87.3137ZM104.4 107.185C101.596 107.185 99.8825 105.312 99.8825 102.236V102.219C99.8825 99.1514 101.605 97.2705 104.4 97.2705C107.186 97.2705 108.909 99.1426 108.909 102.219V102.236C108.909 105.312 107.195 107.185 104.4 107.185ZM104.4 105.594C106.035 105.594 106.966 104.346 106.966 102.236V102.219C106.966 100.101 106.035 98.8613 104.4 98.8613C102.756 98.8613 101.834 100.101 101.834 102.219V102.236C101.834 104.354 102.756 105.594 104.4 105.594ZM110.825 107V97.4551H112.732V98.9229H112.873C113.295 97.877 114.227 97.2705 115.475 97.2705C116.775 97.2705 117.698 97.9473 118.12 98.9756H118.27C118.753 97.9473 119.852 97.2705 121.179 97.2705C123.104 97.2705 124.229 98.4307 124.229 100.417V107H122.33V100.874C122.33 99.5557 121.732 98.9053 120.484 98.9053C119.271 98.9053 118.472 99.8105 118.472 100.962V107H116.573V100.681C116.573 99.5908 115.861 98.9053 114.736 98.9053C113.585 98.9053 112.732 99.8896 112.732 101.138V107H110.825ZM130.539 107.185C127.744 107.185 126.057 105.277 126.057 102.254V102.245C126.057 99.2656 127.78 97.2705 130.443 97.2705C133.106 97.2705 134.741 99.1953 134.741 102.061V102.729H127.973C128.008 104.557 129.01 105.62 130.583 105.62C131.805 105.62 132.535 105.014 132.763 104.521L132.798 104.451L134.635 104.442L134.618 104.521C134.301 105.778 132.983 107.185 130.539 107.185ZM130.452 98.835C129.151 98.835 128.166 99.7227 127.999 101.366H132.851C132.702 99.6611 131.744 98.835 130.452 98.835ZM81.1786 128V115.317H89.0976V117.014H83.1474V121.03H88.5966V122.691H83.1474V128H81.1786ZM92.0686 116.75C91.4095 116.75 90.8733 116.214 90.8733 115.563C90.8733 114.904 91.4095 114.368 92.0686 114.368C92.719 114.368 93.2639 114.904 93.2639 115.563C93.2639 116.214 92.719 116.75 92.0686 116.75ZM91.1106 128V118.455H93.0091V128H91.1106ZM95.4264 128V118.455H97.3336V119.905H97.4743C97.9401 118.886 98.8541 118.271 100.243 118.271C102.379 118.271 103.556 119.545 103.556 121.821V128H101.658V122.27C101.658 120.688 100.999 119.905 99.6012 119.905C98.2038 119.905 97.3336 120.863 97.3336 122.401V128H95.4264ZM109.34 128.158C106.94 128.158 105.385 126.233 105.385 123.236V123.219C105.385 120.195 106.914 118.288 109.34 118.288C110.649 118.288 111.766 118.938 112.275 119.967H112.425V114.711H114.323V128H112.425V126.497H112.275C111.722 127.543 110.676 128.158 109.34 128.158ZM109.885 126.532C111.476 126.532 112.451 125.275 112.451 123.236V123.219C112.451 121.18 111.467 119.923 109.885 119.923C108.285 119.923 107.327 121.171 107.327 123.219V123.236C107.327 125.284 108.285 126.532 109.885 126.532ZM117.795 116.75C117.136 116.75 116.6 116.214 116.6 115.563C116.6 114.904 117.136 114.368 117.795 114.368C118.446 114.368 118.991 114.904 118.991 115.563C118.991 116.214 118.446 116.75 117.795 116.75ZM116.837 128V118.455H118.736V128H116.837ZM121.153 128V118.455H123.06V119.905H123.201C123.667 118.886 124.581 118.271 125.969 118.271C128.105 118.271 129.283 119.545 129.283 121.821V128H127.384V122.27C127.384 120.688 126.725 119.905 125.328 119.905C123.93 119.905 123.06 120.863 123.06 122.401V128H121.153ZM135.62 131.366C133.194 131.366 131.7 130.303 131.472 128.712L131.489 128.694H133.414L133.423 128.712C133.581 129.371 134.355 129.837 135.647 129.837C137.22 129.837 138.151 129.099 138.151 127.798V125.917H138.011C137.431 126.954 136.376 127.534 135.066 127.534C132.614 127.534 131.103 125.645 131.103 122.955V122.938C131.103 120.213 132.623 118.288 135.102 118.288C136.438 118.288 137.475 118.947 138.028 120.02H138.143V118.455H140.041V127.807C140.041 129.978 138.327 131.366 135.62 131.366ZM135.594 125.961C137.211 125.961 138.187 124.73 138.187 122.946V122.929C138.187 121.153 137.202 119.905 135.594 119.905C133.968 119.905 133.054 121.153 133.054 122.929V122.946C133.054 124.722 133.968 125.961 135.594 125.961Z" fill="url(#paint0_linear_47_191)"/>
<defs>
<linearGradient id="paint0_linear_47_191" x1="80.5" y1="133" x2="155" y2="133" gradientUnits="userSpaceOnUse">
<stop offset="0.238863" stop-color="#FF6000" stop-opacity="0"/>
<stop offset="0.310957" stop-color="#FF6000" stop-opacity="0.208333"/>
<stop offset="0.484832" stop-color="#FF6000"/>
<stop offset="0.62054" stop-color="#FF6000" stop-opacity="0.197917"/>
<stop offset="0.713839" stop-color="#FF6000" stop-opacity="0"/>
</linearGradient>
</defs>
</svg>
